<?xml version="1.0" encoding="UTF-8"?>
<svg xmlns="http://www.w3.org/2000/svg" xmlns:xlink="http://www.w3.org/1999/xlink" viewBox="0 0 1340.09 495.64">
  <defs>
    <style>
      .cls-1 {
        stroke: #c9c9c9;
        stroke-linecap: round;
        stroke-linejoin: round;
        stroke-width: 5.49px;
      }

      .cls-1, .cls-2 {
        fill: none;
      }

      .cls-3 {
        fill: #f3f3f3;
      }

      .cls-3, .cls-4, .cls-5, .cls-6, .cls-7, .cls-8, .cls-9, .cls-10, .cls-11, .cls-2, .cls-12, .cls-13, .cls-14, .cls-15, .cls-16, .cls-17, .cls-18, .cls-19, .cls-20, .cls-21, .cls-22, .cls-23, .cls-24, .cls-25, .cls-26, .cls-27, .cls-28, .cls-29, .cls-30, .cls-31 {
        stroke-width: 0px;
      }

      .cls-4 {
        fill: url(#Unbenannter_Verlauf_7-3);
      }

      .cls-32 {
        clip-path: url(#clippath-2);
      }

      .cls-33 {
        isolation: isolate;
      }

      .cls-5 {
        fill: #e5e5e5;
      }

      .cls-6 {
        fill: #f7f7f7;
      }

      .cls-7 {
        fill: #0e3c55;
      }

      .cls-8 {
        fill: #daefee;
      }

      .cls-34 {
        clip-path: url(#clippath-6);
      }

      .cls-9 {
        fill: #e8e9ea;
      }

      .cls-10 {
        fill: #f5f5f5;
      }

      .cls-11 {
        mix-blend-mode: multiply;
        opacity: .2;
      }

      .cls-12 {
        fill: url(#Unbenannter_Verlauf_7-4);
      }

      .cls-13 {
        fill: #ddd;
      }

      .cls-35 {
        clip-path: url(#clippath-1);
      }

      .cls-36 {
        clip-path: url(#clippath-4);
      }

      .cls-14 {
        fill: #ea4b30;
      }

      .cls-15 {
        fill: #f78104;
      }

      .cls-16 {
        fill: #bcd3d3;
      }

      .cls-17 {
        fill: #fff;
      }

      .cls-18 {
        fill: #e95709;
      }

      .cls-19 {
        fill: #005f60;
      }

      .cls-20 {
        fill: url(#Unbenannter_Verlauf_7-5);
      }

      .cls-37 {
        clip-path: url(#clippath);
      }

      .cls-21 {
        fill: #008083;
      }

      .cls-22 {
        fill: #249ea0;
      }

      .cls-38 {
        clip-path: url(#clippath-3);
      }

      .cls-23 {
        fill: #b1bdc4;
      }

      .cls-24 {
        fill: url(#Unbenannter_Verlauf_7-7);
      }

      .cls-25 {
        fill: url(#Unbenannter_Verlauf_7-2);
      }

      .cls-26 {
        fill: #faab36;
      }

      .cls-27 {
        fill: #e09534;
      }

      .cls-28 {
        fill: #6f82d1;
      }

      .cls-29 {
        fill: #c9c9c9;
      }

      .cls-39 {
        clip-path: url(#clippath-5);
      }

      .cls-30 {
        fill: url(#Unbenannter_Verlauf_7-6);
      }

      .cls-31 {
        fill: url(#Unbenannter_Verlauf_7);
      }
    </style>
    <clipPath id="clippath">
      <path class="cls-2" d="M659.68,207.69c-4.24,0-8.24.61-12,1.84-3.77,1.23-7.16,3.01-10.17,5.37-2.92,2.26-5.28,4.87-7.06,7.84-1.79,2.97-2.88,6.14-3.25,9.53-.1.66-.14,1.65-.14,2.97,0,6.4,2.54,12.43,7.63,18.08s13.08,9.93,24.01,12.85c9.89,2.73,17.09,6.73,21.61,12,3.29,3.77,4.94,7.86,4.94,12.29,0,.85-.05,1.51-.14,1.98-.76,5.08-3.34,9.32-7.77,12.71-4.8,3.76-10.69,5.65-17.65,5.65-4.8,0-9.23-1.01-13.27-3.04-4.05-2.02-7.25-4.73-9.6-8.12-1.73-2.49-2.83-5.14-3.29-7.95-.28-1.75-1.72-3.07-3.49-3.07h0c-2.21,0-3.83,2.01-3.48,4.19.4,2.44,1.16,4.81,2.28,7.1,1.74,3.58,4.21,6.73,7.41,9.46,3.11,2.73,6.68,4.82,10.73,6.28,4.05,1.46,8.28,2.19,12.71,2.19,8.56,0,15.91-2.4,22.03-7.2,2.91-2.26,5.27-4.87,7.06-7.84,1.78-2.97,2.87-6.14,3.25-9.53.09-.66.14-1.65.14-2.97,0-6.4-2.54-12.42-7.63-18.08-5.08-5.65-13.09-9.93-24.01-12.85-9.7-2.54-16.9-6.54-21.61-12-3.2-3.48-4.8-7.44-4.8-11.86,0-1.03.05-1.84.14-2.4.56-4.99,3.11-9.22,7.63-12.71,4.8-3.76,10.73-5.65,17.79-5.65,4.71,0,9.08,1.01,13.13,3.04,4.04,2.03,7.25,4.73,9.6,8.12,1.74,2.51,2.84,5.21,3.29,8.08.27,1.75,1.71,3.08,3.49,3.08,2.21,0,3.83-2,3.48-4.19-.4-2.46-1.16-4.85-2.28-7.18-1.74-3.62-4.22-6.8-7.41-9.53-3.11-2.73-6.66-4.82-10.66-6.28-4.01-1.46-8.22-2.19-12.64-2.19Z"/>
    </clipPath>
    <linearGradient id="Unbenannter_Verlauf_7" data-name="Unbenannter Verlauf 7" x1="-10.9" y1="-142.39" x2="-8.94" y2="-142.39" gradientTransform="translate(2683.27 -28163) scale(199.63 -199.63)" gradientUnits="userSpaceOnUse">
      <stop offset="0" stop-color="#faab36"/>
      <stop offset=".08" stop-color="#faab36"/>
      <stop offset=".49" stop-color="#f78104"/>
      <stop offset=".94" stop-color="#e95709"/>
      <stop offset="1" stop-color="#e95709"/>
    </linearGradient>
    <clipPath id="clippath-1">
      <path class="cls-2" d="M705.72,213.06v95.89c0,1.95,1.58,3.53,3.53,3.53s3.53-1.58,3.53-3.53v-95.89c0-1.95-1.58-3.53-3.53-3.53s-3.53,1.58-3.53,3.53"/>
    </clipPath>
    <linearGradient id="Unbenannter_Verlauf_7-2" data-name="Unbenannter Verlauf 7" x1="-10.9" y1="-142.43" x2="-8.94" y2="-142.43" gradientTransform="translate(2685.43 -28171.97) scale(199.63 -199.63)" xlink:href="#Unbenannter_Verlauf_7"/>
    <clipPath id="clippath-2">
      <path class="cls-2" d="M732.55,263.08v-43.42c0-1.7,1.37-3.07,3.07-3.07h28.7c3.3,0,6.45.64,9.46,1.91,3.01,1.27,5.69,3.09,8.05,5.44,2.35,2.36,4.17,5.04,5.44,8.05,1.27,3.01,1.91,6.17,1.91,9.46s-.64,6.31-1.91,9.32c-1.27,3.01-3.09,5.7-5.44,8.05-2.36,2.36-5.04,4.17-8.05,5.44-3.01,1.27-6.17,1.91-9.46,1.91h-28.7c-1.7,0-3.07-1.37-3.07-3.07M728.56,209.53c-1.7,0-3.07,1.37-3.07,3.07v96.52c0,1.7,1.37,3.07,3.07,3.07h.92c1.7,0,3.07-1.37,3.07-3.07v-32.83c0-1.7,1.37-3.07,3.07-3.07h22.35c1.65,0,2.98,1.31,3.06,2.96.3,5.94,1.26,12.01,2.87,18.22,1.98,7.34,4.8,14.12,8.47,20.34,3.58,5.83,7.77,10.9,12.57,15.18,4.8,4.28,10.07,7.6,15.82,9.96,6.21,2.64,12.76,3.95,19.63,3.95,3.48,0,6.82-.33,10.03-.99,9.53-1.96,18.15-6.42,25.84-13.39,1.33-1.2,1.4-3.27.11-4.52l-.73-.71c-1.15-1.12-2.96-1.1-4.15-.02-4.22,3.83-8.75,6.79-13.59,8.89-5.65,2.45-11.49,3.67-17.51,3.67s-11.39-1.13-16.95-3.39c-5.08-2.07-9.74-5.01-13.98-8.83s-7.91-8.31-11.01-13.49c-3.3-5.37-5.89-11.53-7.77-18.5-1.46-5.59-2.33-11.19-2.6-16.78-.07-1.48.97-2.81,2.43-3.1,6.2-1.21,11.67-4.13,16.41-8.79,3.01-3.01,5.32-6.45,6.92-10.31,1.6-3.86,2.4-7.91,2.4-12.14s-.8-8.31-2.4-12.22c-1.6-3.9-3.91-7.36-6.92-10.38-3.68-3.67-8.01-6.3-13.02-7.87-3.4-1.07-6.98-1.45-10.55-1.45h-34.79Z"/>
    </clipPath>
    <linearGradient id="Unbenannter_Verlauf_7-3" data-name="Unbenannter Verlauf 7" x1="-10.9" y1="-142.54" x2="-8.94" y2="-142.54" gradientTransform="translate(2695.13 -28178.92) scale(199.63 -199.63)" xlink:href="#Unbenannter_Verlauf_7"/>
    <clipPath id="clippath-3">
      <path class="cls-2" d="M808.38,213.06v95.6c0,1.95,1.58,3.53,3.53,3.53s3.53-1.58,3.53-3.53v-95.6c0-1.95-1.58-3.53-3.53-3.53s-3.53,1.58-3.53,3.53"/>
    </clipPath>
    <linearGradient id="Unbenannter_Verlauf_7-4" data-name="Unbenannter Verlauf 7" x1="-10.9" y1="-142.51" x2="-8.94" y2="-142.51" gradientTransform="translate(2691.08 -28188.55) scale(199.63 -199.63)" xlink:href="#Unbenannter_Verlauf_7"/>
    <clipPath id="clippath-4">
      <path class="cls-2" d="M860.2,207.69c-4.23,0-8.24.61-12,1.84-3.77,1.23-7.16,3.01-10.17,5.37-2.92,2.26-5.27,4.87-7.06,7.84-1.79,2.97-2.87,6.14-3.25,9.53-.09.66-.14,1.65-.14,2.97,0,6.4,2.54,12.43,7.63,18.08,5.08,5.65,13.08,9.93,24,12.85,9.89,2.73,17.09,6.73,21.61,12,3.29,3.77,4.94,7.86,4.94,12.29,0,.85-.05,1.51-.14,1.98-.75,5.08-3.34,9.32-7.77,12.71-4.8,3.76-10.69,5.65-17.65,5.65-4.8,0-9.23-1.01-13.27-3.04-4.05-2.02-7.25-4.73-9.6-8.12-1.73-2.49-2.83-5.14-3.28-7.95-.29-1.75-1.72-3.07-3.49-3.07h0c-2.21,0-3.83,2.01-3.48,4.19.4,2.44,1.16,4.81,2.28,7.1,1.74,3.58,4.21,6.73,7.42,9.46,3.11,2.73,6.68,4.82,10.73,6.28,4.05,1.46,8.28,2.19,12.71,2.19,8.57,0,15.91-2.4,22.03-7.2,2.92-2.26,5.27-4.87,7.06-7.84,1.79-2.97,2.87-6.14,3.25-9.53.09-.66.14-1.65.14-2.97,0-6.4-2.54-12.42-7.62-18.08-5.09-5.65-13.09-9.93-24.01-12.85-9.7-2.54-16.9-6.54-21.61-12-3.2-3.48-4.8-7.44-4.8-11.86,0-1.03.05-1.84.14-2.4.56-4.99,3.11-9.22,7.63-12.71,4.8-3.76,10.73-5.65,17.79-5.65,4.71,0,9.08,1.01,13.14,3.04,4.05,2.03,7.25,4.73,9.6,8.12,1.74,2.51,2.84,5.21,3.29,8.08.28,1.75,1.71,3.08,3.49,3.08,2.21,0,3.83-2,3.47-4.19-.4-2.46-1.16-4.85-2.28-7.18-1.74-3.62-4.21-6.8-7.41-9.53-3.11-2.73-6.66-4.82-10.66-6.28-4-1.46-8.22-2.19-12.64-2.19Z"/>
    </clipPath>
    <linearGradient id="Unbenannter_Verlauf_7-5" data-name="Unbenannter Verlauf 7" x1="-10.9" y1="-142.55" x2="-8.94" y2="-142.55" gradientTransform="translate(2694.36 -28195.23) scale(199.63 -199.63)" xlink:href="#Unbenannter_Verlauf_7"/>
    <clipPath id="clippath-5">
      <path class="cls-2" d="M550.22,260.86c0,10.2,8.27,18.47,18.48,18.47s18.47-8.27,18.47-18.47-8.27-18.47-18.47-18.47-18.48,8.27-18.48,18.47"/>
    </clipPath>
    <linearGradient id="Unbenannter_Verlauf_7-6" data-name="Unbenannter Verlauf 7" x1="-10.9" y1="-142.31" x2="-8.94" y2="-142.31" gradientTransform="translate(2677.62 -28149.41) scale(199.63 -199.63)" xlink:href="#Unbenannter_Verlauf_7"/>
    <clipPath id="clippath-6">
      <path class="cls-2" d="M524.23,260.86c0-24.52,19.95-44.47,44.47-44.47s44.47,19.95,44.47,44.47-19.95,44.47-44.47,44.47-44.47-19.95-44.47-44.47M517.36,260.86c0,28.35,22.98,51.33,51.33,51.33s51.33-22.98,51.33-51.33-22.98-51.33-51.33-51.33-51.33,22.98-51.33,51.33"/>
    </clipPath>
    <linearGradient id="Unbenannter_Verlauf_7-7" data-name="Unbenannter Verlauf 7" x1="-10.9" y1="-142.31" x2="-8.94" y2="-142.31" gradientTransform="translate(2677.62 -28149.41) scale(199.63 -199.63)" xlink:href="#Unbenannter_Verlauf_7"/>
  </defs>
  <g class="cls-33">
    <g id="Ebene_2" data-name="Ebene 2">
      <g id="Ebene_1-2" data-name="Ebene 1">
        <g>
          <g>
            <g>
              <path class="cls-26" d="M535.67,176.7c0-5.45,2.64-8.07,7.29-8.07s7.29,2.62,7.29,8.07-2.64,8.05-7.29,8.05-7.29-2.67-7.29-8.05ZM538.43,176.7c0,3.79,1.5,5.66,4.53,5.66s4.53-1.86,4.53-5.66-1.49-5.68-4.53-5.68-4.53,1.86-4.53,5.68Z"/>
              <path class="cls-26" d="M557.37,178.4v4.88c0,.74-.6,1.33-1.33,1.33s-1.33-.6-1.33-1.33v-12.99c0-.74.6-1.33,1.33-1.33h4.39c2.69,0,4.83,1.49,4.83,4.71s-2.09,4.74-4.83,4.74h-3.06ZM557.37,171.34v4.67h2.85c1.43,0,2.28-.85,2.28-2.35s-.87-2.32-2.28-2.32h-2.85Z"/>
              <path class="cls-26" d="M572.36,175.46h4.35c.64,0,1.17.53,1.17,1.17s-.53,1.17-1.17,1.17h-4.35v4.23h6.09c.67,0,1.2.53,1.2,1.2s-.53,1.2-1.2,1.2h-7.43c-.74,0-1.33-.6-1.33-1.33v-12.81c0-.74.6-1.33,1.33-1.33h7.17c.67,0,1.2.53,1.2,1.2s-.53,1.2-1.2,1.2h-5.84v4.12Z"/>
              <path class="cls-26" d="M595.69,170.07v13.22c0,.71-.6,1.31-1.31,1.31-.44,0-.85-.23-1.08-.58l-6.78-9.8v9.06c0,.71-.6,1.31-1.31,1.31s-1.31-.6-1.31-1.31v-13.22c0-.71.6-1.31,1.31-1.31.46,0,.83.21,1.06.55l6.81,9.87v-9.11c0-.71.6-1.31,1.31-1.31s1.31.6,1.31,1.31Z"/>
            </g>
            <g>
              <path class="cls-26" d="M646.16,171.02c-1.91,0-2.62.9-2.62,1.82,0,3.01,8.39,1.61,8.39,7.36,0,2.81-1.98,4.55-5.77,4.55-2.74,0-4.92-1.36-5.82-2.81-.11-.18-.18-.41-.18-.64,0-.69.55-1.24,1.22-1.24.51,0,.78.28,1.01.51.97.97,2.18,1.75,3.77,1.75,2.09,0,3.1-.69,3.1-2.12,0-3.36-8.39-1.82-8.39-7.36,0-2.28,1.63-4.21,5.29-4.21,2.3,0,4.3.85,5.22,2.16.14.21.23.46.23.74,0,.67-.55,1.22-1.24,1.22-.32,0-.64-.18-.99-.51-.71-.69-1.91-1.22-3.22-1.22Z"/>
              <path class="cls-26" d="M662.46,181.34l-3.61-6.42v8.37c0,.71-.6,1.31-1.31,1.31s-1.31-.6-1.31-1.31v-13.22c0-.71.6-1.31,1.31-1.31.58,0,.94.32,1.17.74l4.88,8.74,4.88-8.74c.23-.41.6-.74,1.17-.74.71,0,1.31.6,1.31,1.31v13.22c0,.71-.6,1.31-1.31,1.31s-1.31-.6-1.31-1.31v-8.37l-3.61,6.42c-.23.41-.67.64-1.13.64s-.9-.23-1.13-.64Z"/>
              <path class="cls-26" d="M679.01,180.4l-1.4,3.33c-.21.48-.64.87-1.24.87-.71,0-1.31-.6-1.31-1.31,0-.14.02-.32.09-.48l5.43-13.22c.14-.32.51-.83,1.22-.83s1.08.51,1.22.83l5.43,13.22c.07.16.09.35.09.48,0,.71-.6,1.31-1.31,1.31-.6,0-1.04-.39-1.24-.87l-1.4-3.33h-5.57ZM681.79,173.13l-1.89,4.83h3.77l-1.88-4.83Z"/>
              <path class="cls-26" d="M695.3,178.49v4.78c0,.74-.6,1.33-1.33,1.33s-1.33-.6-1.33-1.33v-12.99c0-.74.6-1.33,1.33-1.33h4.39c3.1,0,4.85,2.21,4.85,4.81,0,2.18-1.33,4.3-3.54,4.58l3.4,4.14c.21.28.28.55.28.8,0,.74-.6,1.33-1.33,1.33-.39,0-.8-.18-1.04-.48l-4.18-5.63h-1.5ZM695.3,171.34v4.81h3.1c1.43,0,2.05-1.17,2.05-2.39s-.62-2.41-2.12-2.41h-3.04Z"/>
              <path class="cls-26" d="M713.93,171.29v11.98c0,.74-.6,1.33-1.33,1.33s-1.33-.6-1.33-1.33v-11.98h-3.52c-.64,0-1.17-.53-1.17-1.17s.53-1.17,1.17-1.17h9.7c.64,0,1.17.53,1.17,1.17s-.53,1.17-1.17,1.17h-3.52Z"/>
            </g>
            <g>
              <path class="cls-26" d="M764.42,183.27c0,.74-.6,1.33-1.33,1.33s-1.33-.6-1.33-1.33v-13.18c0-.74.6-1.33,1.33-1.33s1.33.6,1.33,1.33v13.18Z"/>
              <path class="cls-26" d="M781.16,170.07v13.22c0,.71-.6,1.31-1.31,1.31-.44,0-.85-.23-1.08-.58l-6.78-9.8v9.06c0,.71-.6,1.31-1.31,1.31s-1.31-.6-1.31-1.31v-13.22c0-.71.6-1.31,1.31-1.31.46,0,.83.21,1.06.55l6.81,9.87v-9.11c0-.71.6-1.31,1.31-1.31s1.31.6,1.31,1.31Z"/>
              <path class="cls-26" d="M792.56,171.29v11.98c0,.74-.6,1.33-1.33,1.33s-1.33-.6-1.33-1.33v-11.98h-3.52c-.64,0-1.17-.53-1.17-1.17s.53-1.17,1.17-1.17h9.7c.64,0,1.17.53,1.17,1.17s-.53,1.17-1.17,1.17h-3.52Z"/>
              <path class="cls-26" d="M801.41,179.36v-9.27c0-.74.6-1.33,1.33-1.33s1.33.6,1.33,1.33v9.27c0,1.4.53,3.04,3.13,3.04s3.13-1.63,3.13-3.04v-9.27c0-.74.6-1.33,1.33-1.33s1.33.6,1.33,1.33v9.27c0,2.62-1.15,5.38-5.79,5.38s-5.79-2.76-5.79-5.38Z"/>
              <path class="cls-26" d="M820.6,183.27c0,.74-.6,1.33-1.33,1.33s-1.33-.6-1.33-1.33v-13.18c0-.74.6-1.33,1.33-1.33s1.33.6,1.33,1.33v13.18Z"/>
              <path class="cls-26" d="M832.12,171.29v11.98c0,.74-.6,1.33-1.33,1.33s-1.33-.6-1.33-1.33v-11.98h-3.52c-.64,0-1.17-.53-1.17-1.17s.53-1.17,1.17-1.17h9.7c.64,0,1.17.53,1.17,1.17s-.53,1.17-1.17,1.17h-3.52Z"/>
              <path class="cls-26" d="M843.64,183.27c0,.74-.6,1.33-1.33,1.33s-1.33-.6-1.33-1.33v-13.18c0-.74.6-1.33,1.33-1.33s1.33.6,1.33,1.33v13.18Z"/>
              <path class="cls-26" d="M853.06,183.76l-5.22-13.15c-.07-.16-.09-.3-.09-.51,0-.74.6-1.33,1.33-1.33.67,0,1.08.41,1.22.78l4,10.6,4-10.6c.14-.34.55-.78,1.22-.78.74,0,1.33.6,1.33,1.33,0,.21-.02.34-.09.51l-5.22,13.15c-.18.46-.55.85-1.24.85s-1.06-.39-1.24-.85Z"/>
              <path class="cls-26" d="M867.64,175.46h4.35c.64,0,1.17.53,1.17,1.17s-.53,1.17-1.17,1.17h-4.35v4.23h6.09c.67,0,1.2.53,1.2,1.2s-.53,1.2-1.2,1.2h-7.43c-.74,0-1.33-.6-1.33-1.33v-12.81c0-.74.6-1.33,1.33-1.33h7.17c.67,0,1.2.53,1.2,1.2s-.53,1.2-1.2,1.2h-5.84v4.12Z"/>
            </g>
            <circle class="cls-26" cx="618.41" cy="176.12" r="4.77"/>
            <circle class="cls-26" cx="739.49" cy="176.12" r="4.77"/>
          </g>
          <g class="cls-37">
            <rect class="cls-31" x="609.98" y="199.78" width="99.26" height="125.97" transform="translate(-49.69 230.84) rotate(-19.14)"/>
          </g>
          <g class="cls-35">
            <rect class="cls-25" x="689.03" y="211.22" width="40.43" height="99.57" transform="translate(-46.37 247.03) rotate(-19.14)"/>
          </g>
          <g class="cls-32">
            <rect class="cls-4" x="707.12" y="191.57" width="168.89" height="170.21" transform="translate(-46.96 274.89) rotate(-19.14)"/>
          </g>
          <g class="cls-38">
            <rect class="cls-12" x="791.74" y="211.21" width="40.34" height="99.3" transform="translate(-40.65 280.68) rotate(-19.14)"/>
          </g>
          <g class="cls-36">
            <rect class="cls-20" x="810.5" y="199.78" width="99.26" height="125.97" transform="translate(-38.6 296.6) rotate(-19.14)"/>
          </g>
          <g class="cls-39">
            <rect class="cls-30" x="545.18" y="237.35" width="47.02" height="47.02" transform="translate(-54.1 200.92) rotate(-19.14)"/>
          </g>
          <g class="cls-34">
            <rect class="cls-24" x="503.37" y="195.53" width="130.65" height="130.65" transform="translate(-54.1 200.92) rotate(-19.14)"/>
          </g>
        </g>
        <g>
          <g>
            <path class="cls-5" d="M195.64,437.09c-7.9,3.53-13.4,11.43-13.4,20.63s5.5,17.09,13.4,20.61v2.07H27.66c-7.16,0-12.96-5.8-12.96-12.96v-19.44c0-7.16,5.8-12.95,12.96-12.95h167.98v2.05Z"/>
            <path class="cls-5" d="M195.64,379.74c-7.9,3.53-13.4,11.43-13.4,20.62s5.5,17.1,13.4,20.62v2.07H27.66c-7.16,0-12.96-5.8-12.96-12.96v-19.44c0-7.16,5.8-12.96,12.96-12.96h167.98v2.05Z"/>
            <path class="cls-26" d="M27.66,429c-10.46,0-18.97-8.49-18.97-18.92v-19.44c0-10.45,8.51-18.96,18.97-18.96h168.81c3.33,0,6.04,2.71,6.04,6.04s-2.7,6.04-6.02,6.08l-168.83-.12c-3.84,0-6.96,3.12-6.96,6.96v19.44c0,3.84,3.12,6.96,6.96,6.96h168.92c3.27,0,5.92,2.66,5.92,5.93s-2.66,6.04-5.92,6.04H27.66Z"/>
            <path class="cls-18" d="M27.66,486.32c-10.46,0-18.97-8.47-18.97-18.89v-19.44c0-10.47,8.51-18.99,18.97-18.99h168.81c3.33,0,6.04,2.73,6.04,6.08s-2.7,6.05-6.02,6.08l-168.83-.12c-3.84,0-6.96,3.12-6.96,6.95v19.44c0,3.84,3.12,6.96,6.96,6.96h168.92c3.27,0,5.92,2.66,5.92,5.93s-2.66,6-5.92,6H27.66Z"/>
            <path class="cls-5" d="M195.48,322.37c-7.89,3.53-13.4,11.44-13.4,20.63s5.51,17.09,13.4,20.61v2.07H27.5c-7.15,0-12.96-5.8-12.96-12.96v-19.44c0-7.15,5.81-12.95,12.96-12.95h167.98v2.04Z"/>
            <path class="cls-15" d="M27.5,371.69c-10.46,0-18.96-8.51-18.96-18.97v-19.44c0-10.45,8.51-18.96,18.96-18.96h168.81c3.33,0,6.03,2.71,6.03,6.04s-2.7,6.04-6.01,6.08l-168.84-.11c-3.83,0-6.95,3.12-6.95,6.96v19.44c0,3.84,3.12,6.97,6.96,6.97h168.93c3.26,0,5.92,2.66,5.92,5.92,0,3.43-3.69,6.08-6.86,6.08H27.5Z"/>
          </g>
          <g>
            <path class="cls-18" d="M226.29,241.17l-114.49-4.34h0c1.65-2.26,4.33-3.56,7.13-3.45l107.45,4.07-.08,3.72Z"/>
            <polygon class="cls-19" points="111.79 236.42 0 241.3 0 251.46 111.79 251.46 223.58 251.46 223.58 241.3 111.79 236.42"/>
            <rect class="cls-21" x="60.16" y="251.46" width="96.75" height="61.92"/>
            <rect class="cls-18" x="223.58" y="238.94" width="2.79" height="33.15"/>
            <path class="cls-14" d="M228.03,274.29c0,1.75-1.42,3.16-3.16,3.16s-3.16-1.42-3.16-3.16,1.42-3.16,3.16-3.16,3.16,1.42,3.16,3.16Z"/>
            <path class="cls-18" d="M230.16,288.65h-9.76v-9.3c0-2.02,1.64-3.66,3.66-3.66h2.44c2.02,0,3.66,1.64,3.66,3.66v9.3Z"/>
          </g>
        </g>
        <g>
          <path class="cls-21" d="M846,454.66c1.11,0,2.01.9,2.01,2.01,0,1.11-.9,2.01-2.01,2.01h-7.29s0-4.02,0-4.02h7.29Z"/>
          <rect class="cls-16" x="536.23" y="443.48" width="286.93" height="26.38"/>
          <polygon class="cls-13" points="837.41 451.77 837.41 461.47 823.24 469.85 823.24 443.5 837.41 451.77"/>
          <polygon class="cls-28" points="841.62 453.97 841.62 459.37 837.41 461.48 837.41 451.86 841.62 453.97"/>
          <path class="cls-21" d="M797.57,440.06c2.11,0,3.82,1.72,3.82,3.83v25.57c0,2.11-1.71,3.83-3.82,3.83h-102.05c-2.11,0-3.83-1.72-3.83-3.83v-25.57c0-2.11,1.72-3.83,3.83-3.83h102.05Z"/>
          <path class="cls-21" d="M536.23,443.48v26.38s-6.81,0-6.81,0c-2.12,0-3.84-1.72-3.84-3.84v-18.71c0-2.11,1.72-3.83,3.84-3.83h6.81Z"/>
          <polygon class="cls-21" points="551.99 443.48 563.87 431.61 573.71 431.61 561.81 443.51 551.99 443.48"/>
          <path class="cls-21" d="M636.62,428.25c1.58,0,2.88,1.29,2.88,2.87s-1.29,2.88-2.88,2.88h-75.05s5.54-5.75,5.54-5.75h69.51Z"/>
        </g>
        <g>
          <path class="cls-3" d="M530.33,385.13c7.12,0,12.89,5.78,12.89,12.89,0,7.12-5.77,12.89-12.89,12.89-7.12,0-12.89-5.77-12.89-12.89,0-7.11,5.77-12.89,12.89-12.89Z"/>
          <rect class="cls-26" x="540.62" y="385.1" width="259.06" height="25.95"/>
          <rect class="cls-27" x="540.62" y="385.1" width="259.06" height="12.98"/>
          <polygon class="cls-3" points="812.43 397.88 799.69 385.1 799.69 397.88 799.69 398.08 799.69 410.86 812.43 398.08 812.62 398.08 812.53 397.98 812.62 397.88 812.43 397.88"/>
          <polygon class="cls-7" points="808.22 393.91 808.22 402.3 808.22 402.3 812.43 398.08 812.62 398.08 812.53 397.98 812.62 397.88 812.43 397.88 808.47 393.91 808.22 393.91"/>
          <rect class="cls-19" x="530.33" y="385.1" width="10.29" height="25.95"/>
        </g>
        <g>
          <path class="cls-21" d="M282.21,207.67c-14.68-49.02,13.89-118.37,62.91-133.05,3.67-1.1,7.35-1.96,11.02-2.59l21.79,72.76c-8.59-.75-17.03-1.89-26.14-4.1-24.38-5.93-38.07,13.03-43.04,34.64-4.26,18.5,1.22,41.11,26.78,57.21,6.6,4.15,16.85,7.97,23.96,8.72.28.02,3.38.22,4.21-1.97.63-1.67-.49-3.03-.49-3.03l16.8-5.07,28.62,41.37-9.9,2.93.03.02s-.04.01-.07.02h0s0,0,0,0c-47.13,10.71-102.39-20.88-116.46-67.86Z"/>
          <rect class="cls-16" x="353.34" y="12.85" width="21.17" height="39.61" transform="translate(5.92 105.75) rotate(-16.67)"/>
          <rect class="cls-11" x="353.29" y="12.55" width="10.59" height="41.47" transform="translate(5.52 104.22) rotate(-16.66)"/>
          <path class="cls-21" d="M352.83,59.27c-.46-1.51.41-3.11,1.92-3.56l29.49-8.83c1.52-.46,3.12.41,3.57,1.92l.17.56-34.98,10.48-.17-.56Z"/>
          <path class="cls-21" d="M386.98,178.78s9.11,1.57,21.43-2.12c11.58-3.47,16.56-9.26,16.56-9.26l-34.3-114.56-37.99,11.38,34.3,114.56Z"/>
          <rect class="cls-11" x="369.45" y="57.22" width="15.62" height="123.74" transform="translate(-18.31 113.29) rotate(-16.68)"/>
          <path class="cls-19" d="M349.32,64.51c-.62-2.09.56-4.29,2.65-4.92l36.74-11c2.09-.63,4.29.56,4.92,2.65l.23.77-44.31,13.27-.23-.77Z"/>
          <path class="cls-19" d="M345.26,17.04c.1.34.46.53.8.43l24.45-7.32c.34-.1.53-.46.43-.81l-.78-2.58c-.1-.34-.46-.53-.8-.43l-24.45,7.32c-.34.1-.53.46-.43.8l.78,2.59Z"/>
          <path class="cls-16" d="M384.39,183.85c.66,2.2,2.97,3.44,5.16,2.79l67.94-20.34c2.19-.66,3.44-2.97,2.78-5.16h0c-.66-2.19-2.97-3.44-5.16-2.78l-67.94,20.34c-2.19.66-3.44,2.97-2.78,5.16h0Z"/>
          <path class="cls-8" d="M407.59,206.22l-5.77-19.28,14.69-4.4,5.78,19.27s0,.02,0,.03c.56,1.87-2.27,4.37-6.32,5.59-4.05,1.22-7.81.69-8.37-1.18,0-.01,0-.03,0-.04Z"/>
          <path class="cls-11" d="M407.5,206.24l-5.77-19.28,7.35-2.2,4.77,15.92,1.01,3.39,1.01,3.39c-4.05,1.21-7.8.69-8.36-1.18,0-.01,0-.02,0-.03Z"/>
          <path class="cls-21" d="M420.36,180.19c.49,1.62-.44,3.33-2.06,3.82l-17.16,5.14c-1.62.49-3.33-.44-3.82-2.06h0c-.49-1.62.44-3.33,2.06-3.82l17.16-5.14c1.63-.49,3.34.44,3.82,2.06h0Z"/>
          <path class="cls-8" d="M441.96,189.81l-4.38-14.64,11.16-3.34,4.38,14.64s0,.02,0,.02c.42,1.42-1.73,3.32-4.81,4.25-3.08.92-5.93.52-6.35-.9,0-.01,0-.02,0-.03Z"/>
          <path class="cls-11" d="M441.97,189.84s0-.02,0-.03l-4.38-14.64,5.58-1.67,5.16,17.23c-3.08.92-5.92.52-6.35-.9Z"/>
          <path class="cls-21" d="M451.65,170.05c.37,1.23-.32,2.53-1.56,2.9l-13.04,3.91c-1.23.37-2.53-.33-2.9-1.57h0c-.37-1.23.33-2.53,1.57-2.9l13.04-3.9c1.23-.37,2.53.33,2.9,1.57h0Z"/>
          <path class="cls-26" d="M347.41,106.73c2.73,9.12,12.34,14.3,21.46,11.57,9.12-2.73,14.3-12.34,11.57-21.46-2.73-9.13-12.34-14.31-21.46-11.57-9.12,2.73-14.3,12.34-11.57,21.46Z"/>
          <path class="cls-16" d="M352.26,105.28c1.93,6.44,8.72,10.1,15.16,8.17,6.44-1.93,10.1-8.72,8.17-15.16-1.93-6.44-8.72-10.1-15.16-8.17-6.44,1.93-10.1,8.71-8.17,15.16Z"/>
          <path class="cls-21" d="M360.61,102.78c.55,1.83,2.48,2.87,4.31,2.32,1.83-.54,2.87-2.48,2.33-4.31-.55-1.84-2.48-2.87-4.31-2.32-1.83.55-2.88,2.48-2.32,4.31Z"/>
          <path class="cls-26" d="M355.03,131.87c1.04,3.49,4.73,5.48,8.22,4.43,3.49-1.05,5.48-4.73,4.43-8.22-1.05-3.5-4.73-5.48-8.22-4.43-3.49,1.05-5.48,4.73-4.43,8.22Z"/>
          <path class="cls-21" d="M359.75,130.46c.26.89,1.2,1.39,2.09,1.13.89-.27,1.39-1.2,1.13-2.09-.27-.89-1.2-1.39-2.09-1.13-.89.27-1.39,1.2-1.13,2.09Z"/>
          <path class="cls-21" d="M355.26,234.51c.7,2.33,3.15,3.66,5.48,2.96l102.76-30.77c2.33-.69,3.65-3.15,2.96-5.48-.7-2.33-3.16-3.66-5.49-2.96l-102.76,30.77c-2.33.7-3.66,3.15-2.96,5.48Z"/>
          <path class="cls-16" d="M460.97,198.26c1.94-.58,3.96.25,4.99,1.9.07,1.96-1.16,3.8-3.12,4.38l-102.76,30.77c-1.95.58-3.97-.26-4.99-1.9-.07-1.96,1.16-3.8,3.12-4.38l102.76-30.77Z"/>
          <path class="cls-21" d="M382.26,263.11c0-9.02-13.13-13.49-20.68-7.04l-16.71,14.28-37.38,31.95h74.77v-39.19Z"/>
          <path class="cls-11" d="M344.88,270.35l16.71-14.28c3.29-2.81,7.65-3.55,11.51-2.74-2,.43-3.92,1.32-5.59,2.74l-16.7,14.28-37.38,31.95h-5.92l37.38-31.95Z"/>
          <path class="cls-21" d="M293.22,308.12c0,3.94,3.2,7.14,7.14,7.14h168.65c3.95,0,7.14-3.2,7.14-7.14s-3.2-7.14-7.14-7.14h-168.65c-3.94,0-7.14,3.2-7.14,7.14Z"/>
          <path class="cls-16" d="M300.37,300.98h168.65c2.86,0,5.31,1.69,6.45,4.12-.16,3.8-3.27,6.85-7.11,6.85h-168.65c-2.86,0-5.31-1.69-6.45-4.12.16-3.8,3.27-6.85,7.11-6.85Z"/>
          <g>
            <path class="cls-21" d="M370.37,258.73c2.96,0,5.36,2.4,5.36,5.36s-2.4,5.36-5.36,5.36-5.35-2.4-5.35-5.36,2.39-5.36,5.35-5.36Z"/>
            <path class="cls-16" d="M370.37,258.73c2.96,0,5.36,2.4,5.36,5.36s-2.4,5.36-5.36,5.36-5.35-2.4-5.35-5.36,2.39-5.36,5.35-5.36ZM366.66,265.09c0,.23.18.41.41.41h.37c.81,0,1.47.66,1.47,1.47v.37c0,.23.18.41.41.41h1.95c.22,0,.41-.18.41-.41v-.37c0-.81.66-1.47,1.47-1.47h.37c.22,0,.41-.18.41-.41v-1.95c0-.23-.18-.41-.41-.41h-.37c-.81,0-1.47-.65-1.47-1.46v-.37c0-.23-.19-.41-.41-.41h-1.95c-.23,0-.41.18-.41.41v.37c0,.81-.66,1.46-1.47,1.46h-.37c-.23,0-.41.18-.41.41v1.95Z"/>
          </g>
        </g>
        <g>
          <path class="cls-16" d="M1002.29,95.01c0,1.8-1.45,3.25-3.25,3.25h-25.27c-1.8,0-3.25-1.45-3.25-3.25s1.45-3.25,3.25-3.25h25.27c1.8,0,3.25,1.46,3.25,3.25Z"/>
          <rect class="cls-16" x="978.13" y="95.62" width="16.54" height="47.79"/>
          <path class="cls-16" d="M992.53,128.09h-12.25l-39.2,93.05c-3.2,7.6,2.37,16,10.62,16h69.42c8.25,0,13.83-8.4,10.62-16l-39.21-93.05Z"/>
          <path class="cls-26" d="M1004.01,170.97h-35.21l-19.07,45.26c-2.59,6.15,1.92,12.95,8.59,12.95h56.16c6.68,0,11.19-6.8,8.59-12.95l-19.07-45.26Z"/>
        </g>
        <g>
          <path class="cls-16" d="M182.11,21.14c0,1.91-1.54,3.45-3.45,3.45h-26.84c-1.91,0-3.46-1.54-3.46-3.45s1.54-3.46,3.46-3.46h26.84c1.91,0,3.45,1.55,3.45,3.46Z"/>
          <rect class="cls-16" x="156.45" y="21.79" width="17.57" height="50.76"/>
          <path class="cls-16" d="M171.74,56.28h-13.02l-41.64,98.84c-3.4,8.07,2.52,17,11.28,17h73.74c8.77,0,14.69-8.93,11.29-17l-41.65-98.84Z"/>
          <path class="cls-15" d="M183.94,101.83h-37.4l-20.25,48.07c-2.75,6.53,2.04,13.75,9.13,13.75h59.65c7.09,0,11.88-7.22,9.13-13.75l-20.25-48.07Z"/>
        </g>
        <g>
          <path class="cls-17" d="M641.14,12.19c-3.31,0-6,2.69-6,6h0s-.17,0-.17,0c0,.04.01.09.01.13,0,2.76-2.24,5-5,5s-4.99-2.24-4.99-5c0-.26.04-.52.08-.77-.1-2.98-2.52-5.36-5.52-5.36s-5.54,2.48-5.54,5.54v.47h-.18s.01.09.01.13c0,2.76-2.24,5-5,5s-5-2.24-5-5c0-.27.04-.54.08-.8-.11-2.96-2.53-5.33-5.51-5.33s-5.54,2.48-5.54,5.54v.47h-.08s.01.09.01.13c0,2.76-2.24,5-5,5s-5-2.24-5-5c0-.04.01-.09.01-.13h-.01v-.47c0-3.06-2.48-5.54-5.53-5.54s-5.53,2.48-5.53,5.54v.47h-.09s.02.09.02.13c0,2.76-2.24,5-5,5s-4.99-2.24-4.99-5c0-.04,0-.09,0-.13h0v-.47c0-3.06-2.48-5.54-5.53-5.54s-5.54,2.48-5.54,5.54v.47h-.19s.01.09.01.13c0,2.76-2.24,5-4.99,5s-5-2.24-5-5c0-.21.03-.41.06-.62-.27-3.09-2.83-5.52-5.99-5.52-3.34,0-6.04,2.71-6.04,6.05v-.04h-.12s.01.09.01.13c0,2.76-2.24,5-5,5s-5-2.24-5-5c0-.21.04-.41.06-.62-.27-3.09-2.83-5.52-5.99-5.52-3.34,0-6.04,2.71-6.04,6.05v108.57h118.68l22.06-22.06V18.19c0-3.31-2.69-6-6-6Z"/>
          <rect class="cls-21" x="517.36" y="35.29" width="118.81" height="8.75"/>
          <rect class="cls-21" x="565.35" y="50.01" width="70.73" height="4.92"/>
          <rect class="cls-21" x="565.35" y="61.66" width="70.73" height="4.92"/>
          <rect class="cls-21" x="565.35" y="73.3" width="70.73" height="4.92"/>
          <rect class="cls-21" x="565.35" y="84.95" width="70.73" height="4.92"/>
          <rect class="cls-21" x="565.35" y="96.6" width="46.77" height="4.92"/>
          <rect class="cls-21" x="517.36" y="50.01" width="40.5" height="51.5"/>
          <polygon class="cls-23" points="625.07 126.8 636.08 115.8 625.04 104.76 603 126.8 625.07 126.8"/>
          <polygon class="cls-9" points="647.12 104.76 625.04 104.76 625.04 126.8 625.07 126.8 647.12 104.76"/>
        </g>
        <g>
          <path class="cls-21" d="M1340.09,154.37c0,5.32-4.44,9.63-9.91,9.63h-233.12c-5.47,0-9.91-4.31-9.91-9.63V24.16c0-5.32,4.44-9.63,9.91-9.63h233.12c5.47,0,9.91,4.31,9.91,9.63v130.21Z"/>
          <polygon class="cls-26" points="1213.04 32.23 1211 22.96 1142.4 22.9 1119.74 .24 1097.12 22.86 1096.92 22.86 1096.92 154.22 1213.04 154.22 1213.04 32.23"/>
          <polygon class="cls-26" points="1213.04 154.22 1329.16 154.22 1329.16 22.86 1328.96 22.86 1306.34 .24 1283.71 22.86 1216.44 22.86 1213.04 32.23 1213.04 154.22"/>
          <rect class="cls-18" x="1099.59" y="25.36" width="7.88" height="25"/>
          <rect class="cls-18" x="1103.54" y="93.31" width="10.65" height="25"/>
          <rect class="cls-18" x="1312.87" y="58.81" width="10.66" height="27.59"/>
          <polygon class="cls-15" points="1096.92 154.22 1329.16 154.22 1329.16 154.22 1306.34 131.88 1119.74 131.88 1096.92 154.22"/>
          <path class="cls-6" d="M1228.81.19l77.53.15v131.4l-77.53-.15c-9.48,0-14.67,6.3-15.6,13.43h-.17V15.96c0-8.03,5.26-15.77,15.77-15.77Z"/>
          <rect class="cls-21" x="1226.25" y="46.35" width="66.87" height="7.16"/>
          <rect class="cls-21" x="1226.25" y="62" width="66.87" height="7.16"/>
          <rect class="cls-21" x="1226.25" y="77.65" width="66.87" height="7.16"/>
          <rect class="cls-21" x="1226.25" y="15.05" width="66.87" height="7.16"/>
          <rect class="cls-21" x="1226.25" y="30.7" width="66.87" height="7.16"/>
          <rect class="cls-21" x="1226.25" y="93.31" width="66.87" height="7.16"/>
          <rect class="cls-21" x="1226.25" y="108.96" width="66.87" height="7.16"/>
          <path class="cls-17" d="M1197.27.19l-77.53.15v131.4l77.53-.15c9.48,0,14.67,6.3,15.6,13.43h.17V15.96c0-8.03-5.26-15.77-15.77-15.77Z"/>
          <rect class="cls-21" x="1132.73" y="13.91" width="66.87" height="23.95"/>
          <rect class="cls-21" x="1132.73" y="46.35" width="66.87" height="7.16"/>
          <rect class="cls-21" x="1132.73" y="62" width="66.87" height="7.16"/>
          <rect class="cls-21" x="1132.73" y="77.65" width="66.87" height="7.16"/>
          <rect class="cls-21" x="1132.73" y="93.31" width="66.87" height="7.16"/>
          <rect class="cls-21" x="1132.73" y="108.96" width="66.87" height="7.16"/>
        </g>
        <g>
          <g>
            <path class="cls-21" d="M1210.32,483.8c0,2-1.8,3.61-4.01,3.61h-129.25v-164.43h129.25c2.21,0,4.01,1.62,4.01,3.61v157.2Z"/>
            <path class="cls-22" d="M1067.57,322.98h18.98c1.99,0,3.61,1.62,3.61,3.61v157.2c0,2-1.62,3.61-3.61,3.61h-18.97c-2,0-3.62-1.62-3.62-3.62v-157.2c0-1.99,1.62-3.61,3.61-3.61Z"/>
            <path class="cls-22" d="M1196.32,357.31c0,2-1.62,3.61-3.61,3.61h-84.93c-2,0-3.62-1.62-3.62-3.61v-8.58c0-2,1.62-3.61,3.62-3.61h84.93c2,0,3.61,1.62,3.61,3.61v8.58Z"/>
            <path class="cls-22" d="M1196.32,376.28c0,2-1.62,3.62-3.61,3.62h-84.93c-2,0-3.62-1.62-3.62-3.62v-6.78c0-2,1.62-3.61,3.62-3.61h84.93c2,0,3.61,1.62,3.61,3.61v6.78Z"/>
            <path class="cls-22" d="M1132.39,411.52h35.69c1.99,0,3.61,1.62,3.61,3.61v35.84c0,1.99-1.62,3.61-3.61,3.61h-35.69c-1.99,0-3.61-1.62-3.61-3.61v-35.84c0-1.99,1.62-3.61,3.61-3.61Z"/>
          </g>
          <g>
            <path class="cls-18" d="M1226.96,483.8c0,2-1.62,3.61-3.61,3.61h-53.68v-101.49h53.68c1.99,0,3.61,1.62,3.61,3.61v94.26Z"/>
            <path class="cls-15" d="M1158.45,385.92h12.8c1.99,0,3.61,1.62,3.61,3.61v94.26c0,1.99-1.62,3.61-3.61,3.61h-12.8c-1.99,0-3.61-1.62-3.61-3.61v-94.26c0-1.99,1.62-3.61,3.61-3.61Z"/>
          </g>
          <rect class="cls-19" x="1235.16" y="350.69" width="104.2" height="136.72" rx="3.61" ry="3.61"/>
          <rect class="cls-16" x="1267.69" y="366.35" width="58.73" height="8.58"/>
          <rect class="cls-16" x="1267.69" y="385.77" width="58.73" height="8.58"/>
          <path class="cls-22" d="M1203.24,350.69h42.76c1.99,0,3.61,1.62,3.61,3.61v129.5c0,1.99-1.62,3.61-3.61,3.61h-42.76c-1.99,0-3.61-1.62-3.61-3.61v-129.5c0-1.99,1.62-3.61,3.61-3.61Z"/>
          <rect class="cls-10" x="1199.93" y="366.35" width="49.69" height="8.58"/>
          <rect class="cls-10" x="1199.93" y="462.34" width="49.69" height="8.58"/>
        </g>
        <g>
          <path class="cls-14" d="M996.33,365.88l49.67-53.82h0c-1.77-.28-3.57.35-4.79,1.66l-46.53,50.47,1.65,1.68Z"/>
          <polygon class="cls-21" points="1045.81 311.87 1098.65 263.45 1103.25 268.05 1052.62 318.68 1001.99 369.31 997.39 364.71 1045.81 311.87"/>
          <rect class="cls-19" x="1037.13" y="311.4" width="61.97" height="39.66" transform="translate(78.63 852.29) rotate(-45)"/>
          <path class="cls-14" d="M993.86,398.97c0,1.12.91,2.03,2.02,2.02,1.12,0,2.03-.9,2.03-2.02,0-1.12-.91-2.03-2.03-2.03s-2.02.91-2.02,2.02Z"/>
          <path class="cls-14" d="M992.49,408.16h6.25s0-5.95,0-5.95c0-1.29-1.05-2.34-2.34-2.34h-1.56c-1.3,0-2.35,1.05-2.35,2.34v5.95Z"/>
          <rect class="cls-14" x="994.53" y="363.87" width="2.7" height="41.33"/>
        </g>
        <g>
          <g>
            <rect class="cls-2" x="289.28" y="327.07" width="87.81" height="87.81"/>
            <line class="cls-1" x1="333.18" y1="370.98" x2="366.11" y2="338.05"/>
            <path class="cls-1" d="M356.47,347.69c-12.86-12.83-33.68-12.8-46.51.05-12.83,12.86-12.8,33.68.05,46.51,12.86,12.83,33.68,12.8,46.51-.05,9.84-9.86,12.4-24.86,6.38-37.42"/>
            <path class="cls-1" d="M344.83,359.34c-6.43-6.43-16.86-6.42-23.28.01-6.43,6.43-6.42,16.86.01,23.28,6.43,6.43,16.86,6.42,23.28-.01,3.32-3.32,5.06-7.9,4.79-12.58"/>
          </g>
          <g>
            <rect class="cls-2" x="1127.68" y="190.2" width="87.81" height="87.81"/>
            <path class="cls-1" d="M1160.61,261.55h-8.23c-10.61-.01-19.2-8.62-19.18-19.23.01-10.61,8.62-19.2,19.23-19.18,1.59,0,3.18.2,4.73.6"/>
            <path class="cls-1" d="M1155.12,234.11c0-15.16,12.29-27.44,27.44-27.44s27.44,12.29,27.44,27.44c0,5.94-1.93,11.71-5.49,16.46"/>
            <polyline class="cls-1" points="1168.84 250.57 1179.81 261.55 1190.79 250.57"/>
            <line class="cls-1" x1="1179.81" y1="234.11" x2="1179.81" y2="261.55"/>
          </g>
          <g>
            <rect class="cls-2" x="8.86" y="130.88" width="87.81" height="87.81"/>
            <rect class="cls-1" x="17.09" y="150.09" width="71.35" height="13.72" rx="2.74" ry="2.74"/>
            <path class="cls-1" d="M82.95,163.81v32.93c0,1.52-1.23,2.74-2.74,2.74H25.32c-1.52,0-2.74-1.23-2.74-2.74v-32.93"/>
            <line class="cls-1" x1="44.53" y1="177.53" x2="61" y2="177.53"/>
          </g>
          <g>
            <rect class="cls-2" x="910.91" y="264" width="87.81" height="87.81"/>
            <circle class="cls-29" cx="954.81" cy="333.97" r="4.12"/>
            <path class="cls-1" d="M990.49,295.96c-20.74-17.01-50.61-17.01-71.35,0"/>
            <path class="cls-1" d="M979.51,308.25c-14.47-11.46-34.92-11.46-49.39,0"/>
            <path class="cls-1" d="M968.53,320.6c-8.18-5.95-19.26-5.95-27.44,0"/>
          </g>
          <g>
            <rect class="cls-2" x="799.59" y="42.7" width="87.81" height="87.81"/>
            <line class="cls-1" x1="838.01" y1="92.09" x2="846.24" y2="100.32"/>
            <line class="cls-2" x1="838.01" y1="92.09" x2="846.24" y2="100.32"/>
            <line class="cls-1" x1="848.98" y1="81.11" x2="857.21" y2="89.35"/>
            <line class="cls-2" x1="848.98" y1="81.11" x2="857.21" y2="89.35"/>
            <line class="cls-1" x1="865.45" y1="81.11" x2="838.01" y2="108.56"/>
            <line class="cls-1" x1="867.48" y1="110.59" x2="879.17" y2="122.28"/>
            <path class="cls-1" d="M842.12,104.44l9.95,9.95c3.21,3.21,8.43,3.21,11.64,0l7.57-7.58c3.21-3.21,3.21-8.42,0-11.63l-9.95-9.95"/>
            <line class="cls-1" x1="848.98" y1="64.65" x2="821.54" y2="92.09"/>
            <line class="cls-1" x1="819.5" y1="62.61" x2="807.82" y2="50.93"/>
            <path class="cls-1" d="M825.66,87.97l-9.95-9.95c-3.21-3.21-3.21-8.43,0-11.64l7.58-7.57c3.21-3.21,8.42-3.21,11.63,0l9.95,9.95"/>
          </g>
          <g>
            <rect class="cls-2" x="212.31" y="17.99" width="87.81" height="87.81"/>
            <line class="cls-1" x1="247.98" y1="48.18" x2="264.44" y2="48.18"/>
            <path class="cls-1" d="M291.06,70.93l-14.97-34.07c-3.21-3.21-8.43-3.21-11.64,0v38.76"/>
            <path class="cls-1" d="M247.98,75.62v-38.76c-3.21-3.21-8.43-3.21-11.64,0l-14.97,34.07"/>
            <circle class="cls-1" cx="234.26" cy="75.62" r="13.72"/>
            <circle class="cls-1" cx="278.16" cy="75.62" r="13.72"/>
          </g>
          <g>
            <rect class="cls-2" x="961.83" y="406.67" width="87.81" height="87.81"/>
            <path class="cls-1" d="M1038.67,453.32c-1.4,16.9-15.67,30.18-32.93,30.18-18.19,0-32.93-14.74-32.93-32.93s13.28-31.53,30.18-32.93"/>
            <polyline class="cls-1" points="1005.74 431.36 1005.74 450.57 1024.95 450.57"/>
            <circle class="cls-29" cx="1016.71" cy="419.02" r="4.12"/>
            <circle class="cls-29" cx="1029.06" cy="427.25" r="4.12"/>
            <circle class="cls-29" cx="1037.29" cy="439.6" r="4.12"/>
          </g>
          <g>
            <rect class="cls-2" x="8.86" y="20.97" width="87.81" height="87.81"/>
            <rect class="cls-1" x="22.58" y="34.69" width="60.37" height="60.37" rx="2.74" ry="2.74"/>
            <line class="cls-1" x1="69.23" y1="29.2" x2="69.23" y2="40.17"/>
            <line class="cls-1" x1="36.3" y1="29.2" x2="36.3" y2="40.17"/>
            <line class="cls-1" x1="22.58" y1="51.15" x2="82.95" y2="51.15"/>
            <polyline class="cls-1" points="39.05 64.87 44.53 62.13 44.53 84.08"/>
            <path class="cls-1" d="M56.24,64.87c1.52-2.62,4.88-3.51,7.5-1.99,2.62,1.52,3.51,4.88,1.99,7.5-.11.18-.23.36-.35.53l-9.87,13.16h10.98"/>
          </g>
          <g>
            <rect class="cls-2" x="416.09" y="331.06" width="87.81" height="87.81"/>
            <line class="cls-1" x1="427.06" y1="353.02" x2="427.06" y2="380.46"/>
            <path class="cls-1" d="M435.3,405.15c5.39-8.26,14.1-13.72,24.7-13.72s19.31,5.46,24.7,13.72"/>
            <polygon class="cls-1" points="492.92 353.02 459.99 363.99 427.06 353.02 459.99 342.04 492.92 353.02"/>
            <path class="cls-1" d="M474.17,359.26c7.16,7.83,6.61,19.98-1.22,27.14-7.83,7.16-19.98,6.61-27.14-1.22-6.7-7.34-6.7-18.58,0-25.91"/>
          </g>
          <g>
            <rect class="cls-2" x="887.18" width="87.81" height="87.81"/>
            <rect class="cls-1" x="900.9" y="30.18" width="60.37" height="43.91" rx="2.74" ry="2.74"/>
            <path class="cls-1" d="M917.37,30.18v-10.98c0-7.58,6.14-13.72,13.72-13.72,6.64,0,12.45,4.71,13.72,10.98"/>
            <circle class="cls-1" cx="931.09" cy="48.02" r="6.86"/>
            <line class="cls-1" x1="931.09" y1="54.88" x2="931.09" y2="63.11"/>
          </g>
          <g>
            <rect class="cls-2" x="857.67" y="381.71" width="87.81" height="87.81"/>
            <path class="cls-1" d="M879.62,455.8c-1.52,0-2.74-1.23-2.74-2.74v-14.64c-4.79,2.27-10.52.22-12.79-4.57-2.27-4.79-.22-10.52,4.57-12.79,2.6-1.23,5.61-1.23,8.22,0v-14.64c0-1.52,1.23-2.74,2.74-2.74h16.02c-2.27-4.79-.23-10.52,4.57-12.79,4.79-2.27,10.52-.23,12.79,4.57,1.23,2.6,1.23,5.62,0,8.22h16.02c1.52,0,2.74,1.23,2.74,2.74v14.64c-4.79-2.27-10.52-.22-12.79,4.57-2.27,4.79-.22,10.52,4.57,12.79,2.6,1.23,5.61,1.23,8.22,0v14.64c0,1.52-1.23,2.74-2.74,2.74h-49.39Z"/>
          </g>
          <g>
            <rect class="cls-2" x="343.1" y="407.83" width="87.81" height="87.81"/>
            <circle class="cls-1" cx="378.77" cy="457.22" r="10.98"/>
            <path class="cls-1" d="M361.41,479.17c4.54-9.59,15.99-13.68,25.58-9.14,4.01,1.9,7.24,5.13,9.14,9.14h21.06c1.52,0,2.74-1.23,2.74-2.74v-49.39c0-1.52-1.23-2.74-2.74-2.74h-60.37c-1.52,0-2.74,1.23-2.74,2.74v49.39c0,1.52,1.23,2.74,2.74,2.74h4.59Z"/>
          </g>
          <g>
            <rect class="cls-2" x="223.61" y="406.94" width="87.81" height="87.81"/>
            <circle class="cls-1" cx="267.52" cy="420.66" r="8.23"/>
            <path class="cls-1" d="M236.99,442.24c-4.01-1.85-2.69-7.85,1.72-7.85h57.63c4.41,0,5.73,6,1.72,7.85l-19.55,8.61,7.84,29.82c.93,2.07,0,4.51-2.07,5.44-2.03.91-4.42.04-5.39-1.96l-11.36-19.58-11.36,19.58c-.99,2.05-3.45,2.9-5.5,1.91-2.01-.97-2.87-3.36-1.96-5.39l7.84-29.82-19.55-8.61Z"/>
          </g>
          <g>
            <rect class="cls-2" x="676.9" y="33.14" width="87.81" height="87.81"/>
            <rect class="cls-1" x="693.37" y="46.86" width="21.95" height="60.37" rx="2.74" ry="2.74"/>
            <path class="cls-1" d="M751.57,103.72l-16.06,3.43c-1.48.32-2.94-.63-3.26-2.11,0,0,0-.01,0-.02l-11.38-54.11c-.32-1.49.62-2.95,2.11-3.28l16.06-3.43c1.48-.32,2.94.63,3.26,2.11,0,0,0,.01,0,.02l11.38,54.11c.32,1.49-.62,2.95-2.11,3.28Z"/>
            <line class="cls-1" x1="693.37" y1="57.84" x2="715.32" y2="57.84"/>
            <line class="cls-1" x1="693.37" y1="96.25" x2="715.32" y2="96.25"/>
            <line class="cls-1" x1="722.58" y1="59.03" x2="744" y2="54.43"/>
            <line class="cls-1" x1="724.85" y1="69.85" x2="746.28" y2="65.25"/>
            <line class="cls-1" x1="730.55" y1="96.92" x2="751.97" y2="92.31"/>
          </g>
          <g>
            <rect class="cls-2" x="1243.62" y="223.34" width="87.81" height="87.81"/>
            <path class="cls-1" d="M1287.53,253.53c0-6.06,4.91-10.98,10.98-10.98h21.95c1.52,0,2.74,1.23,2.74,2.74v43.91c0,1.52-1.23,2.74-2.74,2.74h-21.95c-6.06,0-10.98,4.91-10.98,10.98"/>
            <path class="cls-1" d="M1251.85,289.2c0,1.52,1.23,2.74,2.74,2.74h21.95c6.06,0,10.98,4.91,10.98,10.98v-49.39c0-6.06-4.91-10.98-10.98-10.98h-21.95c-1.52,0-2.74,1.23-2.74,2.74v43.91Z"/>
            <line class="cls-1" x1="1298.5" y1="256.27" x2="1312.22" y2="256.27"/>
            <line class="cls-1" x1="1298.5" y1="267.25" x2="1312.22" y2="267.25"/>
            <line class="cls-1" x1="1298.5" y1="278.22" x2="1312.22" y2="278.22"/>
          </g>
          <g>
            <rect class="cls-2" x="408.33" y="15.52" width="87.81" height="87.81"/>
            <line class="cls-1" x1="441.26" y1="59.42" x2="463.22" y2="59.42"/>
            <line class="cls-1" x1="441.26" y1="70.4" x2="463.22" y2="70.4"/>
            <path class="cls-1" d="M427.54,29.24h49.39c1.52,0,2.74,1.23,2.74,2.74v52.14c0,4.55-3.69,8.23-8.23,8.23h-38.42c-4.55,0-8.23-3.69-8.23-8.23V31.98c0-1.52,1.23-2.74,2.74-2.74Z"/>
            <line class="cls-1" x1="435.77" y1="23.75" x2="435.77" y2="34.73"/>
            <line class="cls-1" x1="452.24" y1="23.75" x2="452.24" y2="34.73"/>
            <line class="cls-1" x1="468.7" y1="23.75" x2="468.7" y2="34.73"/>
          </g>
        </g>
      </g>
    </g>
  </g>
</svg>