<?xml version="1.0" encoding="UTF-8"?>
<svg xmlns="http://www.w3.org/2000/svg" xmlns:xlink="http://www.w3.org/1999/xlink" viewBox="0 0 800 900">
  <defs>
    <style>
      .cls-1 {
        stroke: #c9c9c9;
        stroke-linecap: round;
        stroke-linejoin: round;
        stroke-width: 5.49px;
      }

      .cls-1, .cls-2, .cls-3 {
        fill: none;
      }

      .cls-4 {
        opacity: .31;
      }

      .cls-5 {
        fill: url(#Unbenannter_Verlauf_7-3);
      }

      .cls-5, .cls-6, .cls-7, .cls-8, .cls-9, .cls-10, .cls-11, .cls-2, .cls-12, .cls-13, .cls-14, .cls-15, .cls-16, .cls-17, .cls-18, .cls-19, .cls-20, .cls-21, .cls-22, .cls-23, .cls-24, .cls-25, .cls-26, .cls-27, .cls-28, .cls-29, .cls-30 {
        stroke-width: 0px;
      }

      .cls-31 {
        clip-path: url(#clippath-2);
      }

      .cls-32 {
        isolation: isolate;
      }

      .cls-6 {
        fill: #f7f7f7;
      }

      .cls-7 {
        fill: #0e3c55;
      }

      .cls-8 {
        fill: #daefee;
      }

      .cls-33 {
        clip-path: url(#clippath-6);
      }

      .cls-9 {
        fill: #e8e9ea;
      }

      .cls-10 {
        fill: #f5f5f5;
      }

      .cls-11 {
        mix-blend-mode: multiply;
        opacity: .2;
      }

      .cls-12 {
        fill: url(#Unbenannter_Verlauf_7-4);
      }

      .cls-34 {
        clip-path: url(#clippath-7);
      }

      .cls-13 {
        fill: #ddd;
      }

      .cls-35 {
        clip-path: url(#clippath-1);
      }

      .cls-36 {
        clip-path: url(#clippath-4);
      }

      .cls-14 {
        fill: #ea4b30;
      }

      .cls-15 {
        fill: #f78104;
      }

      .cls-16 {
        fill: #bcd3d3;
      }

      .cls-17 {
        fill: #fff;
      }

      .cls-18 {
        fill: #e95709;
      }

      .cls-19 {
        fill: #005f60;
      }

      .cls-20 {
        fill: url(#Unbenannter_Verlauf_7-5);
      }

      .cls-37 {
        clip-path: url(#clippath);
      }

      .cls-21 {
        fill: #008083;
      }

      .cls-22 {
        fill: #249ea0;
      }

      .cls-38 {
        clip-path: url(#clippath-3);
      }

      .cls-23 {
        fill: url(#Unbenannter_Verlauf_7-7);
      }

      .cls-24 {
        fill: url(#Unbenannter_Verlauf_7-2);
      }

      .cls-25 {
        fill: #faab36;
      }

      .cls-26 {
        fill: #e09534;
      }

      .cls-27 {
        fill: #6f82d1;
      }

      .cls-39 {
        mask: url(#mask);
      }

      .cls-28 {
        fill: #c9c9c9;
      }

      .cls-40 {
        clip-path: url(#clippath-5);
      }

      .cls-29 {
        fill: url(#Unbenannter_Verlauf_7-6);
      }

      .cls-3 {
        stroke: #042323;
        stroke-miterlimit: 10;
        stroke-width: .25px;
      }

      .cls-30 {
        fill: url(#Unbenannter_Verlauf_7);
      }
    </style>
    <clipPath id="clippath">
      <rect class="cls-2" x="-2045" y="1098.16" width="1650" height="927.67"/>
    </clipPath>
    <mask id="mask" x="-3597.59" y="176.28" width="4755.19" height="2771.45" maskUnits="userSpaceOnUse"/>
    <clipPath id="clippath-1">
      <path class="cls-2" d="M341.98,388.28c-5.39,0-10.48.78-15.26,2.33-4.79,1.56-9.1,3.83-12.93,6.82-3.71,2.87-6.71,6.2-8.98,9.97-2.28,3.77-3.66,7.81-4.13,12.12-.12.84-.18,2.1-.18,3.77,0,8.14,3.23,15.8,9.7,22.99,6.46,7.18,16.64,12.63,30.53,16.34,12.57,3.47,21.73,8.56,27.48,15.26,4.19,4.79,6.29,10,6.29,15.62,0,1.08-.06,1.92-.18,2.51-.96,6.46-4.25,11.85-9.88,16.16-6.11,4.79-13.59,7.18-22.45,7.18-6.11,0-11.74-1.29-16.88-3.86-5.15-2.57-9.22-6.02-12.21-10.33-2.2-3.17-3.6-6.54-4.18-10.1-.36-2.22-2.18-3.9-4.44-3.9h0c-2.82,0-4.87,2.55-4.42,5.33.51,3.11,1.47,6.12,2.9,9.03,2.21,4.55,5.36,8.56,9.43,12.03,3.95,3.47,8.5,6.14,13.65,7.99,5.15,1.86,10.53,2.78,16.16,2.78,10.89,0,20.23-3.05,28.01-9.16,3.71-2.87,6.7-6.2,8.98-9.97,2.27-3.77,3.65-7.81,4.13-12.12.12-.84.18-2.09.18-3.77,0-8.14-3.23-15.8-9.7-22.99-6.46-7.18-16.64-12.63-30.53-16.34-12.33-3.23-21.49-8.32-27.48-15.26-4.07-4.43-6.11-9.46-6.11-15.08,0-1.31.06-2.33.18-3.05.72-6.34,3.95-11.73,9.7-16.16,6.11-4.79,13.65-7.18,22.63-7.18,5.98,0,11.55,1.29,16.7,3.86,5.14,2.58,9.22,6.02,12.21,10.33,2.21,3.2,3.61,6.62,4.19,10.27.35,2.23,2.18,3.92,4.43,3.92,2.81,0,4.87-2.55,4.42-5.33-.51-3.13-1.48-6.17-2.9-9.13-2.22-4.61-5.36-8.65-9.43-12.12-3.95-3.47-8.47-6.13-13.56-7.99-5.09-1.85-10.45-2.78-16.07-2.78Z"/>
    </clipPath>
    <linearGradient id="Unbenannter_Verlauf_7" data-name="Unbenannter Verlauf 7" x1="-1894.02" y1="60.38" x2="-1891.52" y2="60.38" gradientTransform="translate(378253.28 12511.95) scale(199.63 -199.63)" gradientUnits="userSpaceOnUse">
      <stop offset="0" stop-color="#faab36"/>
      <stop offset=".08" stop-color="#faab36"/>
      <stop offset=".49" stop-color="#f78104"/>
      <stop offset=".94" stop-color="#e95709"/>
      <stop offset="1" stop-color="#e95709"/>
    </linearGradient>
    <clipPath id="clippath-2">
      <path class="cls-2" d="M400.52,395.11v121.94c0,2.48,2.01,4.49,4.49,4.49s4.49-2.01,4.49-4.49v-121.94c0-2.48-2.01-4.49-4.49-4.49s-4.49,2.01-4.49,4.49"/>
    </clipPath>
    <linearGradient id="Unbenannter_Verlauf_7-2" data-name="Unbenannter Verlauf 7" x1="-1894.02" y1="60.32" x2="-1891.52" y2="60.32" gradientTransform="translate(378256.53 12498.45) scale(199.63 -199.63)" xlink:href="#Unbenannter_Verlauf_7"/>
    <clipPath id="clippath-3">
      <path class="cls-2" d="M434.65,458.72v-55.22c0-2.16,1.75-3.91,3.91-3.91h36.5c4.19,0,8.2.81,12.03,2.42,3.83,1.62,7.24,3.92,10.24,6.91,2.99,3,5.3,6.41,6.91,10.24,1.62,3.83,2.42,7.84,2.42,12.03s-.81,8.02-2.42,11.85c-1.62,3.83-3.93,7.25-6.91,10.24-3,3-6.41,5.3-10.24,6.91-3.83,1.62-7.84,2.42-12.03,2.42h-36.5c-2.16,0-3.91-1.75-3.91-3.91M429.57,390.62c-2.16,0-3.91,1.75-3.91,3.91v122.74c0,2.16,1.75,3.91,3.91,3.91h1.17c2.16,0,3.91-1.75,3.91-3.91v-41.75c0-2.16,1.75-3.91,3.91-3.91h28.42c2.1,0,3.79,1.67,3.89,3.77.38,7.55,1.6,15.27,3.65,23.17,2.51,9.34,6.11,17.96,10.77,25.86,4.55,7.42,9.88,13.86,15.98,19.3,6.11,5.44,12.81,9.66,20.11,12.66,7.9,3.35,16.22,5.03,24.96,5.03,4.42,0,8.68-.42,12.75-1.26,12.12-2.49,23.08-8.17,32.86-17.02,1.69-1.53,1.78-4.16.14-5.74l-.93-.9c-1.46-1.42-3.76-1.4-5.27-.02-5.37,4.87-11.13,8.63-17.28,11.3-7.18,3.11-14.61,4.67-22.27,4.67s-14.49-1.44-21.55-4.31c-6.46-2.64-12.39-6.38-17.78-11.22-5.39-4.85-10.06-10.57-14.01-17.15-4.19-6.82-7.49-14.66-9.88-23.53-1.86-7.11-2.96-14.22-3.3-21.34-.09-1.89,1.24-3.58,3.09-3.94,7.89-1.53,14.84-5.26,20.86-11.18,3.83-3.83,6.76-8.2,8.8-13.11,2.03-4.91,3.05-10.05,3.05-15.44s-1.02-10.56-3.05-15.53c-2.04-4.97-4.97-9.37-8.8-13.2-4.68-4.67-10.19-8.01-16.55-10.01-4.32-1.36-8.88-1.84-13.42-1.84h-44.24Z"/>
    </clipPath>
    <linearGradient id="Unbenannter_Verlauf_7-3" data-name="Unbenannter Verlauf 7" x1="-1894.02" y1="60.15" x2="-1891.52" y2="60.15" gradientTransform="translate(378268.12 12484.49) scale(199.63 -199.63)" xlink:href="#Unbenannter_Verlauf_7"/>
    <clipPath id="clippath-4">
      <path class="cls-2" d="M531.08,395.11v121.58c0,2.48,2.01,4.49,4.49,4.49s4.49-2.01,4.49-4.49v-121.58c0-2.48-2.01-4.49-4.49-4.49s-4.49,2.01-4.49,4.49"/>
    </clipPath>
    <linearGradient id="Unbenannter_Verlauf_7-4" data-name="Unbenannter Verlauf 7" x1="-1894.02" y1="60.2" x2="-1891.52" y2="60.2" gradientTransform="translate(378263.69 12472.96) scale(199.63 -199.63)" xlink:href="#Unbenannter_Verlauf_7"/>
    <clipPath id="clippath-5">
      <path class="cls-2" d="M596.98,388.28c-5.38,0-10.48.78-15.26,2.33-4.79,1.56-9.1,3.83-12.93,6.82-3.71,2.87-6.71,6.2-8.98,9.97-2.28,3.77-3.65,7.81-4.13,12.12-.12.84-.18,2.1-.18,3.77,0,8.14,3.23,15.8,9.7,22.99,6.46,7.18,16.64,12.63,30.53,16.34,12.57,3.47,21.73,8.56,27.48,15.26,4.19,4.79,6.29,10,6.29,15.62,0,1.08-.06,1.92-.18,2.51-.96,6.46-4.25,11.85-9.88,16.16-6.1,4.79-13.59,7.18-22.45,7.18-6.1,0-11.73-1.29-16.88-3.86-5.15-2.57-9.22-6.02-12.21-10.33-2.2-3.17-3.6-6.54-4.18-10.1-.36-2.22-2.18-3.9-4.44-3.9h0c-2.82,0-4.87,2.55-4.42,5.33.51,3.11,1.47,6.12,2.89,9.03,2.21,4.55,5.36,8.56,9.43,12.03,3.95,3.47,8.5,6.14,13.65,7.99,5.15,1.86,10.54,2.78,16.16,2.78,10.89,0,20.23-3.05,28.01-9.16,3.71-2.87,6.7-6.2,8.98-9.97,2.27-3.77,3.65-7.81,4.13-12.12.12-.84.18-2.09.18-3.77,0-8.14-3.23-15.8-9.69-22.99-6.47-7.18-16.64-12.63-30.53-16.34-12.33-3.23-21.49-8.32-27.48-15.26-4.07-4.43-6.1-9.46-6.1-15.08,0-1.31.06-2.33.18-3.05.72-6.34,3.95-11.73,9.7-16.16,6.1-4.79,13.65-7.18,22.62-7.18,5.99,0,11.55,1.29,16.7,3.86,5.15,2.58,9.22,6.02,12.21,10.33,2.21,3.2,3.61,6.62,4.19,10.27.35,2.23,2.18,3.92,4.44,3.92,2.81,0,4.87-2.55,4.42-5.33-.51-3.13-1.47-6.17-2.89-9.13-2.22-4.61-5.36-8.65-9.43-12.12-3.95-3.47-8.47-6.13-13.56-7.99-5.09-1.85-10.45-2.78-16.08-2.78Z"/>
    </clipPath>
    <linearGradient id="Unbenannter_Verlauf_7-5" data-name="Unbenannter Verlauf 7" x1="-1894.02" y1="60.13" x2="-1891.52" y2="60.13" gradientTransform="translate(378267.39 12461.85) scale(199.63 -199.63)" xlink:href="#Unbenannter_Verlauf_7"/>
    <clipPath id="clippath-6">
      <path class="cls-2" d="M202.78,455.89c0,12.97,10.52,23.49,23.5,23.49s23.49-10.52,23.49-23.49-10.52-23.49-23.49-23.49-23.5,10.52-23.5,23.49"/>
    </clipPath>
    <linearGradient id="Unbenannter_Verlauf_7-6" data-name="Unbenannter Verlauf 7" x1="-1894.02" y1="60.5" x2="-1891.52" y2="60.5" gradientTransform="translate(378245.94 12533.62) scale(199.63 -199.63)" xlink:href="#Unbenannter_Verlauf_7"/>
    <clipPath id="clippath-7">
      <path class="cls-2" d="M169.73,455.89c0-31.18,25.37-56.55,56.55-56.55s56.55,25.37,56.55,56.55-25.37,56.55-56.55,56.55-56.55-25.37-56.55-56.55M161,455.89c0,36.05,29.22,65.28,65.28,65.28s65.28-29.23,65.28-65.28-29.22-65.28-65.28-65.28-65.28,29.23-65.28,65.28"/>
    </clipPath>
    <linearGradient id="Unbenannter_Verlauf_7-7" data-name="Unbenannter Verlauf 7" x1="-1894.02" y1="60.5" x2="-1891.52" y2="60.5" gradientTransform="translate(378245.94 12533.59) scale(199.63 -199.63)" xlink:href="#Unbenannter_Verlauf_7"/>
  </defs>
  <g class="cls-32">
    <g id="Ebene_1" data-name="Ebene 1">
      <g class="cls-37">
        <g class="cls-39">
          <g class="cls-4">
            <line class="cls-3" x1="-2400.74" y1="2296.94" x2="52.81" y2="881.29"/>
            <g>
              <line class="cls-3" x1="1157.53" y1="1592.03" x2="-1296.02" y2="176.38"/>
              <line class="cls-3" x1="1065.47" y1="1646.25" x2="-1388.08" y2="230.61"/>
              <line class="cls-3" x1="973.41" y1="1700.48" x2="-1480.14" y2="284.83"/>
              <line class="cls-3" x1="881.35" y1="1754.7" x2="-1572.2" y2="339.05"/>
              <line class="cls-3" x1="789.29" y1="1808.92" x2="-1664.26" y2="393.28"/>
              <line class="cls-3" x1="697.23" y1="1863.15" x2="-1756.32" y2="447.5"/>
              <line class="cls-3" x1="605.17" y1="1917.37" x2="-1848.38" y2="501.72"/>
              <line class="cls-3" x1="513.11" y1="1971.6" x2="-1940.44" y2="555.95"/>
              <line class="cls-3" x1="421.05" y1="2025.82" x2="-2032.5" y2="610.17"/>
              <line class="cls-3" x1="328.99" y1="2080.04" x2="-2124.56" y2="664.39"/>
              <line class="cls-3" x1="236.93" y1="2134.27" x2="-2216.62" y2="718.62"/>
              <line class="cls-3" x1="144.87" y1="2188.49" x2="-2308.68" y2="772.84"/>
              <line class="cls-3" x1="52.81" y1="2242.71" x2="-2400.74" y2="827.06"/>
            </g>
          </g>
        </g>
      </g>
      <g>
        <path class="cls-21" d="M374.53,60c1.11,0,2.01.9,2.01,2.01,0,1.11-.9,2.01-2.01,2.01h-7.29s0-4.02,0-4.02h7.29Z"/>
        <rect class="cls-16" x="64.76" y="48.82" width="286.93" height="26.38"/>
        <polygon class="cls-13" points="365.93 57.11 365.93 66.81 351.76 75.19 351.76 48.84 365.93 57.11"/>
        <polygon class="cls-27" points="370.14 59.31 370.14 64.71 365.93 66.82 365.93 57.2 370.14 59.31"/>
        <path class="cls-21" d="M326.1,45.4c2.11,0,3.82,1.72,3.82,3.83v25.57c0,2.11-1.71,3.83-3.82,3.83h-102.05c-2.11,0-3.83-1.72-3.83-3.83v-25.57c0-2.11,1.72-3.83,3.83-3.83h102.05Z"/>
        <path class="cls-21" d="M64.76,48.82v26.38s-6.81,0-6.81,0c-2.12,0-3.84-1.72-3.84-3.84v-18.71c0-2.11,1.72-3.83,3.84-3.83h6.81Z"/>
        <polygon class="cls-21" points="80.52 48.82 92.39 36.95 102.23 36.95 90.34 48.85 80.52 48.82"/>
        <path class="cls-21" d="M165.15,33.59c1.58,0,2.88,1.29,2.88,2.87s-1.29,2.88-2.88,2.88h-75.05s5.54-5.75,5.54-5.75h69.51Z"/>
      </g>
      <g>
        <path class="cls-17" d="M64.86,107.47c7.12,0,12.89,5.78,12.89,12.89,0,7.12-5.77,12.89-12.89,12.89-7.12,0-12.89-5.77-12.89-12.89,0-7.11,5.77-12.89,12.89-12.89Z"/>
        <rect class="cls-25" x="75.15" y="107.44" width="259.06" height="25.95"/>
        <rect class="cls-26" x="75.15" y="107.44" width="259.06" height="12.98"/>
        <polygon class="cls-17" points="346.96 120.22 334.21 107.44 334.21 120.22 334.21 120.42 334.21 133.2 346.96 120.42 347.15 120.42 347.05 120.32 347.15 120.22 346.96 120.22"/>
        <polygon class="cls-7" points="342.75 116.25 342.75 124.64 342.75 124.64 346.96 120.42 347.15 120.42 347.05 120.32 347.15 120.22 346.96 120.22 343 116.25 342.75 116.25"/>
        <rect class="cls-19" x="64.86" y="107.44" width="10.29" height="25.95"/>
      </g>
      <g>
        <path class="cls-21" d="M40.74,762.16c-14.68-49.02,13.89-118.37,62.91-133.05,3.67-1.1,7.35-1.96,11.02-2.59l21.79,72.76c-8.59-.75-17.03-1.89-26.14-4.1-24.38-5.93-38.07,13.03-43.04,34.64-4.26,18.5,1.22,41.11,26.78,57.21,6.6,4.15,16.85,7.97,23.96,8.72.28.02,3.38.22,4.21-1.97.63-1.67-.49-3.03-.49-3.03l16.8-5.07,28.62,41.37-9.9,2.93.03.02s-.04.01-.07.02h0s0,0,0,0c-47.13,10.71-102.39-20.88-116.46-67.86Z"/>
        <rect class="cls-16" x="111.86" y="567.34" width="21.17" height="39.61" transform="translate(-163.26 59.79) rotate(-16.67)"/>
        <rect class="cls-11" x="111.82" y="567.03" width="10.59" height="41.47" transform="translate(-163.63 58.27) rotate(-16.66)"/>
        <path class="cls-21" d="M111.36,613.76c-.46-1.51.41-3.11,1.92-3.56l29.49-8.83c1.52-.46,3.12.41,3.57,1.92l.17.56-34.98,10.48-.17-.56Z"/>
        <path class="cls-21" d="M145.5,733.27s9.11,1.57,21.43-2.12c11.58-3.47,16.56-9.26,16.56-9.26l-34.3-114.56-37.99,11.38,34.3,114.56Z"/>
        <rect class="cls-11" x="127.97" y="611.71" width="15.62" height="123.74" transform="translate(-187.62 67.31) rotate(-16.68)"/>
        <path class="cls-19" d="M107.85,619c-.62-2.09.56-4.29,2.65-4.92l36.74-11c2.09-.63,4.29.56,4.92,2.65l.23.77-44.31,13.27-.23-.77Z"/>
        <path class="cls-19" d="M103.78,571.53c.1.34.46.53.8.43l24.45-7.32c.34-.1.53-.46.43-.81l-.78-2.58c-.1-.34-.46-.53-.8-.43l-24.45,7.32c-.34.1-.53.46-.43.8l.78,2.59Z"/>
        <path class="cls-16" d="M142.91,738.34c.66,2.2,2.97,3.44,5.16,2.79l67.94-20.34c2.19-.66,3.44-2.97,2.78-5.16h0c-.66-2.19-2.97-3.44-5.16-2.78l-67.94,20.34c-2.19.66-3.44,2.97-2.78,5.16h0Z"/>
        <path class="cls-8" d="M166.12,760.7l-5.77-19.28,14.69-4.4,5.78,19.27s0,.02,0,.03c.56,1.87-2.27,4.37-6.32,5.59-4.05,1.22-7.81.69-8.37-1.18,0-.01,0-.03,0-.04Z"/>
        <path class="cls-11" d="M166.02,760.73l-5.77-19.28,7.35-2.2,4.77,15.92,1.01,3.39,1.01,3.39c-4.05,1.21-7.8.69-8.36-1.18,0-.01,0-.02,0-.03Z"/>
        <path class="cls-21" d="M178.88,734.68c.49,1.62-.44,3.33-2.06,3.82l-17.16,5.14c-1.62.49-3.33-.44-3.82-2.06h0c-.49-1.62.44-3.33,2.06-3.82l17.16-5.14c1.63-.49,3.34.44,3.82,2.06h0Z"/>
        <path class="cls-8" d="M200.49,744.3l-4.38-14.64,11.16-3.34,4.38,14.64s0,.02,0,.02c.42,1.42-1.73,3.32-4.81,4.25-3.08.92-5.93.52-6.35-.9,0-.01,0-.02,0-.03Z"/>
        <path class="cls-11" d="M200.49,744.33s0-.02,0-.03l-4.38-14.64,5.58-1.67,5.16,17.23c-3.08.92-5.92.52-6.35-.9Z"/>
        <path class="cls-21" d="M210.18,724.53c.37,1.23-.32,2.53-1.56,2.9l-13.04,3.91c-1.23.37-2.53-.33-2.9-1.57h0c-.37-1.23.33-2.53,1.57-2.9l13.04-3.9c1.23-.37,2.53.33,2.9,1.57h0Z"/>
        <path class="cls-25" d="M105.93,661.22c2.73,9.12,12.34,14.3,21.46,11.57,9.12-2.73,14.3-12.34,11.57-21.46-2.73-9.13-12.34-14.31-21.46-11.57-9.12,2.73-14.3,12.34-11.57,21.46Z"/>
        <path class="cls-16" d="M110.78,659.77c1.93,6.44,8.72,10.1,15.16,8.17,6.44-1.93,10.1-8.72,8.17-15.16-1.93-6.44-8.72-10.1-15.16-8.17-6.44,1.93-10.1,8.71-8.17,15.16Z"/>
        <path class="cls-21" d="M119.13,657.27c.55,1.83,2.48,2.87,4.31,2.32,1.83-.54,2.87-2.48,2.33-4.31-.55-1.84-2.48-2.87-4.31-2.32-1.83.55-2.88,2.48-2.32,4.31Z"/>
        <path class="cls-25" d="M113.56,686.36c1.04,3.49,4.73,5.48,8.22,4.43,3.49-1.05,5.48-4.73,4.43-8.22-1.05-3.5-4.73-5.48-8.22-4.43-3.49,1.05-5.48,4.73-4.43,8.22Z"/>
        <path class="cls-21" d="M118.28,684.95c.26.89,1.2,1.39,2.09,1.13.89-.27,1.39-1.2,1.13-2.09s-1.2-1.39-2.09-1.13c-.89.27-1.39,1.2-1.13,2.09Z"/>
        <path class="cls-21" d="M113.78,789c.7,2.33,3.15,3.66,5.48,2.96l102.76-30.77c2.33-.69,3.65-3.15,2.96-5.48-.7-2.33-3.16-3.66-5.49-2.96l-102.76,30.77c-2.33.7-3.66,3.15-2.96,5.48Z"/>
        <path class="cls-16" d="M219.5,752.75c1.94-.58,3.96.25,4.99,1.9.07,1.96-1.16,3.8-3.12,4.38l-102.76,30.77c-1.95.58-3.97-.26-4.99-1.9-.07-1.96,1.16-3.8,3.12-4.38l102.76-30.77Z"/>
        <path class="cls-21" d="M140.79,817.6c0-9.02-13.13-13.49-20.68-7.04l-16.71,14.28-37.38,31.95h74.77v-39.19Z"/>
        <path class="cls-11" d="M103.4,824.84l16.71-14.28c3.29-2.81,7.65-3.55,11.51-2.74-2,.43-3.92,1.32-5.59,2.74l-16.7,14.28-37.38,31.95h-5.92l37.38-31.95Z"/>
        <path class="cls-21" d="M51.75,862.61c0,3.94,3.2,7.14,7.14,7.14h168.65c3.95,0,7.14-3.2,7.14-7.14s-3.2-7.14-7.14-7.14H58.89c-3.94,0-7.14,3.2-7.14,7.14Z"/>
        <path class="cls-16" d="M58.89,855.47h168.65c2.86,0,5.31,1.69,6.45,4.12-.16,3.8-3.27,6.85-7.11,6.85H58.22c-2.86,0-5.31-1.69-6.45-4.12.16-3.8,3.27-6.85,7.11-6.85Z"/>
        <g>
          <path class="cls-21" d="M128.89,813.22c2.96,0,5.36,2.4,5.36,5.36s-2.4,5.36-5.36,5.36-5.35-2.4-5.35-5.36,2.39-5.36,5.35-5.36Z"/>
          <path class="cls-16" d="M128.89,813.22c2.96,0,5.36,2.4,5.36,5.36s-2.4,5.36-5.36,5.36-5.35-2.4-5.35-5.36,2.39-5.36,5.35-5.36ZM125.19,819.58c0,.23.18.41.41.41h.37c.81,0,1.47.66,1.47,1.47v.37c0,.23.18.41.41.41h1.95c.22,0,.41-.18.41-.41v-.37c0-.81.66-1.47,1.47-1.47h.37c.22,0,.41-.18.41-.41v-1.95c0-.23-.18-.41-.41-.41h-.37c-.81,0-1.47-.65-1.47-1.46v-.37c0-.23-.19-.41-.41-.41h-1.95c-.23,0-.41.18-.41.41v.37c0,.81-.66,1.46-1.47,1.46h-.37c-.23,0-.41.18-.41.41v1.95Z"/>
        </g>
      </g>
      <g>
        <path class="cls-16" d="M730.41,457.32c0,2.33-1.89,4.22-4.22,4.22h-32.83c-2.34,0-4.23-1.89-4.23-4.22s1.89-4.23,4.23-4.23h32.83c2.33,0,4.22,1.89,4.22,4.23Z"/>
        <rect class="cls-16" x="699.02" y="458.12" width="21.49" height="62.09"/>
        <path class="cls-16" d="M717.73,500.31h-15.92l-50.94,120.9c-4.16,9.87,3.08,20.79,13.8,20.79h90.19c10.72,0,17.97-10.92,13.81-20.79l-50.94-120.9Z"/>
        <path class="cls-25" d="M732.64,556.03h-45.75l-24.77,58.8c-3.36,7.99,2.49,16.82,11.16,16.82h72.97c8.67,0,14.54-8.83,11.17-16.82l-24.77-58.8Z"/>
      </g>
      <g>
        <path class="cls-17" d="M196.66,177.53c-3.31,0-6,2.69-6,6h0s-.17,0-.17,0c0,.04.01.09.01.13,0,2.76-2.24,5-5,5s-4.99-2.24-4.99-5c0-.26.04-.52.08-.77-.1-2.98-2.52-5.36-5.52-5.36s-5.54,2.48-5.54,5.54v.47h-.18s.01.09.01.13c0,2.76-2.24,5-5,5s-5-2.24-5-5c0-.27.04-.54.08-.8-.11-2.96-2.53-5.33-5.51-5.33s-5.54,2.48-5.54,5.54v.47h-.08s.01.09.01.13c0,2.76-2.24,5-5,5s-5-2.24-5-5c0-.04.01-.09.01-.13h-.01v-.47c0-3.06-2.48-5.54-5.53-5.54s-5.53,2.48-5.53,5.54v.47h-.09s.02.09.02.13c0,2.76-2.24,5-5,5s-4.99-2.24-4.99-5c0-.04,0-.09,0-.13h0v-.47c0-3.06-2.48-5.54-5.53-5.54s-5.54,2.48-5.54,5.54v.47h-.19s.01.09.01.13c0,2.76-2.24,5-4.99,5s-5-2.24-5-5c0-.21.03-.41.06-.62-.27-3.09-2.83-5.52-5.99-5.52-3.34,0-6.04,2.71-6.04,6.05v-.04h-.12s.01.09.01.13c0,2.76-2.24,5-5,5s-5-2.24-5-5c0-.21.04-.41.06-.62-.27-3.09-2.83-5.52-5.99-5.52-3.34,0-6.04,2.71-6.04,6.05v108.57h118.68l22.06-22.06v-86.55c0-3.31-2.69-6-6-6Z"/>
        <rect class="cls-21" x="72.88" y="200.63" width="118.81" height="8.75"/>
        <rect class="cls-21" x="120.87" y="215.35" width="70.73" height="4.92"/>
        <rect class="cls-21" x="120.87" y="227" width="70.73" height="4.92"/>
        <rect class="cls-21" x="120.87" y="238.64" width="70.73" height="4.92"/>
        <rect class="cls-21" x="120.87" y="250.29" width="70.73" height="4.92"/>
        <rect class="cls-21" x="120.87" y="261.94" width="46.77" height="4.92"/>
        <rect class="cls-21" x="72.88" y="215.35" width="40.5" height="51.5"/>
        <polygon class="cls-9" points="202.64 270.1 180.57 270.1 180.57 292.14 180.6 292.14 202.64 270.1"/>
      </g>
      <g>
        <path class="cls-21" d="M760.61,200.1c0,5.72-4.76,10.35-10.64,10.35h-250.34c-5.87,0-10.64-4.63-10.64-10.35V60.27c0-5.72,4.76-10.35,10.64-10.35h250.34c5.87,0,10.64,4.63,10.64,10.35v139.83Z"/>
        <polygon class="cls-25" points="624.18 68.94 622 58.98 548.33 58.92 523.99 34.59 499.69 58.88 499.48 58.88 499.48 199.94 624.18 199.94 624.18 68.94"/>
        <polygon class="cls-25" points="624.18 199.94 748.87 199.94 748.87 58.88 748.66 58.88 724.37 34.59 700.07 58.88 627.84 58.88 624.18 68.94 624.18 199.94"/>
        <rect class="cls-18" x="502.36" y="61.56" width="8.46" height="26.84"/>
        <rect class="cls-18" x="506.59" y="134.52" width="11.44" height="26.84"/>
        <rect class="cls-18" x="731.38" y="97.48" width="11.44" height="29.63"/>
        <polygon class="cls-15" points="499.48 199.94 748.87 199.94 748.87 199.94 724.37 175.95 523.99 175.95 499.48 199.94"/>
        <path class="cls-6" d="M641.11,34.53l83.26.16v141.11l-83.26-.16c-10.18,0-15.76,6.77-16.76,14.42h-.18V51.46c0-8.62,5.65-16.93,16.94-16.93Z"/>
        <rect class="cls-21" x="638.37" y="84.1" width="71.81" height="7.69"/>
        <rect class="cls-21" x="638.37" y="100.91" width="71.81" height="7.69"/>
        <rect class="cls-21" x="638.37" y="117.72" width="71.81" height="7.69"/>
        <rect class="cls-21" x="638.37" y="50.49" width="71.81" height="7.69"/>
        <rect class="cls-21" x="638.37" y="67.29" width="71.81" height="7.69"/>
        <rect class="cls-21" x="638.37" y="134.52" width="71.81" height="7.69"/>
        <rect class="cls-21" x="638.37" y="151.33" width="71.81" height="7.69"/>
        <path class="cls-17" d="M607.25,34.53l-83.26.16v141.11l83.26-.16c10.18,0,15.76,6.77,16.75,14.42h.18V51.46c0-8.62-5.64-16.93-16.93-16.93Z"/>
        <rect class="cls-21" x="537.94" y="49.27" width="71.81" height="25.71"/>
        <rect class="cls-21" x="537.94" y="84.1" width="71.81" height="7.69"/>
        <rect class="cls-21" x="537.94" y="100.91" width="71.81" height="7.69"/>
        <rect class="cls-21" x="537.94" y="117.72" width="71.81" height="7.69"/>
        <rect class="cls-21" x="537.94" y="134.52" width="71.81" height="7.69"/>
        <rect class="cls-21" x="537.94" y="151.33" width="71.81" height="7.69"/>
      </g>
      <g>
        <g>
          <path class="cls-21" d="M632.84,866.14c0,2-1.8,3.61-4.01,3.61h-129.25v-164.43h129.25c2.21,0,4.01,1.62,4.01,3.61v157.2Z"/>
          <path class="cls-22" d="M490.1,705.32h18.98c1.99,0,3.61,1.62,3.61,3.61v157.2c0,1.99-1.62,3.61-3.61,3.61h-18.97c-2,0-3.62-1.62-3.62-3.62v-157.2c0-1.99,1.62-3.61,3.61-3.61Z"/>
          <path class="cls-22" d="M618.84,739.65c0,2-1.62,3.61-3.61,3.61h-84.93c-2,0-3.62-1.62-3.62-3.61v-8.58c0-2,1.62-3.61,3.62-3.61h84.93c2,0,3.61,1.62,3.61,3.61v8.58Z"/>
          <path class="cls-22" d="M618.84,758.62c0,2-1.62,3.62-3.61,3.62h-84.93c-2,0-3.62-1.62-3.62-3.62v-6.78c0-2,1.62-3.61,3.62-3.61h84.93c2,0,3.61,1.62,3.61,3.61v6.78Z"/>
          <path class="cls-22" d="M554.92,793.86h35.69c1.99,0,3.61,1.62,3.61,3.61v35.84c0,1.99-1.62,3.61-3.61,3.61h-35.69c-1.99,0-3.61-1.62-3.61-3.61v-35.84c0-1.99,1.62-3.61,3.61-3.61Z"/>
        </g>
        <g>
          <path class="cls-18" d="M649.48,866.14c0,2-1.62,3.61-3.61,3.61h-53.68v-101.49h53.68c1.99,0,3.61,1.62,3.61,3.61v94.26Z"/>
          <path class="cls-15" d="M580.97,768.26h12.8c1.99,0,3.61,1.62,3.61,3.61v94.26c0,1.99-1.62,3.61-3.61,3.61h-12.8c-1.99,0-3.61-1.62-3.61-3.61v-94.26c0-1.99,1.62-3.61,3.61-3.61Z"/>
        </g>
        <rect class="cls-19" x="657.69" y="733.03" width="104.2" height="136.72" rx="3.61" ry="3.61"/>
        <rect class="cls-16" x="690.21" y="748.69" width="58.73" height="8.58"/>
        <rect class="cls-16" x="690.21" y="768.11" width="58.73" height="8.58"/>
        <path class="cls-22" d="M625.77,733.03h42.76c1.99,0,3.61,1.62,3.61,3.61v129.5c0,1.99-1.62,3.61-3.61,3.61h-42.76c-1.99,0-3.61-1.62-3.61-3.61v-129.5c0-1.99,1.62-3.61,3.61-3.61Z"/>
        <rect class="cls-10" x="622.46" y="748.69" width="49.69" height="8.58"/>
        <rect class="cls-10" x="622.46" y="844.68" width="49.69" height="8.58"/>
      </g>
      <g>
        <path class="cls-14" d="M411.85,733.22l49.67-53.82h0c-1.77-.28-3.57.35-4.79,1.66l-46.53,50.47,1.65,1.68Z"/>
        <polygon class="cls-21" points="461.33 679.21 514.18 630.79 518.78 635.39 468.15 686.02 417.52 736.65 412.92 732.05 461.33 679.21"/>
        <rect class="cls-19" x="452.66" y="678.74" width="61.97" height="39.66" transform="translate(-352.31 546.59) rotate(-45)"/>
        <path class="cls-14" d="M409.38,766.31c0,1.12.91,2.03,2.02,2.02,1.12,0,2.03-.9,2.03-2.02,0-1.12-.91-2.03-2.03-2.03s-2.02.91-2.02,2.02Z"/>
        <path class="cls-14" d="M408.02,775.5h6.25s0-5.95,0-5.95c0-1.29-1.05-2.34-2.34-2.34h-1.56c-1.3,0-2.35,1.05-2.35,2.34v5.95Z"/>
        <rect class="cls-14" x="410.05" y="731.21" width="2.7" height="41.33"/>
      </g>
      <g>
        <rect class="cls-2" x="517.8" y="228.41" width="87.81" height="87.81"/>
        <line class="cls-1" x1="561.71" y1="272.32" x2="594.64" y2="239.39"/>
        <path class="cls-1" d="M584.99,249.03c-12.86-12.83-33.68-12.8-46.51.05-12.83,12.86-12.8,33.68.05,46.51,12.86,12.83,33.68,12.8,46.51-.05,9.84-9.86,12.4-24.86,6.38-37.42"/>
        <path class="cls-1" d="M573.35,260.68c-6.43-6.43-16.86-6.42-23.28.01-6.43,6.43-6.42,16.86.01,23.28,6.43,6.43,16.86,6.42,23.28-.01,3.32-3.32,5.06-7.9,4.79-12.58"/>
      </g>
      <g>
        <rect class="cls-2" x="680.46" y="328.4" width="87.81" height="87.81"/>
        <line class="cls-1" x1="716.13" y1="358.59" x2="732.6" y2="358.59"/>
        <path class="cls-1" d="M759.21,381.34l-14.97-34.07c-3.21-3.21-8.43-3.21-11.64,0v38.76"/>
        <path class="cls-1" d="M716.13,386.03v-38.76c-3.21-3.21-8.43-3.21-11.64,0l-14.97,34.07"/>
        <circle class="cls-1" cx="702.41" cy="386.03" r="13.72"/>
        <circle class="cls-1" cx="746.32" cy="386.03" r="13.72"/>
      </g>
      <g>
        <rect class="cls-2" x="36.36" y="338.01" width="87.81" height="87.81"/>
        <path class="cls-1" d="M113.19,384.66c-1.4,16.9-15.67,30.18-32.93,30.18-18.19,0-32.93-14.74-32.93-32.93s13.28-31.53,30.18-32.93"/>
        <polyline class="cls-1" points="80.26 362.7 80.26 381.91 99.47 381.91"/>
        <circle class="cls-28" cx="91.24" cy="350.36" r="4.12"/>
        <circle class="cls-28" cx="103.59" cy="358.59" r="4.12"/>
        <circle class="cls-28" cx="111.82" cy="370.94" r="4.12"/>
      </g>
      <g>
        <rect class="cls-2" x="269.61" y="722.4" width="87.81" height="87.81"/>
        <line class="cls-1" x1="280.59" y1="744.36" x2="280.59" y2="771.8"/>
        <path class="cls-1" d="M288.82,796.49c5.39-8.26,14.1-13.72,24.7-13.72s19.31,5.46,24.7,13.72"/>
        <polygon class="cls-1" points="346.45 744.36 313.52 755.33 280.59 744.36 313.52 733.38 346.45 744.36"/>
        <path class="cls-1" d="M327.7,750.6c7.16,7.83,6.61,19.98-1.22,27.14-7.83,7.16-19.98,6.61-27.14-1.22-6.7-7.34-6.7-18.58,0-25.91"/>
      </g>
      <g>
        <rect class="cls-2" x="238.71" y="185.34" width="87.81" height="87.81"/>
        <rect class="cls-1" x="252.43" y="215.52" width="60.37" height="43.91" rx="2.74" ry="2.74"/>
        <path class="cls-1" d="M268.89,215.52v-10.98c0-7.58,6.14-13.72,13.72-13.72,6.64,0,12.45,4.71,13.72,10.98"/>
        <circle class="cls-1" cx="282.61" cy="233.36" r="6.86"/>
        <line class="cls-1" x1="282.61" y1="240.22" x2="282.61" y2="248.45"/>
      </g>
      <g>
        <rect class="cls-2" x="382.2" y="565.05" width="87.81" height="87.81"/>
        <path class="cls-1" d="M404.15,639.14c-1.52,0-2.74-1.23-2.74-2.74v-14.64c-4.79,2.27-10.52.22-12.79-4.57-2.27-4.79-.22-10.52,4.57-12.79,2.6-1.23,5.61-1.23,8.22,0v-14.64c0-1.52,1.23-2.74,2.74-2.74h16.02c-2.27-4.79-.23-10.52,4.57-12.79,4.79-2.27,10.52-.23,12.79,4.57,1.23,2.6,1.23,5.62,0,8.22h16.02c1.52,0,2.74,1.23,2.74,2.74v14.64c-4.79-2.27-10.52-.22-12.79,4.57-2.27,4.79-.22,10.52,4.57,12.79,2.6,1.23,5.61,1.23,8.22,0v14.64c0,1.52-1.23,2.74-2.74,2.74h-49.39Z"/>
      </g>
      <g>
        <rect class="cls-2" x="530.32" y="589.02" width="87.81" height="87.81"/>
        <circle class="cls-1" cx="574.22" cy="602.74" r="8.23"/>
        <path class="cls-1" d="M543.7,624.32c-4.01-1.85-2.69-7.85,1.72-7.85h57.63c4.41,0,5.73,6,1.72,7.85l-19.55,8.61,7.84,29.82c.93,2.07,0,4.51-2.07,5.44-2.03.91-4.42.04-5.39-1.96l-11.36-19.58-11.36,19.58c-.99,2.05-3.45,2.9-5.5,1.91-2.01-.97-2.87-3.36-1.96-5.39l7.84-29.82-19.55-8.61Z"/>
      </g>
      <g>
        <rect class="cls-2" x="368.43" y="189.48" width="87.81" height="87.81"/>
        <rect class="cls-1" x="384.89" y="203.2" width="21.95" height="60.37" rx="2.74" ry="2.74"/>
        <path class="cls-1" d="M443.09,260.06l-16.06,3.43c-1.48.32-2.94-.63-3.26-2.11,0,0,0-.01,0-.02l-11.38-54.11c-.32-1.49.62-2.95,2.11-3.28l16.06-3.43c1.48-.32,2.94.63,3.26,2.11,0,0,0,.01,0,.02l11.38,54.11c.32,1.49-.62,2.95-2.11,3.28Z"/>
        <line class="cls-1" x1="384.89" y1="214.18" x2="406.85" y2="214.18"/>
        <line class="cls-1" x1="384.89" y1="252.59" x2="406.85" y2="252.59"/>
        <line class="cls-1" x1="414.1" y1="215.37" x2="435.53" y2="210.77"/>
        <line class="cls-1" x1="416.38" y1="226.19" x2="437.8" y2="221.59"/>
        <line class="cls-1" x1="422.07" y1="253.26" x2="443.49" y2="248.65"/>
      </g>
      <g>
        <rect class="cls-2" x="245.15" y="587.68" width="87.81" height="87.81"/>
        <path class="cls-1" d="M289.05,617.87c0-6.06,4.91-10.98,10.98-10.98h21.95c1.52,0,2.74,1.23,2.74,2.74v43.91c0,1.52-1.23,2.74-2.74,2.74h-21.95c-6.06,0-10.98,4.91-10.98,10.98"/>
        <path class="cls-1" d="M253.38,653.54c0,1.52,1.23,2.74,2.74,2.74h21.95c6.06,0,10.98,4.91,10.98,10.98v-49.39c0-6.06-4.91-10.98-10.98-10.98h-21.95c-1.52,0-2.74,1.23-2.74,2.74v43.91Z"/>
        <line class="cls-1" x1="300.03" y1="620.61" x2="313.75" y2="620.61"/>
        <line class="cls-1" x1="300.03" y1="631.59" x2="313.75" y2="631.59"/>
        <line class="cls-1" x1="300.03" y1="642.56" x2="313.75" y2="642.56"/>
      </g>
      <g>
        <g>
          <g>
            <path class="cls-25" d="M184.28,348.87c0-6.93,3.36-10.26,9.27-10.26s9.27,3.33,9.27,10.26-3.36,10.23-9.27,10.23-9.27-3.39-9.27-10.23ZM187.79,348.87c0,4.82,1.9,7.19,5.76,7.19s5.76-2.37,5.76-7.19-1.9-7.22-5.76-7.22-5.76,2.37-5.76,7.22Z"/>
            <path class="cls-25" d="M211.87,351.03v6.2c0,.94-.76,1.7-1.7,1.7s-1.7-.76-1.7-1.7v-16.52c0-.94.76-1.7,1.7-1.7h5.59c3.42,0,6.14,1.9,6.14,5.99s-2.66,6.02-6.14,6.02h-3.89ZM211.87,342.05v5.94h3.63c1.81,0,2.89-1.08,2.89-2.98s-1.11-2.95-2.89-2.95h-3.63Z"/>
            <path class="cls-25" d="M230.94,347.29h5.53c.82,0,1.49.67,1.49,1.49s-.67,1.49-1.49,1.49h-5.53v5.38h7.75c.85,0,1.52.67,1.52,1.52s-.67,1.52-1.52,1.52h-9.45c-.94,0-1.7-.76-1.7-1.7v-16.29c0-.94.76-1.7,1.7-1.7h9.12c.85,0,1.52.67,1.52,1.52s-.67,1.52-1.52,1.52h-7.43v5.23Z"/>
            <path class="cls-25" d="M260.61,340.44v16.81c0,.91-.76,1.67-1.67,1.67-.56,0-1.08-.29-1.37-.73l-8.63-12.46v11.52c0,.91-.76,1.67-1.67,1.67s-1.67-.76-1.67-1.67v-16.81c0-.91.76-1.67,1.67-1.67.58,0,1.05.26,1.34.7l8.66,12.55v-11.58c0-.91.76-1.67,1.67-1.67s1.67.76,1.67,1.67Z"/>
          </g>
          <g>
            <path class="cls-25" d="M324.78,341.64c-2.43,0-3.33,1.14-3.33,2.31,0,3.83,10.67,2.05,10.67,9.36,0,3.57-2.51,5.79-7.34,5.79-3.48,0-6.26-1.72-7.4-3.57-.15-.23-.23-.53-.23-.82,0-.88.7-1.58,1.55-1.58.64,0,.99.35,1.29.64,1.23,1.23,2.78,2.22,4.8,2.22,2.66,0,3.95-.88,3.95-2.69,0-4.27-10.67-2.31-10.67-9.36,0-2.9,2.08-5.35,6.73-5.35,2.92,0,5.47,1.08,6.64,2.75.18.26.29.58.29.94,0,.85-.7,1.55-1.58,1.55-.41,0-.82-.23-1.26-.64-.91-.88-2.43-1.55-4.09-1.55Z"/>
            <path class="cls-25" d="M345.51,354.77l-4.59-8.16v10.64c0,.91-.76,1.67-1.67,1.67s-1.67-.76-1.67-1.67v-16.81c0-.91.76-1.67,1.67-1.67.73,0,1.2.41,1.49.94l6.2,11.11,6.2-11.11c.29-.53.76-.94,1.49-.94.91,0,1.67.76,1.67,1.67v16.81c0,.91-.76,1.67-1.67,1.67s-1.67-.76-1.67-1.67v-10.64l-4.59,8.16c-.29.53-.85.82-1.43.82s-1.14-.29-1.43-.82Z"/>
            <path class="cls-25" d="M366.56,353.57l-1.78,4.24c-.26.61-.82,1.11-1.58,1.11-.91,0-1.67-.76-1.67-1.67,0-.18.03-.41.12-.61l6.9-16.81c.18-.41.64-1.05,1.55-1.05s1.37.64,1.55,1.05l6.9,16.81c.09.2.12.44.12.61,0,.91-.76,1.67-1.67,1.67-.76,0-1.32-.5-1.58-1.11l-1.78-4.24h-7.08ZM370.1,344.33l-2.4,6.14h4.79l-2.4-6.14Z"/>
            <path class="cls-25" d="M387.28,351.15v6.08c0,.94-.76,1.7-1.7,1.7s-1.7-.76-1.7-1.7v-16.52c0-.94.76-1.7,1.7-1.7h5.58c3.95,0,6.17,2.81,6.17,6.11,0,2.78-1.7,5.47-4.5,5.82l4.33,5.26c.26.35.35.7.35,1.02,0,.94-.76,1.7-1.7,1.7-.5,0-1.02-.23-1.32-.61l-5.32-7.16h-1.9ZM387.28,342.05v6.11h3.95c1.81,0,2.6-1.49,2.6-3.04s-.79-3.07-2.69-3.07h-3.86Z"/>
            <path class="cls-25" d="M410.97,341.99v15.24c0,.94-.76,1.7-1.7,1.7s-1.7-.76-1.7-1.7v-15.24h-4.47c-.82,0-1.49-.67-1.49-1.49s.67-1.49,1.49-1.49h12.34c.82,0,1.49.67,1.49,1.49s-.67,1.49-1.49,1.49h-4.47Z"/>
          </g>
          <g>
            <path class="cls-25" d="M475.18,357.23c0,.94-.76,1.7-1.7,1.7s-1.7-.76-1.7-1.7v-16.76c0-.94.76-1.7,1.7-1.7s1.7.76,1.7,1.7v16.76Z"/>
            <path class="cls-25" d="M496.47,340.44v16.81c0,.91-.76,1.67-1.67,1.67-.56,0-1.08-.29-1.37-.73l-8.63-12.46v11.52c0,.91-.76,1.67-1.67,1.67s-1.67-.76-1.67-1.67v-16.81c0-.91.76-1.67,1.67-1.67.58,0,1.05.26,1.34.7l8.66,12.55v-11.58c0-.91.76-1.67,1.67-1.67s1.67.76,1.67,1.67Z"/>
            <path class="cls-25" d="M510.97,341.99v15.24c0,.94-.76,1.7-1.7,1.7s-1.7-.76-1.7-1.7v-15.24h-4.47c-.82,0-1.49-.67-1.49-1.49s.67-1.49,1.49-1.49h12.34c.82,0,1.49.67,1.49,1.49s-.67,1.49-1.49,1.49h-4.47Z"/>
            <path class="cls-25" d="M522.22,352.26v-11.78c0-.94.76-1.7,1.7-1.7s1.7.76,1.7,1.7v11.78c0,1.78.67,3.86,3.98,3.86s3.98-2.08,3.98-3.86v-11.78c0-.94.76-1.7,1.7-1.7s1.7.76,1.7,1.7v11.78c0,3.33-1.46,6.84-7.37,6.84s-7.37-3.51-7.37-6.84Z"/>
            <path class="cls-25" d="M546.63,357.23c0,.94-.76,1.7-1.7,1.7s-1.7-.76-1.7-1.7v-16.76c0-.94.76-1.7,1.7-1.7s1.7.76,1.7,1.7v16.76Z"/>
            <path class="cls-25" d="M561.28,341.99v15.24c0,.94-.76,1.7-1.7,1.7s-1.7-.76-1.7-1.7v-15.24h-4.47c-.82,0-1.49-.67-1.49-1.49s.67-1.49,1.49-1.49h12.34c.82,0,1.49.67,1.49,1.49s-.67,1.49-1.49,1.49h-4.47Z"/>
            <path class="cls-25" d="M575.92,357.23c0,.94-.76,1.7-1.7,1.7s-1.7-.76-1.7-1.7v-16.76c0-.94.76-1.7,1.7-1.7s1.7.76,1.7,1.7v16.76Z"/>
            <path class="cls-25" d="M587.91,357.84l-6.64-16.73c-.09-.2-.12-.38-.12-.64,0-.94.76-1.7,1.7-1.7.85,0,1.37.53,1.55.99l5.09,13.48,5.09-13.48c.18-.44.7-.99,1.55-.99.94,0,1.7.76,1.7,1.7,0,.26-.03.44-.12.64l-6.64,16.73c-.23.58-.7,1.08-1.58,1.08s-1.34-.5-1.58-1.08Z"/>
            <path class="cls-25" d="M606.44,347.29h5.53c.82,0,1.49.67,1.49,1.49s-.67,1.49-1.49,1.49h-5.53v5.38h7.75c.85,0,1.52.67,1.52,1.52s-.67,1.52-1.52,1.52h-9.44c-.94,0-1.7-.76-1.7-1.7v-16.29c0-.94.76-1.7,1.7-1.7h9.12c.85,0,1.52.67,1.52,1.52s-.67,1.52-1.52,1.52h-7.43v5.23Z"/>
          </g>
          <circle class="cls-25" cx="289.5" cy="348.13" r="6.07"/>
          <circle class="cls-25" cx="443.48" cy="348.13" r="6.07"/>
        </g>
        <g class="cls-35">
          <rect class="cls-30" x="278.78" y="378.22" width="126.23" height="160.2" transform="translate(-131.39 137.47) rotate(-19.14)"/>
        </g>
        <g class="cls-31">
          <rect class="cls-24" x="379.31" y="392.76" width="51.42" height="126.62" transform="translate(-127.17 158.04) rotate(-19.14)"/>
        </g>
        <g class="cls-38">
          <rect class="cls-5" x="402.31" y="367.78" width="214.78" height="216.45" transform="translate(-127.92 193.48) rotate(-19.14)"/>
        </g>
        <g class="cls-36">
          <rect class="cls-12" x="509.92" y="392.75" width="51.3" height="126.28" transform="translate(-119.89 200.85) rotate(-19.14)"/>
        </g>
        <g class="cls-40">
          <rect class="cls-20" x="533.78" y="378.22" width="126.23" height="160.2" transform="translate(-117.29 221.09) rotate(-19.14)"/>
        </g>
        <g class="cls-33">
          <rect class="cls-29" x="196.38" y="426" width="59.8" height="59.8" transform="translate(-136.99 99.42) rotate(-19.14)"/>
        </g>
        <g class="cls-34">
          <rect class="cls-23" x="143.2" y="372.82" width="166.15" height="166.15" transform="translate(-136.99 99.42) rotate(-19.14)"/>
        </g>
      </g>
      <g>
        <rect class="cls-2" x="343.95" y="801.16" width="87.81" height="87.81"/>
        <path class="cls-1" d="M376.88,872.5h-8.23c-10.61-.01-19.2-8.62-19.18-19.23.01-10.61,8.62-19.2,19.23-19.18,1.59,0,3.18.2,4.73.6"/>
        <path class="cls-1" d="M371.39,845.06c0-15.16,12.29-27.44,27.44-27.44s27.44,12.29,27.44,27.44c0,5.94-1.93,11.71-5.49,16.46"/>
        <polyline class="cls-1" points="385.11 861.53 396.08 872.5 407.06 861.53"/>
        <line class="cls-1" x1="396.08" y1="845.06" x2="396.08" y2="872.5"/>
      </g>
      <g>
        <rect class="cls-2" x="655.13" y="233.83" width="87.81" height="87.81"/>
        <rect class="cls-1" x="663.36" y="253.04" width="71.35" height="13.72" rx="2.74" ry="2.74"/>
        <path class="cls-1" d="M729.22,266.76v32.93c0,1.52-1.23,2.74-2.74,2.74h-54.88c-1.52,0-2.74-1.23-2.74-2.74v-32.93"/>
        <line class="cls-1" x1="690.8" y1="280.48" x2="707.27" y2="280.48"/>
      </g>
      <g>
        <rect class="cls-2" x="43.13" y="453.92" width="87.81" height="87.81"/>
        <rect class="cls-1" x="56.85" y="467.64" width="60.37" height="60.37" rx="2.74" ry="2.74"/>
        <line class="cls-1" x1="103.5" y1="462.15" x2="103.5" y2="473.13"/>
        <line class="cls-1" x1="70.57" y1="462.15" x2="70.57" y2="473.13"/>
        <line class="cls-1" x1="56.85" y1="484.11" x2="117.22" y2="484.11"/>
        <polyline class="cls-1" points="73.32 497.83 78.8 495.08 78.8 517.03"/>
        <path class="cls-1" d="M90.51,497.83c1.52-2.62,4.88-3.51,7.5-1.99,2.62,1.52,3.51,4.88,1.99,7.5-.11.18-.23.36-.35.53l-9.87,13.16h10.98"/>
      </g>
      <g>
        <rect class="cls-2" x="384.6" y="70.47" width="87.81" height="87.81"/>
        <line class="cls-1" x1="417.53" y1="114.38" x2="439.49" y2="114.38"/>
        <line class="cls-1" x1="417.53" y1="125.35" x2="439.49" y2="125.35"/>
        <path class="cls-1" d="M403.81,84.19h49.39c1.52,0,2.74,1.23,2.74,2.74v52.14c0,4.55-3.69,8.23-8.23,8.23h-38.42c-4.55,0-8.23-3.69-8.23-8.23v-52.14c0-1.52,1.23-2.74,2.74-2.74Z"/>
        <line class="cls-1" x1="412.05" y1="78.71" x2="412.05" y2="89.68"/>
        <line class="cls-1" x1="428.51" y1="78.71" x2="428.51" y2="89.68"/>
        <line class="cls-1" x1="444.97" y1="78.71" x2="444.97" y2="89.68"/>
      </g>
    </g>
  </g>
</svg>