<?xml version="1.0" encoding="UTF-8"?>
<svg id="Ebene_1" data-name="Ebene 1" xmlns="http://www.w3.org/2000/svg" viewBox="0 0 1827.88 631.26">
  <defs>
    <style>
      .cls-1 {
        fill: #f3efe6;
      }

      .cls-1, .cls-2, .cls-3, .cls-4, .cls-5, .cls-6, .cls-7, .cls-8, .cls-9, .cls-10, .cls-11, .cls-12, .cls-13, .cls-14, .cls-15, .cls-16 {
        stroke-width: 0px;
      }

      .cls-2 {
        fill: #f59b27;
      }

      .cls-3 {
        fill: #efc7ac;
      }

      .cls-4 {
        fill: #f59c28;
      }

      .cls-5 {
        fill: #005f60;
      }

      .cls-17 {
        stroke-width: 4px;
      }

      .cls-17, .cls-18 {
        fill: none;
        stroke: #005f60;
        stroke-miterlimit: 10;
      }

      .cls-6 {
        fill: #f78104;
      }

      .cls-7 {
        fill: #249ea0;
      }

      .cls-8 {
        fill: #faab36;
      }

      .cls-9 {
        fill: #002a44;
      }

      .cls-10 {
        fill: #000a2e;
      }

      .cls-11 {
        fill: #e55710;
      }

      .cls-12 {
        fill: #ecdec3;
      }

      .cls-13 {
        fill: #e7530e;
      }

      .cls-14 {
        fill: #008083;
      }

      .cls-15 {
        fill: #0c3542;
      }

      .cls-16 {
        fill: #fff;
      }

      .cls-19 {
        isolation: isolate;
        opacity: .4;
      }

      .cls-18 {
        stroke-width: 3.83px;
      }
    </style>
  </defs>
  <line class="cls-17" x1="164.54" y1="325.27" x2="164.54" y2="457.13"/>
  <path class="cls-17" d="M83.35,457.13v-114.75c0-11.38,9.23-20.61,20.61-20.61h22.37"/>
  <path class="cls-17" d="M702.54,97.99v170.64c0,12.63,10.24,22.87,22.87,22.87h183.88c12.63,0,22.87-10.24,22.87-22.87V98.11c0-12.63-10.23-22.86-22.86-22.87l-183.88-.13c-12.64,0-22.89,10.23-22.89,22.87Z"/>
  <path class="cls-18" d="M509.59,94.32v177.09c0,12.1,9.81,21.91,21.91,21.91h148.84c12.1,0,21.91-9.81,21.91-21.91V94.45c0-12.09-9.8-21.9-21.89-21.91l-148.84-.12c-12.11,0-21.93,9.8-21.93,21.91Z"/>
  <path class="cls-17" d="M163.69,222.24v78.1c0,12.63,10.24,22.87,22.87,22.87h183.88c12.63,0,22.87-10.24,22.87-22.87v-77.97c0-12.63-10.23-22.86-22.86-22.87l-183.88-.13c-12.64,0-22.89,10.23-22.89,22.87Z"/>
  <g>
    <path class="cls-15" d="M193.23,589.39H52.54c-13.62,0-24.71-11.08-24.71-24.71v-63.54h190.1v63.54c0,13.62-11.08,24.71-24.71,24.71ZM33.76,507.08v57.61c0,10.35,8.42,18.78,18.78,18.78h140.68c10.35,0,18.78-8.42,18.78-18.78v-57.61H33.76Z"/>
    <g>
      <g>
        <g>
          <path class="cls-1" d="M61.59,465.08v88.78c0,11.96,9.78,21.74,21.74,21.74h.05c11.96,0,21.74-9.78,21.74-21.74v-88.78h-43.53Z"/>
          <path class="cls-4" d="M68.37,488.22v61.12c0,8.23,6.74,14.97,14.97,14.97h.04c8.23,0,14.97-6.74,14.97-14.97v-61.12h-29.97Z"/>
          <path class="cls-12" d="M97.21,465.08v88.78c0,10.62-7.72,19.5-17.81,21.37,1.28.24,2.58.38,3.93.38h.05c11.96,0,21.74-9.78,21.74-21.74v-88.78h-7.91Z"/>
        </g>
        <rect class="cls-11" x="54" y="457.13" width="58.7" height="14.2" rx="5.93" ry="5.93"/>
      </g>
      <g>
        <g>
          <path class="cls-1" d="M140.64,465.08v88.78c0,11.96,9.78,21.74,21.74,21.74h.05c11.96,0,21.74-9.78,21.74-21.74v-88.78h-43.53Z"/>
          <path class="cls-4" d="M147.42,488.22v61.12c0,8.23,6.74,14.97,14.97,14.97h.04c8.23,0,14.97-6.74,14.97-14.97v-61.12h-29.97Z"/>
          <path class="cls-12" d="M176.27,465.08v88.78c0,10.62-7.72,19.5-17.81,21.37,1.28.24,2.59.38,3.93.38h.05c11.96,0,21.74-9.78,21.74-21.74v-88.78h-7.91Z"/>
        </g>
        <path class="cls-11" d="M138.99,457.13h46.84c3.27,0,5.93,2.66,5.93,5.93v2.34c0,3.27-2.66,5.93-5.93,5.93h-46.84c-3.27,0-5.93-2.66-5.93-5.93v-2.34c0-3.27,2.66-5.93,5.93-5.93Z"/>
      </g>
    </g>
    <path class="cls-5" d="M228.68,504.11c0,4.39-4.1,7.99-9.11,7.99H26.2c-5.01,0-9.11-3.59-9.11-7.99s4.1-7.99,9.11-7.99h193.37c5.01,0,9.11,3.59,9.11,7.99Z"/>
  </g>
  <circle class="cls-14" cx="163.18" cy="320.55" r="54.75" transform="translate(-186.77 403.74) rotate(-76.39)"/>
  <g>
    <g>
      <g>
        <rect class="cls-15" x="264.29" y="232.5" width="534.38" height="336.91" rx="15.82" ry="15.82"/>
        <rect class="cls-16" x="284.8" y="252.16" width="493.35" height="297.6"/>
      </g>
      <g>
        <path class="cls-15" d="M232.8,542.5v29.08c0,9.73,7.96,17.69,17.69,17.69h561.98c9.73,0,17.69-7.96,17.69-17.69v-29.08H232.8Z"/>
        <path class="cls-5" d="M475.53,542.5v8.53c0,2.85,2.33,5.19,5.19,5.19h101.53c2.85,0,5.19-2.33,5.19-5.19v-8.53h-111.91Z"/>
      </g>
    </g>
    <g>
      <g>
        <g>
          <g>
            <path class="cls-11" d="M595.47,332.76l31.83,39.06c11.33-9.24,18.56-23.3,18.56-39.06h-50.39Z"/>
            <path class="cls-8" d="M595.47,282.37v50.39h50.39c0-27.83-22.56-50.39-50.39-50.39Z"/>
            <path class="cls-6" d="M627.3,371.82l-31.83-39.06v-50.39c-27.83,0-50.39,22.56-50.39,50.39s22.56,50.39,50.39,50.39c12.07,0,23.15-4.25,31.83-11.33h0Z"/>
          </g>
          <g>
            <g>
              <circle class="cls-5" cx="670.18" cy="295.88" r="7.47" transform="translate(-12.93 560.55) rotate(-45)"/>
              <rect class="cls-3" x="684.11" y="292.2" width="64.29" height="7.36"/>
            </g>
            <g>
              <circle class="cls-4" cx="670.18" cy="330.57" r="7.47" transform="translate(-37.46 570.71) rotate(-45)"/>
              <rect class="cls-3" x="684.11" y="326.89" width="64.29" height="7.36"/>
            </g>
            <g>
              <circle class="cls-11" cx="670.18" cy="365.26" r="7.47" transform="translate(-61.99 580.87) rotate(-45)"/>
              <rect class="cls-3" x="684.11" y="361.58" width="64.29" height="7.36"/>
            </g>
          </g>
        </g>
        <g>
          <g>
            <rect class="cls-3" x="552.82" y="401.96" width="195.58" height="7.36"/>
            <rect class="cls-3" x="552.82" y="419.3" width="195.58" height="7.36"/>
            <rect class="cls-3" x="552.82" y="436.65" width="153.06" height="7.36"/>
          </g>
          <g>
            <rect class="cls-3" x="552.82" y="471.34" width="195.58" height="7.36"/>
            <rect class="cls-3" x="552.82" y="488.69" width="195.58" height="7.36"/>
            <rect class="cls-3" x="552.82" y="506.03" width="153.06" height="7.36"/>
          </g>
        </g>
      </g>
      <g>
        <g>
          <g>
            <rect class="cls-3" x="314.56" y="287.08" width="195.58" height="7.36"/>
            <rect class="cls-3" x="314.56" y="304.42" width="195.58" height="7.36"/>
            <rect class="cls-3" x="314.56" y="321.77" width="153.06" height="7.36"/>
          </g>
          <g>
            <rect class="cls-3" x="314.56" y="356.46" width="195.58" height="7.36"/>
            <rect class="cls-3" x="314.56" y="373.81" width="195.58" height="7.36"/>
            <rect class="cls-3" x="314.56" y="391.15" width="153.06" height="7.36"/>
          </g>
        </g>
        <g>
          <rect class="cls-8" x="324.06" y="457.15" width="12.96" height="56.24"/>
          <rect class="cls-6" x="355.7" y="433.43" width="12.96" height="79.96"/>
          <rect class="cls-11" x="387.34" y="473.41" width="12.96" height="39.98"/>
          <rect class="cls-8" x="418.99" y="485.27" width="12.96" height="28.12"/>
          <rect class="cls-6" x="450.63" y="451.53" width="12.96" height="61.86"/>
          <rect class="cls-11" x="482.28" y="426.66" width="12.96" height="86.73"/>
        </g>
      </g>
    </g>
  </g>
  <g>
    <path class="cls-10" d="M344.29,74.88c-3.5.23-6.99.45-10.49.68-.5.03-1.01.07-1.51.1-.96.06-1.88.8-1.84,1.84.04.94.81,1.9,1.84,1.84,2.14-.14,4.28-.28,6.43-.42-11.07,9.39-22.14,18.79-33.2,28.18-1.02.86-2.03,1.72-3.05,2.59-1.38-4.12-2.77-8.25-4.15-12.37-.44-1.32-2.03-1.79-3.07-.81-8.83,8.33-17.67,16.65-26.5,24.98-.51.48-1.01.95-1.52,1.43-1.14-4.46-2.27-8.92-3.41-13.38-.36-1.41-2.07-1.69-3.07-.81-8.73,7.67-17.45,15.34-26.18,23.01-.51.45-1.02.9-1.54,1.35-1.34-4.22-2.69-8.44-4.03-12.66-.43-1.35-2.03-1.76-3.07-.81-6.8,6.19-13.6,12.38-20.41,18.57-.99.9-1.98,1.8-2.97,2.7-1.75,1.59.85,4.19,2.6,2.6,6.8-6.19,13.6-12.38,20.41-18.57.26-.24.53-.48.79-.72,1.34,4.2,2.68,8.4,4.02,12.61.44,1.37,2.02,1.73,3.07.81,8.73-7.67,17.45-15.34,26.18-23.01.46-.41.93-.82,1.39-1.22,1.15,4.5,2.29,9,3.44,13.5.35,1.38,2.09,1.74,3.07.81,8.83-8.33,17.67-16.65,26.5-24.98.57-.53,1.13-1.07,1.7-1.6,1.37,4.07,2.73,8.14,4.1,12.21.46,1.37,1.99,1.72,3.07.81,12.4-10.52,24.8-21.04,37.19-31.56.36-.31.72-.62,1.09-.92l-1.23,4.94c-.12.5-.25,1-.37,1.49-.23.93.3,2.04,1.28,2.26.95.22,2.01-.29,2.26-1.28.86-3.45,1.72-6.9,2.59-10.35.12-.5.25-1,.37-1.49.27-1.09-.54-2.4-1.77-2.32Z"/>
    <g>
      <rect class="cls-8" x="206.52" y="161.11" width="26.5" height="26.5"/>
      <rect class="cls-2" x="229.66" y="161.11" width="3.36" height="26.5"/>
    </g>
    <g>
      <rect class="cls-6" x="244.94" y="146.52" width="26.5" height="41.08"/>
      <rect class="cls-6" x="268.08" y="146.52" width="3.36" height="41.08"/>
    </g>
    <g>
      <rect class="cls-11" x="283.36" y="130.21" width="26.5" height="57.39"/>
      <rect class="cls-13" x="306.49" y="130.21" width="3.36" height="57.39"/>
    </g>
    <g>
      <rect class="cls-15" x="321.78" y="110.3" width="26.5" height="77.3"/>
      <rect class="cls-9" x="344.91" y="110.3" width="3.36" height="77.3"/>
    </g>
  </g>
  <g>
    <path class="cls-7" d="M951.75,485.19l-9.23-1.93c-2.06-8.25-5.32-16.02-9.59-23.13l5.16-7.9c2.42-3.71,1.84-9.31-1.29-12.44l-13.04-13.04c-3.13-3.13-8.73-3.71-12.44-1.29l-7.9,5.16c-7.11-4.26-14.88-7.52-23.13-9.59l-1.93-9.23c-.91-4.34-5.28-7.89-9.71-7.89h-18.43c-4.43,0-8.8,3.55-9.71,7.89l-1.93,9.23c-8.25,2.06-16.02,5.32-23.13,9.59l-7.9-5.16c-3.71-2.42-9.31-1.84-12.44,1.29l-13.04,13.04c-3.13,3.13-3.71,8.73-1.29,12.44l5.16,7.9c-4.26,7.11-7.52,14.88-9.59,23.13l-9.23,1.93c-4.34.91-7.89,5.28-7.89,9.71v18.44c0,4.43,3.55,8.8,7.89,9.71l9.23,1.93c2.06,8.25,5.32,16.02,9.59,23.13l-5.16,7.9c-2.42,3.71-1.84,9.31,1.29,12.44l13.04,13.04c3.13,3.13,8.73,3.71,12.44,1.29l7.9-5.16c7.11,4.26,14.88,7.52,23.13,9.59l1.93,9.23c.91,4.34,5.28,7.89,9.71,7.89h18.43c4.43,0,8.8-3.55,9.71-7.89l1.93-9.23c8.25-2.07,16.02-5.32,23.13-9.59l7.9,5.16c3.71,2.42,9.31,1.84,12.44-1.29l13.04-13.04c3.13-3.13,3.71-8.73,1.29-12.44l-5.16-7.9c4.26-7.11,7.52-14.88,9.59-23.13l9.23-1.93c4.34-.91,7.89-5.28,7.89-9.71v-18.44c0-4.43-3.55-8.8-7.89-9.71ZM859.44,551.2c-26,0-47.08-21.08-47.08-47.08s21.08-47.08,47.08-47.08,47.08,21.08,47.08,47.08-21.08,47.08-47.08,47.08Z"/>
    <path class="cls-15" d="M859.44,445.32c-32.47,0-58.79,26.32-58.79,58.79s26.32,58.79,58.79,58.79,58.79-26.32,58.79-58.79-26.32-58.79-58.79-58.79ZM859.44,551.2c-26,0-47.08-21.08-47.08-47.08s21.08-47.08,47.08-47.08,47.08,21.08,47.08,47.08-21.08,47.08-47.08,47.08Z"/>
    <path class="cls-15" d="M859.44,574.93c-39.05,0-70.81-31.77-70.81-70.81s31.77-70.81,70.81-70.81,70.81,31.77,70.81,70.81-31.77,70.81-70.81,70.81ZM859.44,434.64c-38.31,0-69.47,31.16-69.47,69.47s31.16,69.47,69.47,69.47,69.47-31.16,69.47-69.47-31.16-69.47-69.47-69.47Z"/>
  </g>
  <g>
    <circle class="cls-16" cx="877.41" cy="368.94" r="13.95" transform="translate(-3.89 728.48) rotate(-45)"/>
    <circle class="cls-16" cx="400.3" cy="139.86" r="21.65" transform="translate(41.94 366.53) rotate(-51.57)"/>
    <circle class="cls-16" cx="763.36" cy="173.79" r="21.65" transform="translate(152.77 663.8) rotate(-51.57)"/>
    <circle class="cls-16" cx="228.68" cy="72.41" r="6.68"/>
    <circle class="cls-16" cx="126.33" cy="153.75" r="6.68"/>
    <circle class="cls-16" cx="102.65" cy="208.36" r="13.95"/>
    <circle class="cls-16" cx="620.66" cy="194.41" r="6.68"/>
    <path class="cls-16" d="M224.61,412.72c0,3.69-2.99,6.68-6.68,6.68s-6.68-2.99-6.68-6.68,2.99-6.68,6.68-6.68,6.68,2.99,6.68,6.68Z"/>
  </g>
  <circle class="cls-14" cx="702.54" cy="75.1" r="54.75" transform="translate(464.28 740.26) rotate(-76.39)"/>
  <circle class="cls-14" cx="510.14" cy="148.95" r="54.75" transform="translate(245.36 609.73) rotate(-76.39)"/>
  <circle class="cls-14" cx="928.91" cy="287.08" r="54.75" transform="translate(431.35 1122.38) rotate(-76.39)"/>
  <g>
    <g class="cls-19">
      <path class="cls-16" d="M912.08,274.6v-2.1h33.67v2.1c0,9.3-7.54,16.83-16.83,16.83s-16.83-7.54-16.83-16.83Z"/>
    </g>
    <path class="cls-16" d="M914.17,296.65c1.38-.45,2.87.05,3.87,1.12l9.34,9.93c.83.88,2.24.88,3.06,0l9.34-9.93c1-1.07,2.49-1.57,3.87-1.12,8.55,2.75,14.73,10.75,14.73,20.2,0,2.24-1.82,4.04-4.04,4.04h-50.85c-2.22,0-4.04-1.81-4.04-4.04,0-9.46,6.18-17.45,14.72-20.2h0ZM928.29,253.62c.41-.08.83-.08,1.24,0l26.3,5.26c1.47.29,2.54,1.59,2.54,3.09s-1.07,2.8-2.54,3.09l-10.09,2.03v5.41h-33.67v-5.41l-6.31-1.26v8.56l2.06,10.31c.12.62-.04,1.26-.43,1.75-.39.49-1,.78-1.63.78h-4.21c-.63,0-1.22-.28-1.63-.78s-.57-1.13-.43-1.75l2.06-10.31v-9.44c-1.25-.43-2.1-1.62-2.1-2.97,0-1.5,1.07-2.8,2.54-3.09l26.3-5.26Z"/>
  </g>
  <g>
    <g class="cls-19">
      <path class="cls-16" d="M681.43,93.46c0-2.33,1.88-4.21,4.21-4.21h42.09v8.42h-42.09c-2.33,0-4.21-1.88-4.21-4.21Z"/>
    </g>
    <path class="cls-16" d="M689.85,66.1c0,1.16.95,2.1,2.1,2.1h25.25c1.16,0,2.1-.95,2.1-2.1s-.95-2.1-2.1-2.1h-25.25c-1.16,0-2.1.95-2.1,2.1ZM691.95,55.58c-1.16,0-2.1.95-2.1,2.1s.95,2.1,2.1,2.1h25.25c1.16,0,2.1-.95,2.1-2.1s-.95-2.1-2.1-2.1h-25.25ZM673.01,51.37c0-6.97,5.66-12.63,12.63-12.63h42.09c2.33,0,4.21,1.88,4.21,4.21v42.09c0,2.33-1.88,4.21-4.21,4.21h-42.09c-2.33,0-4.21,1.88-4.21,4.21s1.88,4.21,4.21,4.21h42.09c2.33,0,4.21,1.88,4.21,4.21s-1.88,4.21-4.21,4.21h-42.09c-6.97,0-12.63-5.66-12.63-12.63v-42.09Z"/>
  </g>
  <g>
    <g class="cls-19">
      <path class="cls-16" d="M146.42,335.93c0-1.77,1.43-3.2,3.2-3.2s3.2,1.43,3.2,3.2-1.43,3.2-3.2,3.2-3.2-1.43-3.2-3.2ZM177.34,333.8c1.17,0,2.13.96,2.13,2.13s-.96,2.13-2.13,2.13h-17.06c-1.17,0-2.13-.96-2.13-2.13s.96-2.13,2.13-2.13h17.06ZM162.41,323.14c0-1.17.96-2.13,2.13-2.13h12.8c1.17,0,2.13.96,2.13,2.13s-.96,2.13-2.13,2.13h-12.8c-1.17,0-2.13-.96-2.13-2.13ZM161.8,313.09c.83.83.83,2.19,0,3.01l-8.53,8.53c-.83.83-2.19.83-3.01,0l-4.27-4.27c-.83-.83-.83-2.19,0-3.01s2.19-.83,3.01,0l2.75,2.77,7.02-7.02c.83-.83,2.19-.83,3.01,0h.01ZM151.91,291.45c.01-.11.04-.21.05-.31h-6.61c-4.71,0-8.53,3.83-8.53,8.53v42.65c0,4.71,3.83,8.53,8.53,8.53h34.12c4.71,0,8.53-3.83,8.53-8.53v-42.65c0-4.71-3.83-8.53-8.53-8.53h-6.61c.03.11.04.21.05.31,2.57.84,4.43,3.25,4.43,6.09v3.2c0,1.77-1.43,3.2-3.2,3.2h-23.46c-1.77,0-3.2-1.43-3.2-3.2v-3.2c0-2.84,1.85-5.25,4.43-6.09Z"/>
    </g>
    <path class="cls-16" d="M146.42,335.93c0-1.77,1.43-3.2,3.2-3.2s3.2,1.43,3.2,3.2-1.43,3.2-3.2,3.2-3.2-1.43-3.2-3.2ZM161.79,313.1c.83.83.83,2.19,0,3.01l-8.53,8.53c-.83.83-2.19.83-3.01,0l-4.27-4.27c-.83-.83-.83-2.19,0-3.01.83-.83,2.19-.83,3.01,0l2.76,2.76,7.02-7.02c.83-.83,2.19-.83,3.01,0ZM165.61,293.28c0-1.77-1.43-3.2-3.2-3.2s-3.2,1.43-3.2,3.2,1.43,3.2,3.2,3.2,3.2-1.43,3.2-3.2ZM151.91,291.45c.85-5.01,5.24-8.84,10.5-8.84s9.65,3.83,10.5,8.84c2.57.84,4.43,3.25,4.43,6.09v3.2c0,1.77-1.43,3.2-3.2,3.2h-23.46c-1.77,0-3.2-1.43-3.2-3.2v-3.2c0-2.84,1.85-5.25,4.43-6.09Z"/>
  </g>
  <g>
    <g class="cls-19">
      <path class="cls-16" d="M492.01,137.99h-8.53v30.43c-.08.04-.16.09-.23.15l-6.4,4.27c-1.56,1.04-2.27,2.99-1.72,4.79.55,1.8,2.2,3.03,4.08,3.03h59.72c1.88,0,3.53-1.23,4.08-3.03.55-1.8-.15-3.75-1.72-4.79l-6.4-4.27c-.08-.05-.16-.09-.24-.15v-30.43h-8.52v29.86h-5.33v-29.86h-8.53v29.86h-6.4v-29.86h-8.53v29.86h-5.33v-29.86Z"/>
    </g>
    <path class="cls-16" d="M509.07,120.92c2.36,0,4.27,1.91,4.27,4.27s-1.91,4.27-4.27,4.27-4.27-1.91-4.27-4.27,1.91-4.27,4.27-4.27ZM510.75,112.74c-1.07-.45-2.29-.45-3.36,0l-29.86,12.8c-1.87.8-2.91,2.8-2.49,4.77s2.15,3.41,4.17,3.41v1.07c0,1.77,1.43,3.2,3.2,3.2h53.32c1.77,0,3.2-1.43,3.2-3.2v-1.07c2.03,0,3.77-1.43,4.17-3.41.4-1.99-.64-3.99-2.49-4.77l-29.86-12.8Z"/>
  </g>
</svg>