<?xml version="1.0" encoding="UTF-8"?>
<svg id="Ebene_1" data-name="Ebene 1" xmlns="http://www.w3.org/2000/svg" xmlns:xlink="http://www.w3.org/1999/xlink" version="1.1" viewBox="0 0 201.2 71.5">
  <defs>
    <style>
      .cls-1 {
        fill: url(#Unbenannter_Verlauf);
      }

      .cls-1, .cls-2, .cls-3, .cls-4, .cls-5, .cls-6, .cls-7, .cls-8, .cls-9, .cls-10, .cls-11 {
        stroke-width: 0px;
      }

      .cls-2 {
        fill: #e95709;
      }

      .cls-3 {
        fill: url(#Unbenannter_Verlauf_7);
      }

      .cls-4 {
        fill: url(#Unbenannter_Verlauf_8);
      }

      .cls-5 {
        fill: url(#Unbenannter_Verlauf_5);
      }

      .cls-6 {
        fill: url(#Unbenannter_Verlauf_9);
      }

      .cls-7 {
        fill: url(#Unbenannter_Verlauf_6);
      }

      .cls-8 {
        fill: url(#Unbenannter_Verlauf_4);
      }

      .cls-9 {
        fill: url(#Unbenannter_Verlauf_3);
      }

      .cls-10 {
        fill: url(#Unbenannter_Verlauf_2);
      }

      .cls-11 {
        fill: url(#Unbenannter_Verlauf_10);
      }

      .cls-12 {
        isolation: isolate;
      }
    </style>
    <linearGradient id="Unbenannter_Verlauf" data-name="Unbenannter Verlauf" x1="3.9" y1="43.8" x2="177.4" y2="82.3" gradientTransform="translate(0 74) scale(1 -1)" gradientUnits="userSpaceOnUse">
      <stop offset="0" stop-color="#faab36"/>
      <stop offset=".5" stop-color="#f78104"/>
      <stop offset=".9" stop-color="#e95709"/>
    </linearGradient>
    <linearGradient id="Unbenannter_Verlauf_2" data-name="Unbenannter Verlauf 2" x1="8.2" y1="24.5" x2="181.7" y2="63" gradientTransform="translate(0 74) scale(1 -1)" gradientUnits="userSpaceOnUse">
      <stop offset="0" stop-color="#faab36"/>
      <stop offset=".5" stop-color="#f78104"/>
      <stop offset=".9" stop-color="#e95709"/>
    </linearGradient>
    <linearGradient id="Unbenannter_Verlauf_3" data-name="Unbenannter Verlauf 3" x1="5.9" y1="35" x2="179.3" y2="73.5" gradientTransform="translate(0 74) scale(1 -1)" gradientUnits="userSpaceOnUse">
      <stop offset="0" stop-color="#faab36"/>
      <stop offset=".5" stop-color="#f78104"/>
      <stop offset=".9" stop-color="#e95709"/>
    </linearGradient>
    <linearGradient id="Unbenannter_Verlauf_4" data-name="Unbenannter Verlauf 4" x1="5.9" y1="35" x2="179.3" y2="73.5" gradientTransform="translate(0 74) scale(1 -1)" gradientUnits="userSpaceOnUse">
      <stop offset="0" stop-color="#faab36"/>
      <stop offset=".5" stop-color="#f78104"/>
      <stop offset=".9" stop-color="#e95709"/>
    </linearGradient>
    <linearGradient id="Unbenannter_Verlauf_5" data-name="Unbenannter Verlauf 5" x1="14.1" y1="11.5" x2="187.6" y2="50" gradientTransform="translate(0 74) scale(1 -1)" gradientUnits="userSpaceOnUse">
      <stop offset="0" stop-color="#faab36"/>
      <stop offset=".5" stop-color="#f78104"/>
      <stop offset=".9" stop-color="#e95709"/>
    </linearGradient>
    <linearGradient id="Unbenannter_Verlauf_6" data-name="Unbenannter Verlauf 6" x1="13.6" y1="13.5" x2="187.1" y2="52" gradientTransform="translate(0 74) scale(1 -1)" gradientUnits="userSpaceOnUse">
      <stop offset="0" stop-color="#faab36"/>
      <stop offset=".5" stop-color="#f78104"/>
      <stop offset=".9" stop-color="#e95709"/>
    </linearGradient>
    <linearGradient id="Unbenannter_Verlauf_7" data-name="Unbenannter Verlauf 7" x1="15.4" y1="5.7" x2="188.8" y2="44.2" gradientTransform="translate(0 74) scale(1 -1)" gradientUnits="userSpaceOnUse">
      <stop offset="0" stop-color="#faab36"/>
      <stop offset=".5" stop-color="#f78104"/>
      <stop offset=".9" stop-color="#e95709"/>
    </linearGradient>
    <linearGradient id="Unbenannter_Verlauf_8" data-name="Unbenannter Verlauf 8" x1="11.3" y1="24.1" x2="184.8" y2="62.6" gradientTransform="translate(0 74) scale(1 -1)" gradientUnits="userSpaceOnUse">
      <stop offset="0" stop-color="#faab36"/>
      <stop offset=".5" stop-color="#f78104"/>
      <stop offset=".9" stop-color="#e95709"/>
    </linearGradient>
    <linearGradient id="Unbenannter_Verlauf_9" data-name="Unbenannter Verlauf 9" x1="16.2" y1="2.1" x2="189.6" y2="40.6" gradientTransform="translate(0 74) scale(1 -1)" gradientUnits="userSpaceOnUse">
      <stop offset="0" stop-color="#faab36"/>
      <stop offset=".5" stop-color="#f78104"/>
      <stop offset=".9" stop-color="#e95709"/>
    </linearGradient>
    <linearGradient id="Unbenannter_Verlauf_10" data-name="Unbenannter Verlauf 10" x1="-29.7" y1="13.3" x2="259.3" y2="77.4" gradientTransform="translate(0 74) scale(1 -1)" gradientUnits="userSpaceOnUse">
      <stop offset="0" stop-color="#faab36"/>
      <stop offset=".5" stop-color="#f78104"/>
      <stop offset=".9" stop-color="#e95709"/>
    </linearGradient>
  </defs>
  <g>
    <path class="cls-1" d="M15.6,33.9h-7.6c-.6,0-1,.5-1,1v11.1c0,.6-.5,1-1,1h-.3c-.6,0-1-.5-1-1V13.4c0-.6.5-1,1-1h11.8c1.2,0,2.4.1,3.6.5,1.7.5,3.1,1.4,4.4,2.7,1,1,1.8,2.2,2.3,3.5s.8,2.7.8,4.1-.3,2.8-.8,4.1c-.5,1.3-1.3,2.5-2.3,3.5-1.6,1.6-3.5,2.6-5.5,3-.5,0-3.7.2-4.2.2h0ZM7,30.5c0,.6.5,1,1,1h9.7c1.1,0,2.2-.2,3.2-.6s1.9-1,2.7-1.8,1.4-1.7,1.8-2.7c.4-1,.6-2.1.6-3.1s-.2-2.2-.6-3.2-1-1.9-1.8-2.7c-.8-.8-1.7-1.4-2.7-1.8-1-.4-2.1-.6-3.2-.6h-9.7c-.6,0-1,.5-1,1,0,0,0,14.7,0,14.7Z"/>
    <path class="cls-10" d="M110.6,12.4h-17.6c-.7,0-1.2.5-1.2,1.2s.5,1.2,1.2,1.2h7.6v31.1c0,.7.5,1.2,1.2,1.2s1.2-.5,1.2-1.2V14.8h7.6c.7,0,1.2-.5,1.2-1.2s-.5-1.2-1.2-1.2h0Z"/>
    <circle class="cls-9" cx="47.7" cy="29.7" r="6.2"/>
    <path class="cls-8" d="M47.7,14.7c8.3,0,15,6.7,15,15s-6.7,15-15,15-15-6.7-15-15,6.7-15,15-15M47.7,12.4c-9.6,0-17.3,7.8-17.3,17.3s7.8,17.3,17.3,17.3,17.3-7.8,17.3-17.3-7.8-17.3-17.3-17.3h0Z"/>
    <path class="cls-5" d="M142.1,21.6c-6.6,0-13.6,4.4-13.6,16.7s3.2,9.2,9.2,9.2c10.1,0,13.6-8.6,13.6-16.7s-3.2-9.2-9.2-9.2ZM138,45.3c-4.7,0-7-2.3-7-7,0-7,2.9-14.5,10.9-14.5s7,2.3,7,7c0,7-2.9,14.5-10.9,14.5Z"/>
    <path class="cls-7" d="M161.2,8.9c-.6,0-1.1.4-1.3,1.1l-5.5,31.1c-.1.6-.2,1.2-.2,1.8,0,2.8,1.6,4.3,4.4,4.3s1.3-.5,1.3-1.2-.4-1-1-1c-1.6,0-2.2-.6-2.2-2.3s0-.9.1-1.5l5.5-31.1c0-.3,0-.6-.2-.9-.2-.3-.5-.4-.9-.4h0Z"/>
    <path class="cls-3" d="M169.4,21.9c-.7,0-1.3.5-1.4,1.1l-4.1,22.9c0,.3,0,.7.2.9.2.3.5.4.9.4.7,0,1.2-.5,1.3-1.1l4.1-22.9h0c0-.4,0-.7-.3-.9-.2-.2-.5-.4-.8-.4h0Z"/>
    <path class="cls-4" d="M171.2,13c-1,0-1.6.7-1.6,1.9s.1,1.1,1.2,1.1,1.6-.7,1.6-1.9-.1-1.1-1.2-1.1Z"/>
    <path class="cls-6" d="M186.5,21.6c-6.6,0-13.6,4.4-13.6,16.7s3.2,9.2,9.2,9.2c10.1,0,13.6-8.6,13.6-16.7s-3.2-9.2-9.2-9.2ZM182.4,45.3c-4.7,0-7-2.3-7-7,0-7,2.9-14.5,10.9-14.5s7,2.3,7,7c0,7-2.9,14.5-10.9,14.5Z"/>
    <path class="cls-11" d="M131.3,10.3c-5.8,0-9.7,3.3-10.7,9.1l-.4,2.5c0,.2-.2.4-.5.4h-2.2c-.6,0-1.2.6-1.2,1.2s.4,1,1,1h1.8c.3,0,.6.3.5.6-.3,2.1-1.6,9.4-2.3,13.6-.2,1.4-.6,2.7-1.1,4-.5,1.5-1.2,2.8-1.9,4-1,1.7-2.2,3.1-3.6,4.4,0,0,0,0,0,0-1.3,1.2-2.8,2.2-4.3,2.8-.1,0-.3.1-.4.2-.2,0-.4.2-.6.2-.3.1-.6.2-.9.3,0,0-.1,0-.2,0-.4.1-.8.2-1.2.3h0c-.5,0-.9.2-1.4.2-.2,0-.3,0-.5,0-.3,0-.6,0-.9,0s-.6,0-.9,0c-.2,0-.3,0-.5,0-.5,0-.9-.1-1.4-.2h0c-.4,0-.8-.2-1.2-.3s-.1,0-.2,0c-.3,0-.6-.2-.9-.3-.2,0-.4-.2-.6-.2-.1,0-.3-.1-.4-.2-1.5-.7-2.9-1.6-4.3-2.8,0,0,0,0,0,0-1.4-1.2-2.6-2.7-3.6-4.4-1.1-1.8-2-3.9-2.6-6.2-.5-1.8-.8-3.5-.9-5.3,0-.7.4-1.3,1.1-1.5,2-.4,3.7-1.4,5.2-2.9,1-1,1.8-2.2,2.3-3.5.5-1.3.8-2.7.8-4.1s-.3-2.8-.8-4.1c-.5-1.3-1.3-2.5-2.3-3.5-1.2-1.2-2.6-2-4.2-2.6-1.2-.4-2.6-.6-3.9-.6h-11.2c-.8,0-1.5.7-1.5,1.5v32.1c0,.6.5,1,1,1h.3c.6,0,1-.5,1-1v-10.6c0-.8.7-1.5,1.5-1.5h6.6c.8,0,1.5.6,1.5,1.4.1,1.9.4,3.8.9,5.8.7,2.5,1.6,4.8,2.9,6.9,1.2,1.9,2.5,3.5,4,4.9,0,0,0,0,0,0,0,0,0,0,.1,0,0,0,0,0,0,0,0,0,.2.1.2.2.3.2.6.5.8.7.1,0,.3.2.4.3.3.2.6.4.9.7,0,0,.1,0,.2.1,1.3.8,2.8,1.5,4.2,2,0,0,0,0,.1,0,.5.2,1,.3,1.6.4,1.1.2,2.2.3,3.4.3h0c1.2,0,2.3-.1,3.4-.3.5-.1,1.1-.2,1.6-.4,0,0,0,0,.1,0,1.5-.5,2.9-1.1,4.2-2,0,0,.1,0,.2-.1.3-.2.6-.4.9-.7.1,0,.3-.2.4-.3.3-.2.6-.5.8-.7,0,0,.2-.1.2-.2,0,0,0,0,0,0,0,0,0,0,.1,0,0,0,0,0,0,0,1.5-1.4,2.9-3,4-4.9.4-.7.8-1.4,1.1-2.2,1-2.2,1.7-4.5,2.1-6.9.8-4.5,2.1-12.1,2.4-13.9,0-.2.2-.4.5-.4h5.4c.6,0,1.2-.6,1.2-1.2s-.4-1-1-1h-5c-.3,0-.6-.3-.5-.6l.4-2.2c.6-3.2,2.4-7,8.1-7s1.3-.5,1.3-1.2-.4-1-1-1h0ZM72,31.5c-.8,0-1.5-.7-1.5-1.5v-13.6c0-.9.7-1.5,1.5-1.5h9.2c.5,0,1.1,0,1.6.1,1.7.4,3.1,1.1,4.3,2.3.8.8,1.4,1.7,1.8,2.7.4,1,.6,2.1.6,3.2s-.2,2.1-.6,3.1-1,1.9-1.8,2.7c-1.2,1.2-2.6,2-4.3,2.3-.5.1-1.1.1-1.6.1h-9.2Z"/>
  </g>
  <g class="cls-12">
    <g class="cls-12">
      <path class="cls-2" d="M135.2,59.8c0,2.3-1.1,3.3-3,3.3s-2.9-.9-2.9-2.8v-6.5c0-.4.3-.7.7-.7s.7.3.7.7v3.2c.3-.3.9-.6,1.5-.6,1.7,0,2.8,1.1,2.8,3.3ZM130.9,60.4c0,1,.6,1.5,1.4,1.5s1.5-.7,1.5-2-.5-2.1-1.5-2.1-1.4.7-1.4.7v1.9Z"/>
    </g>
    <g class="cls-12">
      <path class="cls-2" d="M139.2,62.5l-2.1-4.9c0,0,0-.2,0-.3,0-.4.3-.7.7-.7s.6.3.7.5l1.5,3.8,1.5-3.8c0-.2.3-.5.7-.5s.7.3.7.7,0,.2,0,.3l-2.6,5.8c-.6,1.4-1.5,2.3-2.9,2.3s-.7-.3-.7-.7.3-.7.7-.7c.9,0,1.3-.7,1.8-1.8Z"/>
      <path class="cls-2" d="M149.4,58.3c0-3.3,1.6-4.9,4.4-4.9s4.4,1.6,4.4,4.9-1.6,4.8-4.4,4.8-4.4-1.6-4.4-4.8ZM151.1,58.3c0,2.3.9,3.4,2.7,3.4s2.7-1.1,2.7-3.4-.9-3.4-2.7-3.4-2.7,1.1-2.7,3.4Z"/>
      <path class="cls-2" d="M164.1,54.9c-1.1,0-1.6.5-1.6,1.1,0,1.8,5.1,1,5.1,4.4s-1.2,2.7-3.5,2.7-3-.8-3.5-1.7c0-.1-.1-.2-.1-.4,0-.4.3-.7.7-.7s.5.2.6.3c.6.6,1.3,1.1,2.3,1.1s1.9-.4,1.9-1.3c0-2-5.1-1.1-5.1-4.4s1-2.5,3.2-2.5,2.6.5,3.1,1.3c0,.1.1.3.1.4,0,.4-.3.7-.7.7s-.4-.1-.6-.3c-.4-.4-1.1-.7-1.9-.7Z"/>
      <path class="cls-2" d="M171.8,62.3c0,.4-.4.8-.8.8s-.8-.4-.8-.8v-7.9c0-.4.4-.8.8-.8s.8.4.8.8v7.9Z"/>
      <path class="cls-2" d="M176.5,59.4v2.9c0,.4-.4.8-.8.8s-.8-.4-.8-.8v-7.8c0-.4.4-.8.8-.8h2.6c1.9,0,2.9,1.3,2.9,2.9s-.8,2.6-2.1,2.8l2,2.5c.1.2.2.3.2.5,0,.4-.4.8-.8.8s-.5-.1-.6-.3l-2.5-3.4h-.9ZM176.5,55.1v2.9h1.9c.9,0,1.2-.7,1.2-1.4s-.4-1.5-1.3-1.5h-1.8Z"/>
      <path class="cls-2" d="M185.6,62.3c0,.4-.4.8-.8.8s-.8-.4-.8-.8v-7.9c0-.4.4-.8.8-.8s.8.4.8.8v7.9Z"/>
      <path class="cls-2" d="M191.8,54.9c-1.1,0-1.6.5-1.6,1.1,0,1.8,5.1,1,5.1,4.4s-1.2,2.7-3.5,2.7-3-.8-3.5-1.7c0-.1-.1-.2-.1-.4,0-.4.3-.7.7-.7s.5.2.6.3c.6.6,1.3,1.1,2.3,1.1s1.9-.4,1.9-1.3c0-2-5.1-1.1-5.1-4.4s1-2.5,3.2-2.5,2.6.5,3.1,1.3c0,.1.1.3.1.4,0,.4-.3.7-.7.7s-.4-.1-.6-.3c-.4-.4-1.1-.7-1.9-.7Z"/>
    </g>
  </g>
</svg>