<?xml version="1.0" encoding="UTF-8"?><svg id="Ebene_1" xmlns="http://www.w3.org/2000/svg" width="269" height="272" xmlns:xlink="http://www.w3.org/1999/xlink" viewBox="0 0 269 272"><defs><style>.cls-1{opacity:.31;}.cls-2{fill:#ccbaca;}.cls-2,.cls-3,.cls-4,.cls-5,.cls-6,.cls-7,.cls-8{stroke-width:0px;}.cls-3,.cls-9{fill:none;}.cls-4{fill:#e95709;}.cls-10{clip-path:url(#clippath);}.cls-5{fill:url(#radial-gradient);}.cls-6{fill:#faab36;}.cls-7{fill:#5c6d6f;}.cls-11{mask:url(#mask);}.cls-8{fill:#e3d3e0;}.cls-9{stroke:#042323;stroke-miterlimit:10;stroke-width:.25px;}</style><clipPath id="clippath"><rect class="cls-3" x="-36" y="-972.84" width="1650" height="927.67"/></clipPath><radialGradient id="radial-gradient" cx="789" cy="-509.67" fx="789" fy="-509.67" r="896.94" gradientUnits="userSpaceOnUse"><stop offset=".02" stop-color="#fff"/><stop offset=".1" stop-color="#f6f6f6"/><stop offset=".23" stop-color="#dedede"/><stop offset=".4" stop-color="#b7b7b7"/><stop offset=".6" stop-color="gray"/><stop offset=".82" stop-color="#3c3c3c"/><stop offset=".99" stop-color="#000"/></radialGradient><mask id="mask" x="-1588.59" y="-1894.72" width="4755.19" height="2771.45" maskUnits="userSpaceOnUse"><rect class="cls-5" x="-107.94" y="-1406.61" width="1793.87" height="1793.87"/></mask></defs><g class="cls-10"><g class="cls-11"><g class="cls-1"><line class="cls-9" x1="-759.99" y1="9.04" x2="1693.56" y2="-1406.61"/><line class="cls-9" x1="-667.93" y1="63.27" x2="1785.62" y2="-1352.38"/><line class="cls-9" x1="-575.87" y1="117.49" x2="1877.68" y2="-1298.16"/><line class="cls-9" x1="-483.81" y1="171.71" x2="1969.74" y2="-1243.94"/><line class="cls-9" x1="-391.74" y1="225.94" x2="2061.81" y2="-1189.71"/><line class="cls-9" x1="-299.68" y1="280.16" x2="2153.87" y2="-1135.49"/><line class="cls-9" x1="-207.62" y1="334.38" x2="2245.93" y2="-1081.27"/><line class="cls-9" x1="-115.56" y1="388.61" x2="2337.99" y2="-1027.04"/><line class="cls-9" x1="-23.5" y1="442.83" x2="2430.05" y2="-972.82"/><line class="cls-9" x1="68.56" y1="497.05" x2="2522.11" y2="-918.6"/><line class="cls-9" x1="160.62" y1="551.28" x2="2614.17" y2="-864.37"/><line class="cls-9" x1="252.68" y1="605.5" x2="2706.23" y2="-810.15"/><line class="cls-9" x1="2337.99" y1="9.04" x2="-115.56" y2="-1406.61"/><line class="cls-9" x1="2245.93" y1="63.27" x2="-207.62" y2="-1352.38"/><line class="cls-9" x1="2153.87" y1="117.49" x2="-299.68" y2="-1298.16"/><line class="cls-9" x1="2061.81" y1="171.71" x2="-391.74" y2="-1243.94"/><line class="cls-9" x1="1969.74" y1="225.94" x2="-483.81" y2="-1189.71"/><line class="cls-9" x1="1877.68" y1="280.16" x2="-575.87" y2="-1135.49"/><line class="cls-9" x1="1785.62" y1="334.38" x2="-667.93" y2="-1081.27"/><line class="cls-9" x1="1693.56" y1="388.61" x2="-759.99" y2="-1027.04"/><line class="cls-9" x1="1601.5" y1="442.83" x2="-852.05" y2="-972.82"/><line class="cls-9" x1="1509.44" y1="497.05" x2="-944.11" y2="-918.6"/><line class="cls-9" x1="1417.38" y1="551.28" x2="-1036.17" y2="-864.37"/><line class="cls-9" x1="1325.32" y1="605.5" x2="-1128.23" y2="-810.15"/><line class="cls-9" x1="1233.26" y1="659.72" x2="-1220.29" y2="-755.92"/><line class="cls-9" x1="1141.2" y1="713.95" x2="-1312.35" y2="-701.7"/><line class="cls-9" x1="1049.14" y1="768.17" x2="-1404.41" y2="-647.48"/><line class="cls-9" x1="957.08" y1="822.39" x2="-1496.47" y2="-593.25"/><line class="cls-9" x1="865.02" y1="876.62" x2="-1588.53" y2="-539.03"/></g></g></g><path class="cls-6" d="M7.89,109.24c1.8-4.39,5.25-5.74,9.73-5.57,4.06.16,8.14-.05,12.2.06,5.14.14,8.18,3.06,8.14,7.6-.05,4.5-3.23,7.36-8.29,7.4-3.94.03-7.9-.26-11.8.08-4.43.39-7.61-1.22-9.97-4.82v-4.75Z"/><path class="cls-6" d="M261.11,113.98c-2.46,3.8-5.88,5.21-10.42,4.81-3.92-.34-7.89-.02-11.84-.09-4.56-.08-7.66-2.96-7.81-7.14-.15-4.3,2.6-7.55,7.17-7.77,5.25-.26,10.54-.25,15.79.02,3.37.17,5.72,2.31,7.11,5.42v4.75Z"/><path class="cls-2" d="M152.05,222.6c1.86-.35,3.72-.7,5.58-1.06.05,4.33.56,8.71-.35,12.98-2.21,10.43-10.42,17-21.71,17.61-.02-9.81-.04-19.61-.06-29.42,0,0,.05-.32.05-.32,5.28.09,10.55.18,15.83.27.22-.02.44-.05.66-.07Z"/><path class="cls-8" d="M134.51,222.71c.02,9.81.04,19.61.06,29.42-13.97-1.04-22.17-9.7-22.28-23.53-.02-2.37.03-4.74.05-7.11,7.31,1.8,14.8.52,22.17,1.22Z"/><path class="cls-6" d="M68.02,37.69c.2,3.02-.66,5.55-3.62,6.82-3.05,1.3-5.94.92-8.37-1.49-3.66-3.62-7.33-7.22-10.9-10.92-2.44-2.52-2.34-7.12.05-9.6,2.92-3.03,6.92-3.59,9.87-.9,4.09,3.73,7.86,7.81,11.81,11.68,1.31,1.29,1.17,2.84,1.16,4.42Z"/><path class="cls-6" d="M67.99,184.76c.44,2.21-.5,3.89-2.15,5.47-3.43,3.25-6.67,6.71-10.07,9.99-3.38,3.26-6.79,3.28-10.08.23-2.96-2.75-3.29-7.08-.42-10.18,3.56-3.85,7.34-7.52,11.12-11.16,2.08-2,4.66-2.54,7.26-1.17,2.63,1.39,4.88,3.22,4.34,6.83Z"/><path class="cls-6" d="M225.52,195.39c.37,3.32-1.7,5.12-4.2,6.5-2.42,1.34-5.03,1.12-6.99-.7-4.24-3.92-8.33-8.01-12.29-12.22-2.01-2.14-1.51-6.81.58-9.01,2.8-2.96,6.42-3.84,9.13-1.45,4.43,3.9,8.49,8.22,12.59,12.47,1.11,1.15,1.38,2.81,1.18,4.43Z"/><path class="cls-6" d="M225.54,27.61c.13,1.98-.78,3.67-2.23,5.12-3.34,3.34-6.63,6.74-10.04,10.01-3.33,3.21-7.94,3.18-10.88.06-2.27-2.4-2.01-7.72.6-10.38,3.4-3.47,6.84-6.9,10.31-10.3,2.42-2.38,5.3-2.86,8.3-1.36,2.67,1.33,4.07,3.62,3.94,6.85Z"/><path class="cls-6" d="M192.85,54.33c-15.85-16.32-35.41-24.75-58.44-24.33h0c-5.28-.27-10.53.17-15.71,1.11-44.85,8.22-74.46,54.32-63.59,98.98,4.9,20.16,16.07,36.06,32.75,48.24,6.42,4.69,9.43,11.3,9.41,19.07-.03,11.32,4.62,19.45,15.07,24.08,7.31,1.8,14.8.52,22.17,1.22,0,0,.05-.32.05-.32,0-15.87,0-31.74,0-47.74v47.74c5.28.09,10.55.18,15.83.27.21-.16.43-.18.66-.07,1.86-.35,3.72-.7,5.58-1.06,8.93-3.97,14.82-10.55,14.83-20.52.01-11.07,4.83-18.95,13.21-25.57,38.55-30.43,42.4-85.88,8.18-121.12ZM134.6,63.33s0,0,0,0c-.06-9.89-.11-19.79-.17-29.68.06,9.89.11,19.79.17,29.68ZM137.3,61.13c-.09.07-.18.14-.26.21.09-.07.17-.14.26-.21Z"/><path class="cls-7" d="M151.05,222.6c-.22.02-.44.05-.66.07.21-.16.43-.18.66-.07Z"/><path class="cls-4" d="M145.74,109.08h21.8c2.62,0,4.95,1.62,5.87,4.05.92,2.42.22,5.18-1.74,6.9l-50.05,43.8c-2.21,1.92-5.44,2.07-7.8.35-2.37-1.72-3.23-4.85-2.07-7.53l15.04-35.08h-21.8c-2.6,0-4.95-1.64-5.87-4.07-.92-2.42-.22-5.18,1.74-6.9l50.05-43.8c2.21-1.92,5.44-2.07,7.8-.35,2.37,1.72,3.23,4.85,2.07,7.53l-15.04,35.1Z"/></svg>