<?xml version="1.0" encoding="UTF-8"?><svg id="Ebene_1" xmlns="http://www.w3.org/2000/svg" width="269" height="272" xmlns:xlink="http://www.w3.org/1999/xlink" viewBox="0 0 269 272"><defs><style>.cls-1{opacity:.31;}.cls-2,.cls-3,.cls-4,.cls-5,.cls-6{stroke-width:0px;}.cls-2,.cls-7{fill:none;}.cls-3{fill:#f78104;}.cls-4{fill:#e95709;}.cls-8{clip-path:url(#clippath);}.cls-5{fill:url(#radial-gradient);}.cls-6{fill:#faab36;}.cls-9{mask:url(#mask);}.cls-7{stroke:#042323;stroke-miterlimit:10;stroke-width:.25px;}</style><clipPath id="clippath"><rect class="cls-2" x="-614" y="-972.84" width="1650" height="927.67"/></clipPath><radialGradient id="radial-gradient" cx="211" cy="-509.67" fx="211" fy="-509.67" r="896.94" gradientUnits="userSpaceOnUse"><stop offset=".02" stop-color="#fff"/><stop offset=".1" stop-color="#f6f6f6"/><stop offset=".23" stop-color="#dedede"/><stop offset=".4" stop-color="#b7b7b7"/><stop offset=".6" stop-color="gray"/><stop offset=".82" stop-color="#3c3c3c"/><stop offset=".99" stop-color="#000"/></radialGradient><mask id="mask" x="-2166.59" y="-1894.72" width="4755.19" height="2771.45" maskUnits="userSpaceOnUse"><rect class="cls-5" x="-685.94" y="-1406.61" width="1793.87" height="1793.87"/></mask></defs><g class="cls-8"><g class="cls-9"><g class="cls-1"><line class="cls-7" x1="-1337.99" y1="9.04" x2="1115.56" y2="-1406.61"/><line class="cls-7" x1="-1245.93" y1="63.27" x2="1207.62" y2="-1352.38"/><line class="cls-7" x1="-1153.87" y1="117.49" x2="1299.68" y2="-1298.16"/><line class="cls-7" x1="-1061.81" y1="171.71" x2="1391.74" y2="-1243.94"/><line class="cls-7" x1="-969.74" y1="225.94" x2="1483.81" y2="-1189.71"/><line class="cls-7" x1="-877.68" y1="280.16" x2="1575.87" y2="-1135.49"/><line class="cls-7" x1="-785.62" y1="334.38" x2="1667.93" y2="-1081.27"/><line class="cls-7" x1="-693.56" y1="388.61" x2="1759.99" y2="-1027.04"/><line class="cls-7" x1="-601.5" y1="442.83" x2="1852.05" y2="-972.82"/><line class="cls-7" x1="-509.44" y1="497.05" x2="1944.11" y2="-918.6"/><line class="cls-7" x1="-417.38" y1="551.28" x2="2036.17" y2="-864.37"/><line class="cls-7" x1="-325.32" y1="605.5" x2="2128.23" y2="-810.15"/><line class="cls-7" x1="-233.26" y1="659.72" x2="2220.29" y2="-755.92"/><line class="cls-7" x1="-141.2" y1="713.95" x2="2312.35" y2="-701.7"/><line class="cls-7" x1="-49.14" y1="768.17" x2="2404.41" y2="-647.48"/><line class="cls-7" x1="42.92" y1="822.39" x2="2496.47" y2="-593.25"/><line class="cls-7" x1="134.98" y1="876.62" x2="2588.53" y2="-539.03"/><line class="cls-7" x1="1759.99" y1="9.04" x2="-693.56" y2="-1406.61"/><line class="cls-7" x1="1667.93" y1="63.27" x2="-785.62" y2="-1352.38"/><line class="cls-7" x1="1575.87" y1="117.49" x2="-877.68" y2="-1298.16"/><line class="cls-7" x1="1483.81" y1="171.71" x2="-969.74" y2="-1243.94"/><line class="cls-7" x1="1391.74" y1="225.94" x2="-1061.81" y2="-1189.71"/><line class="cls-7" x1="1299.68" y1="280.16" x2="-1153.87" y2="-1135.49"/><line class="cls-7" x1="1207.62" y1="334.38" x2="-1245.93" y2="-1081.27"/><line class="cls-7" x1="1115.56" y1="388.61" x2="-1337.99" y2="-1027.04"/><line class="cls-7" x1="1023.5" y1="442.83" x2="-1430.05" y2="-972.82"/><line class="cls-7" x1="931.44" y1="497.05" x2="-1522.11" y2="-918.6"/><line class="cls-7" x1="839.38" y1="551.28" x2="-1614.17" y2="-864.37"/><line class="cls-7" x1="747.32" y1="605.5" x2="-1706.23" y2="-810.15"/><line class="cls-7" x1="655.26" y1="659.72" x2="-1798.29" y2="-755.92"/><line class="cls-7" x1="563.2" y1="713.95" x2="-1890.35" y2="-701.7"/><line class="cls-7" x1="471.14" y1="768.17" x2="-1982.41" y2="-647.48"/><line class="cls-7" x1="379.08" y1="822.39" x2="-2074.47" y2="-593.25"/><line class="cls-7" x1="287.02" y1="876.62" x2="-2166.53" y2="-539.03"/></g></g></g><path class="cls-4" d="M46.05,125.83c-6.15,10.88-12.75,21.54-18.34,32.7-5.84,11.68,2.66,24.71,16.24,25.49,2.98.17,3.74,1.24,4.14,3.79,1.58,10,3.32,19.98,4.99,29.97,2.06,12.34,9.72,18.83,22.33,18.87,5.4.02,10.81.13,16.2-.05,2.7-.09,3.75.66,3.62,3.51-.21,4.6-.1,9.22-.05,13.83.08,6.48,3.97,9.59,10.34,8.29,12.35-2.51,24.84-4.3,37.08-7.39-.03-21.36-.02-42.72-.13-64.08-.01-2.58.79-3.51,3.39-3.4,4.07.18,8.16.27,12.09-1.21,5.91-2.22,9.24-6.56,9.79-12.69.56-6.3-2.05-11.22-7.66-14.46-2.52-1.45-5.18-1.7-7.99-1.7-9.58.02-9.57-.02-9.58-9.74,0-7.25-.04-14.5-.06-21.75h0c-10.66-.02-21.33.05-31.99-.1-2.8-.04-3.76.89-3.55,3.62.19,2.49.08,5,.02,7.5-.18,7.06-5.59,13.18-12.49,14.18-7.35,1.06-14.43-3.42-16.54-10.43-1.04-3.46-1.29-7.01-.93-10.54.37-3.62-1.07-4.44-4.46-4.35-8.81.23-17.64.1-26.46.11Z"/><path class="cls-3" d="M142.46,125.83c.02,7.25.06,14.5.06,21.75.01,9.72,0,9.76,9.58,9.74,2.81,0,5.47.24,7.99,1.7,5.61,3.24,8.22,8.16,7.66,14.46-.55,6.13-3.88,10.47-9.79,12.69-3.94,1.48-8.02,1.39-12.09,1.21-2.6-.12-3.4.82-3.39,3.4.11,21.36.1,42.72.13,64.08,12.36-1.63,24.49-4.46,36.74-6.69,9.16-1.67,18.28-3.49,27.42-5.25,4.9-.94,6.95-3.36,6.96-8.43.03-17.11.06-34.23-.03-51.34-.01-2.66.63-4.63,2.51-6.66,12.4-13.38,20.83-28.94,24.79-46.81.28-1.26.27-2.59.39-3.89-6.19,0-12.39,0-18.58,0q-10.57,0-10.63-10.71c-.04-7.28-5.3-13.7-11.94-14.6-8.53-1.16-15.34,3.35-17.45,11.28-.83,3.14-.82,6.28-.61,9.4.24,3.51-.73,4.8-4.53,4.72-11.73-.24-23.46-.06-35.19-.04Z"/><path class="cls-6" d="M142.46,125.83c11.73-.02,23.46-.2,35.19.04,3.8.08,4.77-1.21,4.53-4.72-.22-3.12-.23-6.27.61-9.4,2.11-7.94,8.92-12.44,17.45-11.28,6.65.9,11.9,7.33,11.94,14.6q.06,10.71,10.63,10.71c6.19,0,12.39,0,18.58,0,1.52-2.73,1.33-5.86,1.51-8.75,1.22-19.54-1.88-38.24-11.46-55.62-9.11-16.52-21.81-29.43-38.12-38.86-15.74-9.1-32.68-13.49-50.86-13.05.02,13.03.05,26.06.06,39.09q.01,9.85-9.83,9.9c-8.29.04-14.63,5.28-15.48,12.78-.93,8.21,3.83,14.65,12.13,16.76,3.28.83,6.54.48,9.8.45,2.55-.03,3.45.78,3.42,3.39-.13,11.32-.09,22.64-.11,33.96h0Z"/><path class="cls-3" d="M142.46,125.83c.02-11.32-.02-22.64.11-33.96.03-2.61-.87-3.41-3.42-3.39-3.26.03-6.53.38-9.8-.45-8.3-2.11-13.06-8.55-12.13-16.76.85-7.51,7.19-12.74,15.48-12.78q9.83-.05,9.83-9.9c-.01-13.03-.04-26.06-.06-39.09-27.31,1.08-51.62,9.67-70.93,29.61-13.58,14.02-20.68,31.53-24.68,50.37-2.28,10.72-3.06,21.57-1.61,32.5.17,1.3.54,2.57.82,3.85,8.82-.01,17.64.12,26.46-.11,3.39-.09,4.83.73,4.46,4.35-.36,3.53-.11,7.08.93,10.54,2.12,7.01,9.19,11.49,16.54,10.43,6.9-1,12.32-7.12,12.49-14.18.06-2.5.17-5.01-.02-7.5-.21-2.74.75-3.66,3.55-3.62,10.66.15,21.32.08,31.99.09Z"/></svg>