<?xml version="1.0" encoding="UTF-8"?><svg id="Ebene_1" xmlns="http://www.w3.org/2000/svg" width="269" height="272" xmlns:xlink="http://www.w3.org/1999/xlink" viewBox="0 0 269 272"><defs><style>.cls-1{opacity:.31;}.cls-2{fill:#ccbaca;}.cls-2,.cls-3,.cls-4,.cls-5,.cls-6,.cls-7,.cls-8{stroke-width:0px;}.cls-3,.cls-9{fill:none;}.cls-4{fill:#f78104;}.cls-5{fill:#e95709;}.cls-10{clip-path:url(#clippath);}.cls-6{fill:url(#radial-gradient);}.cls-7{fill:#faab36;}.cls-11{mask:url(#mask);}.cls-8{fill:#e3d3e0;}.cls-9{stroke:#042323;stroke-miterlimit:10;stroke-width:.25px;}</style><clipPath id="clippath"><rect class="cls-3" x="-325" y="-972.84" width="1650" height="927.67"/></clipPath><radialGradient id="radial-gradient" cx="500" cy="-509.67" fx="500" fy="-509.67" r="896.94" gradientUnits="userSpaceOnUse"><stop offset=".02" stop-color="#fff"/><stop offset=".1" stop-color="#f6f6f6"/><stop offset=".23" stop-color="#dedede"/><stop offset=".4" stop-color="#b7b7b7"/><stop offset=".6" stop-color="gray"/><stop offset=".82" stop-color="#3c3c3c"/><stop offset=".99" stop-color="#000"/></radialGradient><mask id="mask" x="-1877.59" y="-1894.72" width="4755.19" height="2771.45" maskUnits="userSpaceOnUse"><rect class="cls-6" x="-396.94" y="-1406.61" width="1793.87" height="1793.87"/></mask></defs><g class="cls-10"><g class="cls-11"><g class="cls-1"><line class="cls-9" x1="-1048.99" y1="9.04" x2="1404.56" y2="-1406.61"/><line class="cls-9" x1="-956.93" y1="63.27" x2="1496.62" y2="-1352.38"/><line class="cls-9" x1="-864.87" y1="117.49" x2="1588.68" y2="-1298.16"/><line class="cls-9" x1="-772.81" y1="171.71" x2="1680.74" y2="-1243.94"/><line class="cls-9" x1="-680.74" y1="225.94" x2="1772.81" y2="-1189.71"/><line class="cls-9" x1="-588.68" y1="280.16" x2="1864.87" y2="-1135.49"/><line class="cls-9" x1="-496.62" y1="334.38" x2="1956.93" y2="-1081.27"/><line class="cls-9" x1="-404.56" y1="388.61" x2="2048.99" y2="-1027.04"/><line class="cls-9" x1="-312.5" y1="442.83" x2="2141.05" y2="-972.82"/><line class="cls-9" x1="-220.44" y1="497.05" x2="2233.11" y2="-918.6"/><line class="cls-9" x1="-128.38" y1="551.28" x2="2325.17" y2="-864.37"/><line class="cls-9" x1="-36.32" y1="605.5" x2="2417.23" y2="-810.15"/><line class="cls-9" x1="55.74" y1="659.72" x2="2509.29" y2="-755.92"/><line class="cls-9" x1="147.8" y1="713.95" x2="2601.35" y2="-701.7"/><line class="cls-9" x1="239.86" y1="768.17" x2="2693.41" y2="-647.48"/><line class="cls-9" x1="2048.99" y1="9.04" x2="-404.56" y2="-1406.61"/><line class="cls-9" x1="1956.93" y1="63.27" x2="-496.62" y2="-1352.38"/><line class="cls-9" x1="1864.87" y1="117.49" x2="-588.68" y2="-1298.16"/><line class="cls-9" x1="1772.81" y1="171.71" x2="-680.74" y2="-1243.94"/><line class="cls-9" x1="1680.74" y1="225.94" x2="-772.81" y2="-1189.71"/><line class="cls-9" x1="1588.68" y1="280.16" x2="-864.87" y2="-1135.49"/><line class="cls-9" x1="1496.62" y1="334.38" x2="-956.93" y2="-1081.27"/><line class="cls-9" x1="1404.56" y1="388.61" x2="-1048.99" y2="-1027.04"/><line class="cls-9" x1="1312.5" y1="442.83" x2="-1141.05" y2="-972.82"/><line class="cls-9" x1="1220.44" y1="497.05" x2="-1233.11" y2="-918.6"/><line class="cls-9" x1="1128.38" y1="551.28" x2="-1325.17" y2="-864.37"/><line class="cls-9" x1="1036.32" y1="605.5" x2="-1417.23" y2="-810.15"/><line class="cls-9" x1="944.26" y1="659.72" x2="-1509.29" y2="-755.92"/><line class="cls-9" x1="852.2" y1="713.95" x2="-1601.35" y2="-701.7"/><line class="cls-9" x1="760.14" y1="768.17" x2="-1693.41" y2="-647.48"/><line class="cls-9" x1="668.08" y1="822.39" x2="-1785.47" y2="-593.25"/><line class="cls-9" x1="576.02" y1="876.62" x2="-1877.53" y2="-539.03"/></g></g></g><path class="cls-7" d="M97.33,127.95c27.86.04,55.72.07,83.58.12,1.7,0,3.41.1,5.11.16-.02,44.8-.04,89.59-.05,134.39h-103.67c0-44.79-.01-89.58-.02-134.37,5.01-.1,10.03-.2,15.04-.29ZM126.62,213.65c0,3.43,0,6.85,0,10.28,0,.26,0,.53.03.79.57,4.83,3.72,7.45,8.65,7.2,4.23-.21,6.5-2.85,6.53-7.72.04-6.06.22-12.13-.07-18.18-.16-3.32.81-5.08,3.85-6.71,9.28-4.98,13.54-16.54,10.1-26.51-3.05-8.85-12.27-16.36-23.64-14.89-9.93,1.28-16.23,6.64-18.97,15.9-2.71,9.15-.82,18.26,7.31,23.14,6.7,4.02,6.32,8.93,6.2,14.73-.01.66,0,1.32,0,1.98Z"/><path class="cls-4" d="M185.97,262.61c.02-44.8.04-89.59.05-134.39,7.25-.04,14.5-.2,21.74-.11,13.49.17,23.01,9.32,23.1,22.9.21,29.53.17,59.06.01,88.58-.06,11.2-5.97,18.64-16.77,22.23-.45.15-.83.52-1.24.79h-26.91Z"/><path class="cls-8" d="M97.33,127.95c-5.01.1-10.03.2-15.04.29-9.72.12-19.48-1.03-29.14.94-.04-11.99.09-23.99-.17-35.98-.24-10.66,1.32-20.95,5.23-30.85,10.08-25.55,28.33-42.24,54.74-49.85,4.48-1.29,9.11-2.09,13.68-3.11,2.64,0,5.28,0,7.91,0-.01,14.79-.03,29.58-.04,44.37-21.13.79-36.8,16-37.12,37.08-.19,12.37-.04,24.74-.04,37.11Z"/><path class="cls-4" d="M53.14,129.18c9.66-1.97,19.42-.82,29.14-.94,0,44.79.01,89.58.02,134.37h-26.91c-2.39-2.04-5.61-2.43-8.16-4.29-4.62-3.37-6.83-8.29-9.25-13.12v-99.71c3.08-7.27,7.35-13.44,15.16-16.32Z"/><path class="cls-2" d="M134.49,53.76c.01-14.79.03-29.58.04-44.37h9.5c2.79,1.61,6.04,1.42,9.04,2.24,34.51,9.42,55.01,31.87,61.98,66.76,1.84,9.21.98,18.63.92,27.96-.03,3.79-3.12,6.65-6.96,6.68-10.27.1-20.55.11-30.82,0-4.2-.05-6.41-2.68-6.47-7.29-.09-8.01.31-16.03-1.47-23.95-3.3-14.61-18.42-27.73-33.19-27.33-.91.02-1.87.13-2.55-.71Z"/><path class="cls-5" d="M126.62,213.65c0-.66-.01-1.32,0-1.98.12-5.8.5-10.71-6.2-14.73-8.12-4.88-10.01-13.98-7.31-23.14,2.74-9.26,9.04-14.62,18.97-15.9,11.37-1.46,20.59,6.05,23.64,14.89,3.44,9.96-.82,21.53-10.1,26.51-3.04,1.63-4.01,3.39-3.85,6.71.29,6.05.11,12.12.07,18.18-.04,4.88-2.31,7.51-6.53,7.72-4.94.25-8.08-2.37-8.65-7.2-.03-.26-.03-.53-.03-.79,0-3.43,0-6.85,0-10.28Z"/></svg>