<?xml version="1.0" encoding="UTF-8"?>
<svg xmlns="http://www.w3.org/2000/svg" xmlns:xlink="http://www.w3.org/1999/xlink" viewBox="0 0 1600 500">
  <defs>
    <style>
      .cls-1 {
        stroke: #c9c9c9;
        stroke-linecap: round;
        stroke-linejoin: round;
        stroke-width: 5.49px;
      }

      .cls-1, .cls-2, .cls-3 {
        fill: none;
      }

      .cls-4 {
        opacity: .31;
      }

      .cls-5 {
        fill: url(#Unbenannter_Verlauf_7-3);
      }

      .cls-5, .cls-6, .cls-7, .cls-8, .cls-9, .cls-10, .cls-11, .cls-12, .cls-2, .cls-13, .cls-14, .cls-15, .cls-16, .cls-17, .cls-18, .cls-19, .cls-20, .cls-21, .cls-22, .cls-23, .cls-24, .cls-25, .cls-26, .cls-27, .cls-28, .cls-29, .cls-30, .cls-31 {
        stroke-width: 0px;
      }

      .cls-32 {
        clip-path: url(#clippath-2);
      }

      .cls-33 {
        isolation: isolate;
      }

      .cls-6 {
        fill: #e5e5e5;
      }

      .cls-7 {
        fill: #f7f7f7;
      }

      .cls-8 {
        fill: #0e3c55;
      }

      .cls-9 {
        fill: #daefee;
      }

      .cls-34 {
        clip-path: url(#clippath-6);
      }

      .cls-10 {
        fill: #e8e9ea;
      }

      .cls-11 {
        fill: #f5f5f5;
      }

      .cls-12 {
        mix-blend-mode: multiply;
        opacity: .2;
      }

      .cls-13 {
        fill: url(#Unbenannter_Verlauf_7-4);
      }

      .cls-35 {
        clip-path: url(#clippath-7);
      }

      .cls-36 {
        clip-path: url(#clippath-1);
      }

      .cls-37 {
        clip-path: url(#clippath-4);
      }

      .cls-14 {
        fill: #ea4b30;
      }

      .cls-15 {
        fill: #f78104;
      }

      .cls-16 {
        fill: #bcd3d3;
      }

      .cls-17 {
        fill: #fff;
      }

      .cls-18 {
        fill: #e95709;
      }

      .cls-19 {
        fill: #005f60;
      }

      .cls-20 {
        fill: url(#Unbenannter_Verlauf_7-5);
      }

      .cls-38 {
        clip-path: url(#clippath);
      }

      .cls-21 {
        fill: #008083;
      }

      .cls-22 {
        fill: url(#radial-gradient);
      }

      .cls-23 {
        fill: #249ea0;
      }

      .cls-39 {
        clip-path: url(#clippath-3);
      }

      .cls-24 {
        fill: url(#Unbenannter_Verlauf_7-7);
      }

      .cls-25 {
        fill: url(#Unbenannter_Verlauf_7-2);
      }

      .cls-26 {
        fill: #faab36;
      }

      .cls-27 {
        fill: #e09534;
      }

      .cls-28 {
        fill: #6f82d1;
      }

      .cls-40 {
        mask: url(#mask);
      }

      .cls-29 {
        fill: #c9c9c9;
      }

      .cls-41 {
        clip-path: url(#clippath-5);
      }

      .cls-30 {
        fill: url(#Unbenannter_Verlauf_7-6);
      }

      .cls-3 {
        stroke: #042323;
        stroke-miterlimit: 10;
        stroke-width: .25px;
      }

      .cls-31 {
        fill: url(#Unbenannter_Verlauf_7);
      }
    </style>
    <clipPath id="clippath">
      <rect class="cls-2" x="-25" y="898.16" width="1650" height="927.67"/>
    </clipPath>
    <radialGradient id="radial-gradient" cx="800" cy="1361.33" fx="800" fy="1361.33" r="896.94" gradientUnits="userSpaceOnUse">
      <stop offset=".02" stop-color="#fff"/>
      <stop offset=".1" stop-color="#f6f6f6"/>
      <stop offset=".23" stop-color="#dedede"/>
      <stop offset=".4" stop-color="#b7b7b7"/>
      <stop offset=".6" stop-color="gray"/>
      <stop offset=".82" stop-color="#3c3c3c"/>
      <stop offset=".99" stop-color="#000"/>
    </radialGradient>
    <mask id="mask" x="-1577.59" y="-23.72" width="4755.19" height="2771.45" maskUnits="userSpaceOnUse">
      <rect class="cls-22" x="-96.94" y="464.39" width="1793.87" height="1793.87"/>
    </mask>
    <clipPath id="clippath-1">
      <path class="cls-2" d="M741.98,206.85c-5.39,0-10.48.78-15.26,2.33-4.79,1.56-9.1,3.83-12.93,6.82-3.71,2.87-6.71,6.2-8.98,9.97-2.28,3.77-3.66,7.81-4.13,12.12-.12.84-.18,2.1-.18,3.77,0,8.14,3.23,15.8,9.7,22.99s16.64,12.63,30.53,16.34c12.57,3.47,21.73,8.56,27.48,15.26,4.19,4.79,6.29,10,6.29,15.62,0,1.08-.06,1.92-.18,2.51-.96,6.46-4.25,11.85-9.88,16.16-6.11,4.79-13.59,7.18-22.45,7.18-6.11,0-11.74-1.29-16.88-3.86-5.15-2.57-9.22-6.02-12.21-10.33-2.2-3.17-3.6-6.54-4.18-10.1-.36-2.22-2.18-3.9-4.44-3.9h0c-2.82,0-4.87,2.55-4.42,5.33.51,3.11,1.47,6.12,2.9,9.03,2.21,4.55,5.36,8.56,9.43,12.03,3.95,3.47,8.5,6.14,13.65,7.99,5.15,1.86,10.53,2.78,16.16,2.78,10.89,0,20.23-3.05,28.01-9.16,3.71-2.87,6.7-6.2,8.98-9.97,2.27-3.77,3.65-7.81,4.13-12.12.12-.84.18-2.09.18-3.77,0-8.14-3.23-15.8-9.7-22.99-6.46-7.18-16.64-12.63-30.53-16.34-12.33-3.23-21.49-8.32-27.48-15.26-4.07-4.43-6.11-9.46-6.11-15.08,0-1.31.06-2.33.18-3.05.72-6.34,3.95-11.73,9.7-16.16,6.11-4.79,13.65-7.18,22.63-7.18,5.98,0,11.55,1.29,16.7,3.86,5.14,2.58,9.22,6.02,12.21,10.33,2.21,3.2,3.61,6.62,4.19,10.27.35,2.23,2.18,3.92,4.43,3.92,2.81,0,4.87-2.55,4.42-5.33-.51-3.13-1.48-6.17-2.9-9.13-2.22-4.61-5.36-8.65-9.43-12.12-3.95-3.47-8.47-6.13-13.56-7.99-5.09-1.85-10.45-2.78-16.07-2.78Z"/>
    </clipPath>
    <linearGradient id="Unbenannter_Verlauf_7" data-name="Unbenannter Verlauf 7" x1="118.29" y1="-137.05" x2="120.78" y2="-137.05" gradientTransform="translate(-23066.43 -27082.11) scale(199.63 -199.63)" gradientUnits="userSpaceOnUse">
      <stop offset="0" stop-color="#faab36"/>
      <stop offset=".08" stop-color="#faab36"/>
      <stop offset=".49" stop-color="#f78104"/>
      <stop offset=".94" stop-color="#e95709"/>
      <stop offset="1" stop-color="#e95709"/>
    </linearGradient>
    <clipPath id="clippath-2">
      <path class="cls-2" d="M800.52,213.67v121.94c0,2.48,2.01,4.49,4.49,4.49s4.49-2.01,4.49-4.49v-121.94c0-2.48-2.01-4.49-4.49-4.49s-4.49,2.01-4.49,4.49"/>
    </clipPath>
    <linearGradient id="Unbenannter_Verlauf_7-2" data-name="Unbenannter Verlauf 7" x1="118.29" y1="-137.1" x2="120.78" y2="-137.1" gradientTransform="translate(-23063.72 -27095.53) scale(199.63 -199.63)" xlink:href="#Unbenannter_Verlauf_7"/>
    <clipPath id="clippath-3">
      <path class="cls-2" d="M834.65,277.29v-55.22c0-2.16,1.75-3.91,3.91-3.91h36.5c4.19,0,8.2.81,12.03,2.42,3.83,1.62,7.24,3.92,10.24,6.91,2.99,3,5.3,6.41,6.91,10.24,1.62,3.83,2.42,7.84,2.42,12.03s-.81,8.02-2.42,11.85c-1.62,3.83-3.93,7.25-6.91,10.24-3,3-6.41,5.3-10.24,6.91-3.83,1.62-7.84,2.42-12.03,2.42h-36.5c-2.16,0-3.91-1.75-3.91-3.91M829.57,209.18c-2.16,0-3.91,1.75-3.91,3.91v122.74c0,2.16,1.75,3.91,3.91,3.91h1.17c2.16,0,3.91-1.75,3.91-3.91v-41.75c0-2.16,1.75-3.91,3.91-3.91h28.42c2.1,0,3.79,1.67,3.89,3.77.38,7.55,1.6,15.27,3.65,23.17,2.51,9.34,6.11,17.96,10.77,25.86,4.55,7.42,9.88,13.86,15.98,19.3,6.11,5.44,12.81,9.66,20.11,12.66,7.9,3.35,16.22,5.03,24.96,5.03,4.42,0,8.68-.42,12.75-1.26,12.12-2.49,23.08-8.17,32.86-17.02,1.69-1.53,1.78-4.16.14-5.74l-.93-.9c-1.46-1.42-3.76-1.4-5.27-.02-5.37,4.87-11.13,8.63-17.28,11.3-7.18,3.11-14.61,4.67-22.27,4.67s-14.49-1.44-21.55-4.31c-6.46-2.64-12.39-6.38-17.78-11.22-5.39-4.85-10.06-10.57-14.01-17.15-4.19-6.82-7.49-14.66-9.88-23.53-1.86-7.11-2.96-14.22-3.3-21.34-.09-1.89,1.24-3.58,3.09-3.94,7.89-1.53,14.84-5.26,20.86-11.18,3.83-3.83,6.76-8.2,8.8-13.11,2.03-4.91,3.05-10.05,3.05-15.44s-1.02-10.56-3.05-15.53c-2.04-4.97-4.97-9.37-8.8-13.2-4.68-4.67-10.19-8.01-16.55-10.01-4.32-1.36-8.88-1.84-13.42-1.84h-44.24Z"/>
    </clipPath>
    <linearGradient id="Unbenannter_Verlauf_7-3" data-name="Unbenannter Verlauf 7" x1="118.29" y1="-137.27" x2="120.78" y2="-137.27" gradientTransform="translate(-23051.33 -27109.58) scale(199.63 -199.63)" xlink:href="#Unbenannter_Verlauf_7"/>
    <clipPath id="clippath-4">
      <path class="cls-2" d="M931.08,213.67v121.58c0,2.48,2.01,4.49,4.49,4.49s4.49-2.01,4.49-4.49v-121.58c0-2.48-2.01-4.49-4.49-4.49s-4.49,2.01-4.49,4.49"/>
    </clipPath>
    <linearGradient id="Unbenannter_Verlauf_7-4" data-name="Unbenannter Verlauf 7" x1="118.29" y1="-137.23" x2="120.78" y2="-137.23" gradientTransform="translate(-23056.54 -27121.27) scale(199.63 -199.63)" xlink:href="#Unbenannter_Verlauf_7"/>
    <clipPath id="clippath-5">
      <path class="cls-2" d="M996.98,206.85c-5.38,0-10.48.78-15.26,2.33-4.79,1.56-9.1,3.83-12.93,6.82-3.71,2.87-6.71,6.2-8.98,9.97-2.28,3.77-3.65,7.81-4.13,12.12-.12.84-.18,2.1-.18,3.77,0,8.14,3.23,15.8,9.7,22.99,6.46,7.18,16.64,12.63,30.53,16.34,12.57,3.47,21.73,8.56,27.48,15.26,4.19,4.79,6.29,10,6.29,15.62,0,1.08-.06,1.92-.18,2.51-.96,6.46-4.25,11.85-9.88,16.16-6.1,4.79-13.59,7.18-22.45,7.18-6.1,0-11.73-1.29-16.88-3.86-5.15-2.57-9.22-6.02-12.21-10.33-2.2-3.17-3.6-6.54-4.18-10.1-.36-2.22-2.18-3.9-4.44-3.9h0c-2.82,0-4.87,2.55-4.42,5.33.51,3.11,1.47,6.12,2.89,9.03,2.21,4.55,5.36,8.56,9.43,12.03,3.95,3.47,8.5,6.14,13.65,7.99,5.15,1.86,10.54,2.78,16.16,2.78,10.89,0,20.23-3.05,28.01-9.16,3.71-2.87,6.7-6.2,8.98-9.97,2.27-3.77,3.65-7.81,4.13-12.12.12-.84.18-2.09.18-3.77,0-8.14-3.23-15.8-9.69-22.99-6.47-7.18-16.64-12.63-30.53-16.34-12.33-3.23-21.49-8.32-27.48-15.26-4.07-4.43-6.1-9.46-6.1-15.08,0-1.31.06-2.33.18-3.05.72-6.34,3.95-11.73,9.7-16.16,6.1-4.79,13.65-7.18,22.62-7.18,5.99,0,11.55,1.29,16.7,3.86,5.15,2.58,9.22,6.02,12.21,10.33,2.21,3.2,3.61,6.62,4.19,10.27.35,2.23,2.18,3.92,4.44,3.92,2.81,0,4.87-2.55,4.42-5.33-.51-3.13-1.47-6.17-2.89-9.13-2.22-4.61-5.36-8.65-9.43-12.12-3.95-3.47-8.47-6.13-13.56-7.99-5.09-1.85-10.45-2.78-16.08-2.78Z"/>
    </clipPath>
    <linearGradient id="Unbenannter_Verlauf_7-5" data-name="Unbenannter Verlauf 7" x1="118.29" y1="-137.3" x2="120.78" y2="-137.3" gradientTransform="translate(-23052.33 -27132.21) scale(199.63 -199.63)" xlink:href="#Unbenannter_Verlauf_7"/>
    <clipPath id="clippath-6">
      <path class="cls-2" d="M602.78,274.46c0,12.97,10.52,23.49,23.5,23.49s23.49-10.52,23.49-23.49-10.52-23.49-23.49-23.49-23.5,10.52-23.5,23.49"/>
    </clipPath>
    <linearGradient id="Unbenannter_Verlauf_7-6" data-name="Unbenannter Verlauf 7" x1="118.29" y1="-136.93" x2="120.78" y2="-136.93" gradientTransform="translate(-23073.61 -27060.45) scale(199.63 -199.63)" xlink:href="#Unbenannter_Verlauf_7"/>
    <clipPath id="clippath-7">
      <path class="cls-2" d="M569.73,274.46c0-31.18,25.37-56.55,56.55-56.55s56.55,25.37,56.55,56.55-25.37,56.55-56.55,56.55-56.55-25.37-56.55-56.55M561,274.46c0,36.05,29.22,65.28,65.28,65.28s65.28-29.23,65.28-65.28-29.22-65.28-65.28-65.28-65.28,29.23-65.28,65.28"/>
    </clipPath>
    <linearGradient id="Unbenannter_Verlauf_7-7" data-name="Unbenannter Verlauf 7" x1="118.29" y1="-136.93" x2="120.78" y2="-136.93" gradientTransform="translate(-23073.61 -27060.45) scale(199.63 -199.63)" xlink:href="#Unbenannter_Verlauf_7"/>
  </defs>
  <g class="cls-33">
    <g id="Ebene_1" data-name="Ebene 1">
      <g class="cls-38">
        <g class="cls-40">
          <g class="cls-4">
            <g>
              <line class="cls-3" x1="-1577.53" y1="1392.03" x2="876.02" y2="-23.62"/>
              <line class="cls-3" x1="-1485.47" y1="1446.25" x2="968.08" y2="30.61"/>
              <line class="cls-3" x1="-1393.41" y1="1500.48" x2="1060.14" y2="84.83"/>
              <line class="cls-3" x1="-1301.35" y1="1554.7" x2="1152.2" y2="139.05"/>
              <line class="cls-3" x1="-1209.29" y1="1608.92" x2="1244.26" y2="193.28"/>
              <line class="cls-3" x1="-1117.23" y1="1663.15" x2="1336.32" y2="247.5"/>
              <line class="cls-3" x1="-1025.17" y1="1717.37" x2="1428.38" y2="301.72"/>
              <line class="cls-3" x1="-933.11" y1="1771.6" x2="1520.44" y2="355.95"/>
              <line class="cls-3" x1="-841.05" y1="1825.82" x2="1612.5" y2="410.17"/>
              <line class="cls-3" x1="-748.99" y1="1880.04" x2="1704.56" y2="464.39"/>
            </g>
            <g>
              <line class="cls-3" x1="3177.53" y1="1392.03" x2="723.98" y2="-23.62"/>
              <line class="cls-3" x1="3085.47" y1="1446.25" x2="631.92" y2="30.61"/>
              <line class="cls-3" x1="2993.41" y1="1500.48" x2="539.86" y2="84.83"/>
              <line class="cls-3" x1="2901.35" y1="1554.7" x2="447.8" y2="139.05"/>
              <line class="cls-3" x1="2809.29" y1="1608.92" x2="355.74" y2="193.28"/>
              <line class="cls-3" x1="2717.23" y1="1663.15" x2="263.68" y2="247.5"/>
              <line class="cls-3" x1="2625.17" y1="1717.37" x2="171.62" y2="301.72"/>
              <line class="cls-3" x1="2533.11" y1="1771.6" x2="79.56" y2="355.95"/>
              <line class="cls-3" x1="2441.05" y1="1825.82" x2="-12.5" y2="410.17"/>
              <line class="cls-3" x1="2348.99" y1="1880.04" x2="-104.56" y2="464.39"/>
            </g>
          </g>
        </g>
      </g>
      <g>
        <g>
          <g>
            <path class="cls-26" d="M584.28,167.43c0-6.93,3.36-10.26,9.27-10.26s9.27,3.33,9.27,10.26-3.36,10.23-9.27,10.23-9.27-3.39-9.27-10.23ZM587.79,167.43c0,4.82,1.9,7.19,5.76,7.19s5.76-2.37,5.76-7.19-1.9-7.22-5.76-7.22-5.76,2.37-5.76,7.22Z"/>
            <path class="cls-26" d="M611.87,169.59v6.2c0,.94-.76,1.7-1.7,1.7s-1.7-.76-1.7-1.7v-16.52c0-.94.76-1.7,1.7-1.7h5.59c3.42,0,6.14,1.9,6.14,5.99s-2.66,6.02-6.14,6.02h-3.89ZM611.87,160.62v5.94h3.63c1.81,0,2.89-1.08,2.89-2.98s-1.11-2.95-2.89-2.95h-3.63Z"/>
            <path class="cls-26" d="M630.94,165.85h5.53c.82,0,1.49.67,1.49,1.49s-.67,1.49-1.49,1.49h-5.53v5.38h7.75c.85,0,1.52.67,1.52,1.52s-.67,1.52-1.52,1.52h-9.45c-.94,0-1.7-.76-1.7-1.7v-16.29c0-.94.76-1.7,1.7-1.7h9.12c.85,0,1.52.67,1.52,1.52s-.67,1.52-1.52,1.52h-7.43v5.23Z"/>
            <path class="cls-26" d="M660.61,159.01v16.81c0,.91-.76,1.67-1.67,1.67-.56,0-1.08-.29-1.37-.73l-8.63-12.46v11.52c0,.91-.76,1.67-1.67,1.67s-1.67-.76-1.67-1.67v-16.81c0-.91.76-1.67,1.67-1.67.58,0,1.05.26,1.34.7l8.66,12.55v-11.58c0-.91.76-1.67,1.67-1.67s1.67.76,1.67,1.67Z"/>
          </g>
          <g>
            <path class="cls-26" d="M724.78,160.21c-2.43,0-3.33,1.14-3.33,2.31,0,3.83,10.67,2.05,10.67,9.36,0,3.57-2.51,5.79-7.34,5.79-3.48,0-6.26-1.72-7.4-3.57-.15-.23-.23-.53-.23-.82,0-.88.7-1.58,1.55-1.58.64,0,.99.35,1.29.64,1.23,1.23,2.78,2.22,4.8,2.22,2.66,0,3.95-.88,3.95-2.69,0-4.27-10.67-2.31-10.67-9.36,0-2.9,2.08-5.35,6.73-5.35,2.92,0,5.47,1.08,6.64,2.75.18.26.29.58.29.94,0,.85-.7,1.55-1.58,1.55-.41,0-.82-.23-1.26-.64-.91-.88-2.43-1.55-4.09-1.55Z"/>
            <path class="cls-26" d="M745.51,173.34l-4.59-8.16v10.64c0,.91-.76,1.67-1.67,1.67s-1.67-.76-1.67-1.67v-16.81c0-.91.76-1.67,1.67-1.67.73,0,1.2.41,1.49.94l6.2,11.11,6.2-11.11c.29-.53.76-.94,1.49-.94.91,0,1.67.76,1.67,1.67v16.81c0,.91-.76,1.67-1.67,1.67s-1.67-.76-1.67-1.67v-10.64l-4.59,8.16c-.29.53-.85.82-1.43.82s-1.14-.29-1.43-.82Z"/>
            <path class="cls-26" d="M766.56,172.14l-1.78,4.24c-.26.61-.82,1.11-1.58,1.11-.91,0-1.67-.76-1.67-1.67,0-.18.03-.41.12-.61l6.9-16.81c.18-.41.64-1.05,1.55-1.05s1.37.64,1.55,1.05l6.9,16.81c.09.2.12.44.12.61,0,.91-.76,1.67-1.67,1.67-.76,0-1.32-.5-1.58-1.11l-1.78-4.24h-7.08ZM770.1,162.9l-2.4,6.14h4.79l-2.4-6.14Z"/>
            <path class="cls-26" d="M787.28,169.71v6.08c0,.94-.76,1.7-1.7,1.7s-1.7-.76-1.7-1.7v-16.52c0-.94.76-1.7,1.7-1.7h5.58c3.95,0,6.17,2.81,6.17,6.11,0,2.78-1.7,5.47-4.5,5.82l4.33,5.26c.26.35.35.7.35,1.02,0,.94-.76,1.7-1.7,1.7-.5,0-1.02-.23-1.32-.61l-5.32-7.16h-1.9ZM787.28,160.62v6.11h3.95c1.81,0,2.6-1.49,2.6-3.04s-.79-3.07-2.69-3.07h-3.86Z"/>
            <path class="cls-26" d="M810.97,160.56v15.24c0,.94-.76,1.7-1.7,1.7s-1.7-.76-1.7-1.7v-15.24h-4.47c-.82,0-1.49-.67-1.49-1.49s.67-1.49,1.49-1.49h12.34c.82,0,1.49.67,1.49,1.49s-.67,1.49-1.49,1.49h-4.47Z"/>
          </g>
          <g>
            <path class="cls-26" d="M875.18,175.79c0,.94-.76,1.7-1.7,1.7s-1.7-.76-1.7-1.7v-16.76c0-.94.76-1.7,1.7-1.7s1.7.76,1.7,1.7v16.76Z"/>
            <path class="cls-26" d="M896.47,159.01v16.81c0,.91-.76,1.67-1.67,1.67-.56,0-1.08-.29-1.37-.73l-8.63-12.46v11.52c0,.91-.76,1.67-1.67,1.67s-1.67-.76-1.67-1.67v-16.81c0-.91.76-1.67,1.67-1.67.58,0,1.05.26,1.34.7l8.66,12.55v-11.58c0-.91.76-1.67,1.67-1.67s1.67.76,1.67,1.67Z"/>
            <path class="cls-26" d="M910.97,160.56v15.24c0,.94-.76,1.7-1.7,1.7s-1.7-.76-1.7-1.7v-15.24h-4.47c-.82,0-1.49-.67-1.49-1.49s.67-1.49,1.49-1.49h12.34c.82,0,1.49.67,1.49,1.49s-.67,1.49-1.49,1.49h-4.47Z"/>
            <path class="cls-26" d="M922.22,170.82v-11.78c0-.94.76-1.7,1.7-1.7s1.7.76,1.7,1.7v11.78c0,1.78.67,3.86,3.98,3.86s3.98-2.08,3.98-3.86v-11.78c0-.94.76-1.7,1.7-1.7s1.7.76,1.7,1.7v11.78c0,3.33-1.46,6.84-7.37,6.84s-7.37-3.51-7.37-6.84Z"/>
            <path class="cls-26" d="M946.63,175.79c0,.94-.76,1.7-1.7,1.7s-1.7-.76-1.7-1.7v-16.76c0-.94.76-1.7,1.7-1.7s1.7.76,1.7,1.7v16.76Z"/>
            <path class="cls-26" d="M961.28,160.56v15.24c0,.94-.76,1.7-1.7,1.7s-1.7-.76-1.7-1.7v-15.24h-4.47c-.82,0-1.49-.67-1.49-1.49s.67-1.49,1.49-1.49h12.34c.82,0,1.49.67,1.49,1.49s-.67,1.49-1.49,1.49h-4.47Z"/>
            <path class="cls-26" d="M975.92,175.79c0,.94-.76,1.7-1.7,1.7s-1.7-.76-1.7-1.7v-16.76c0-.94.76-1.7,1.7-1.7s1.7.76,1.7,1.7v16.76Z"/>
            <path class="cls-26" d="M987.91,176.41l-6.64-16.73c-.09-.2-.12-.38-.12-.64,0-.94.76-1.7,1.7-1.7.85,0,1.37.53,1.55.99l5.09,13.48,5.09-13.48c.18-.44.7-.99,1.55-.99.94,0,1.7.76,1.7,1.7,0,.26-.03.44-.12.64l-6.64,16.73c-.23.58-.7,1.08-1.58,1.08s-1.34-.5-1.58-1.08Z"/>
            <path class="cls-26" d="M1006.44,165.85h5.53c.82,0,1.49.67,1.49,1.49s-.67,1.49-1.49,1.49h-5.53v5.38h7.75c.85,0,1.52.67,1.52,1.52s-.67,1.52-1.52,1.52h-9.44c-.94,0-1.7-.76-1.7-1.7v-16.29c0-.94.76-1.7,1.7-1.7h9.12c.85,0,1.52.67,1.52,1.52s-.67,1.52-1.52,1.52h-7.43v5.23Z"/>
          </g>
          <circle class="cls-26" cx="689.5" cy="166.7" r="6.07"/>
          <circle class="cls-26" cx="843.48" cy="166.7" r="6.07"/>
        </g>
        <g class="cls-36">
          <rect class="cls-31" x="678.78" y="196.78" width="126.23" height="160.2" transform="translate(-49.77 258.61) rotate(-19.14)"/>
        </g>
        <g class="cls-32">
          <rect class="cls-25" x="779.31" y="211.33" width="51.42" height="126.62" transform="translate(-45.55 279.19) rotate(-19.14)"/>
        </g>
        <g class="cls-39">
          <rect class="cls-5" x="802.31" y="186.35" width="214.78" height="216.45" transform="translate(-46.29 314.62) rotate(-19.14)"/>
        </g>
        <g class="cls-37">
          <rect class="cls-13" x="909.92" y="211.32" width="51.3" height="126.28" transform="translate(-38.27 321.99) rotate(-19.14)"/>
        </g>
        <g class="cls-41">
          <rect class="cls-20" x="933.78" y="196.78" width="126.23" height="160.2" transform="translate(-35.67 342.24) rotate(-19.14)"/>
        </g>
        <g class="cls-34">
          <rect class="cls-30" x="596.38" y="244.56" width="59.8" height="59.8" transform="translate(-55.37 220.56) rotate(-19.14)"/>
        </g>
        <g class="cls-35">
          <rect class="cls-24" x="543.2" y="191.38" width="166.15" height="166.15" transform="translate(-55.37 220.56) rotate(-19.14)"/>
        </g>
      </g>
      <g>
        <g>
          <path class="cls-6" d="M218.17,439.43c-7.9,3.53-13.4,11.43-13.4,20.63s5.5,17.09,13.4,20.61v2.07H50.19c-7.16,0-12.96-5.8-12.96-12.96v-19.44c0-7.16,5.8-12.95,12.96-12.95h167.98v2.05Z"/>
          <path class="cls-6" d="M218.17,382.08c-7.9,3.53-13.4,11.43-13.4,20.62s5.5,17.1,13.4,20.62v2.07H50.19c-7.16,0-12.96-5.8-12.96-12.96v-19.44c0-7.16,5.8-12.96,12.96-12.96h167.98v2.05Z"/>
          <path class="cls-26" d="M50.19,431.34c-10.46,0-18.97-8.49-18.97-18.92v-19.44c0-10.45,8.51-18.96,18.97-18.96h168.81c3.33,0,6.04,2.71,6.04,6.04s-2.7,6.04-6.02,6.08l-168.83-.12c-3.84,0-6.96,3.12-6.96,6.96v19.44c0,3.84,3.12,6.96,6.96,6.96h168.92c3.27,0,5.92,2.66,5.92,5.93s-2.66,6.04-5.92,6.04H50.19Z"/>
          <path class="cls-18" d="M50.19,488.66c-10.46,0-18.97-8.47-18.97-18.89v-19.44c0-10.47,8.51-18.99,18.97-18.99h168.81c3.33,0,6.04,2.73,6.04,6.08s-2.7,6.05-6.02,6.08l-168.83-.12c-3.84,0-6.96,3.12-6.96,6.95v19.44c0,3.84,3.12,6.96,6.96,6.96h168.92c3.27,0,5.92,2.66,5.92,5.93s-2.66,6-5.92,6H50.19Z"/>
          <path class="cls-6" d="M218.01,324.71c-7.89,3.53-13.4,11.44-13.4,20.63s5.51,17.09,13.4,20.61v2.07H50.02c-7.15,0-12.96-5.8-12.96-12.96v-19.44c0-7.15,5.81-12.95,12.96-12.95h167.98v2.04Z"/>
          <path class="cls-15" d="M50.02,374.03c-10.46,0-18.96-8.51-18.96-18.97v-19.44c0-10.45,8.51-18.96,18.96-18.96h168.81c3.33,0,6.03,2.71,6.03,6.04s-2.7,6.04-6.01,6.08l-168.84-.11c-3.83,0-6.95,3.12-6.95,6.96v19.44c0,3.84,3.12,6.97,6.96,6.97h168.93c3.26,0,5.92,2.66,5.92,5.92,0,3.43-3.69,6.08-6.86,6.08H50.02Z"/>
        </g>
        <g>
          <path class="cls-18" d="M248.81,243.51l-114.49-4.34h0c1.65-2.26,4.33-3.56,7.13-3.45l107.45,4.07-.08,3.72Z"/>
          <polygon class="cls-19" points="134.32 238.76 22.52 243.64 22.52 253.8 134.32 253.8 246.11 253.8 246.11 243.64 134.32 238.76"/>
          <rect class="cls-21" x="82.69" y="253.8" width="96.75" height="61.92"/>
          <rect class="cls-18" x="246.11" y="241.28" width="2.79" height="33.15"/>
          <path class="cls-14" d="M250.55,276.63c0,1.75-1.42,3.16-3.16,3.16s-3.16-1.42-3.16-3.16,1.42-3.16,3.16-3.16,3.16,1.42,3.16,3.16Z"/>
          <path class="cls-18" d="M252.69,290.99h-9.76v-9.3c0-2.02,1.64-3.66,3.66-3.66h2.44c2.02,0,3.66,1.64,3.66,3.66v9.3Z"/>
        </g>
      </g>
      <g>
        <path class="cls-21" d="M876.53,406c1.11,0,2.01.9,2.01,2.01,0,1.11-.9,2.01-2.01,2.01h-7.29s0-4.02,0-4.02h7.29Z"/>
        <rect class="cls-16" x="566.76" y="394.82" width="286.93" height="26.38"/>
        <polygon class="cls-17" points="867.93 403.11 867.93 412.81 853.76 421.19 853.76 394.84 867.93 403.11"/>
        <polygon class="cls-28" points="872.14 405.31 872.14 410.71 867.93 412.82 867.93 403.2 872.14 405.31"/>
        <path class="cls-21" d="M828.1,391.4c2.11,0,3.82,1.72,3.82,3.83v25.57c0,2.11-1.71,3.83-3.82,3.83h-102.05c-2.11,0-3.83-1.72-3.83-3.83v-25.57c0-2.11,1.72-3.83,3.83-3.83h102.05Z"/>
        <path class="cls-21" d="M566.76,394.82v26.38s-6.81,0-6.81,0c-2.12,0-3.84-1.72-3.84-3.84v-18.71c0-2.11,1.72-3.83,3.84-3.83h6.81Z"/>
        <polygon class="cls-21" points="582.52 394.82 594.39 382.95 604.23 382.95 592.34 394.85 582.52 394.82"/>
        <path class="cls-21" d="M667.15,379.59c1.58,0,2.88,1.29,2.88,2.87s-1.29,2.88-2.88,2.88h-75.05s5.54-5.75,5.54-5.75h69.51Z"/>
      </g>
      <g>
        <path class="cls-17" d="M425.86,446.47c7.12,0,12.89,5.78,12.89,12.89,0,7.12-5.77,12.89-12.89,12.89-7.12,0-12.89-5.77-12.89-12.89,0-7.11,5.77-12.89,12.89-12.89Z"/>
        <rect class="cls-26" x="436.15" y="446.44" width="259.06" height="25.95"/>
        <rect class="cls-27" x="436.15" y="446.44" width="259.06" height="12.98"/>
        <polygon class="cls-17" points="707.96 459.22 695.21 446.44 695.21 459.22 695.21 459.42 695.21 472.2 707.96 459.42 708.15 459.42 708.05 459.32 708.15 459.22 707.96 459.22"/>
        <polygon class="cls-8" points="703.75 455.25 703.75 463.64 703.75 463.64 707.96 459.42 708.15 459.42 708.05 459.32 708.15 459.22 707.96 459.22 704 455.25 703.75 455.25"/>
        <rect class="cls-19" x="425.86" y="446.44" width="10.29" height="25.95"/>
      </g>
      <g>
        <path class="cls-21" d="M327.74,210.01c-14.68-49.02,13.89-118.37,62.91-133.05,3.67-1.1,7.35-1.96,11.02-2.59l21.79,72.76c-8.59-.75-17.03-1.89-26.14-4.1-24.38-5.93-38.07,13.03-43.04,34.64-4.26,18.5,1.22,41.11,26.78,57.21,6.6,4.15,16.85,7.97,23.96,8.72.28.02,3.38.22,4.21-1.97.63-1.67-.49-3.03-.49-3.03l16.8-5.07,28.62,41.37-9.9,2.93.03.02s-.04.01-.07.02h0s0,0,0,0c-47.13,10.71-102.39-20.88-116.46-67.86Z"/>
        <rect class="cls-16" x="398.86" y="15.19" width="21.17" height="39.61" transform="translate(7.17 118.91) rotate(-16.67)"/>
        <rect class="cls-12" x="398.82" y="14.89" width="10.59" height="41.47" transform="translate(6.76 117.38) rotate(-16.66)"/>
        <path class="cls-21" d="M398.36,61.61c-.46-1.51.41-3.11,1.92-3.56l29.49-8.83c1.52-.46,3.12.41,3.57,1.92l.17.56-34.98,10.48-.17-.56Z"/>
        <path class="cls-21" d="M432.5,181.12s9.11,1.57,21.43-2.12c11.58-3.47,16.56-9.26,16.56-9.26l-34.3-114.56-37.99,11.38,34.3,114.56Z"/>
        <rect class="cls-12" x="414.97" y="59.56" width="15.62" height="123.74" transform="translate(-17.06 126.46) rotate(-16.68)"/>
        <path class="cls-19" d="M394.85,66.85c-.62-2.09.56-4.29,2.65-4.92l36.74-11c2.09-.63,4.29.56,4.92,2.65l.23.77-44.31,13.27-.23-.77Z"/>
        <path class="cls-19" d="M390.78,19.38c.1.34.46.53.8.43l24.45-7.32c.34-.1.53-.46.43-.81l-.78-2.58c-.1-.34-.46-.53-.8-.43l-24.45,7.32c-.34.1-.53.46-.43.8l.78,2.59Z"/>
        <path class="cls-16" d="M429.91,186.19c.66,2.2,2.97,3.44,5.16,2.79l67.94-20.34c2.19-.66,3.44-2.97,2.78-5.16h0c-.66-2.19-2.97-3.44-5.16-2.78l-67.94,20.34c-2.19.66-3.44,2.97-2.78,5.16h0Z"/>
        <path class="cls-9" d="M453.12,208.56l-5.77-19.28,14.69-4.4,5.78,19.27s0,.02,0,.03c.56,1.87-2.27,4.37-6.32,5.59-4.05,1.22-7.81.69-8.37-1.18,0-.01,0-.03,0-.04Z"/>
        <path class="cls-12" d="M453.02,208.58l-5.77-19.28,7.35-2.2,4.77,15.92,1.01,3.39,1.01,3.39c-4.05,1.21-7.8.69-8.36-1.18,0-.01,0-.02,0-.03Z"/>
        <path class="cls-21" d="M465.88,182.53c.49,1.62-.44,3.33-2.06,3.82l-17.16,5.14c-1.62.49-3.33-.44-3.82-2.06h0c-.49-1.62.44-3.33,2.06-3.82l17.16-5.14c1.63-.49,3.34.44,3.82,2.06h0Z"/>
        <path class="cls-9" d="M487.49,192.15l-4.38-14.64,11.16-3.34,4.38,14.64s0,.02,0,.02c.42,1.42-1.73,3.32-4.81,4.25-3.08.92-5.93.52-6.35-.9,0-.01,0-.02,0-.03Z"/>
        <path class="cls-12" d="M487.49,192.18s0-.02,0-.03l-4.38-14.64,5.58-1.67,5.16,17.23c-3.08.92-5.92.52-6.35-.9Z"/>
        <path class="cls-21" d="M497.18,172.39c.37,1.23-.32,2.53-1.56,2.9l-13.04,3.91c-1.23.37-2.53-.33-2.9-1.57h0c-.37-1.23.33-2.53,1.57-2.9l13.04-3.9c1.23-.37,2.53.33,2.9,1.57h0Z"/>
        <path class="cls-26" d="M392.93,109.07c2.73,9.12,12.34,14.3,21.46,11.57,9.12-2.73,14.3-12.34,11.57-21.46-2.73-9.13-12.34-14.31-21.46-11.57-9.12,2.73-14.3,12.34-11.57,21.46Z"/>
        <path class="cls-16" d="M397.78,107.62c1.93,6.44,8.72,10.1,15.16,8.17,6.44-1.93,10.1-8.72,8.17-15.16-1.93-6.44-8.72-10.1-15.16-8.17-6.44,1.93-10.1,8.71-8.17,15.16Z"/>
        <path class="cls-21" d="M406.13,105.12c.55,1.83,2.48,2.87,4.31,2.32,1.83-.54,2.87-2.48,2.33-4.31-.55-1.84-2.48-2.87-4.31-2.32-1.83.55-2.88,2.48-2.32,4.31Z"/>
        <path class="cls-26" d="M400.56,134.21c1.04,3.49,4.73,5.48,8.22,4.43,3.49-1.05,5.48-4.73,4.43-8.22-1.05-3.5-4.73-5.48-8.22-4.43-3.49,1.05-5.48,4.73-4.43,8.22Z"/>
        <path class="cls-21" d="M405.28,132.8c.26.89,1.2,1.39,2.09,1.13.89-.27,1.39-1.2,1.13-2.09-.27-.89-1.2-1.39-2.09-1.13-.89.27-1.39,1.2-1.13,2.09Z"/>
        <path class="cls-21" d="M400.78,236.85c.7,2.33,3.15,3.66,5.48,2.96l102.76-30.77c2.33-.69,3.65-3.15,2.96-5.48-.7-2.33-3.16-3.66-5.49-2.96l-102.76,30.77c-2.33.7-3.66,3.15-2.96,5.48Z"/>
        <path class="cls-16" d="M506.5,200.6c1.94-.58,3.96.25,4.99,1.9.07,1.96-1.16,3.8-3.12,4.38l-102.76,30.77c-1.95.58-3.97-.26-4.99-1.9-.07-1.96,1.16-3.8,3.12-4.38l102.76-30.77Z"/>
        <path class="cls-21" d="M427.79,265.45c0-9.02-13.13-13.49-20.68-7.04l-16.71,14.28-37.38,31.95h74.77v-39.19Z"/>
        <path class="cls-12" d="M390.4,272.69l16.71-14.28c3.29-2.81,7.65-3.55,11.51-2.74-2,.43-3.92,1.32-5.59,2.74l-16.7,14.28-37.38,31.95h-5.92l37.38-31.95Z"/>
        <path class="cls-21" d="M338.75,310.46c0,3.94,3.2,7.14,7.14,7.14h168.65c3.95,0,7.14-3.2,7.14-7.14s-3.2-7.14-7.14-7.14h-168.65c-3.94,0-7.14,3.2-7.14,7.14Z"/>
        <path class="cls-16" d="M345.89,303.32h168.65c2.86,0,5.31,1.69,6.45,4.12-.16,3.8-3.27,6.85-7.11,6.85h-168.65c-2.86,0-5.31-1.69-6.45-4.12.16-3.8,3.27-6.85,7.11-6.85Z"/>
        <g>
          <path class="cls-21" d="M415.89,261.07c2.96,0,5.36,2.4,5.36,5.36s-2.4,5.36-5.36,5.36-5.35-2.4-5.35-5.36,2.39-5.36,5.35-5.36Z"/>
          <path class="cls-16" d="M415.89,261.07c2.96,0,5.36,2.4,5.36,5.36s-2.4,5.36-5.36,5.36-5.35-2.4-5.35-5.36,2.39-5.36,5.35-5.36ZM412.19,267.43c0,.23.18.41.41.41h.37c.81,0,1.47.66,1.47,1.47v.37c0,.23.18.41.41.41h1.95c.22,0,.41-.18.41-.41v-.37c0-.81.66-1.47,1.47-1.47h.37c.22,0,.41-.18.41-.41v-1.95c0-.23-.18-.41-.41-.41h-.37c-.81,0-1.47-.65-1.47-1.46v-.37c0-.23-.19-.41-.41-.41h-1.95c-.23,0-.41.18-.41.41v.37c0,.81-.66,1.46-1.47,1.46h-.37c-.23,0-.41.18-.41.41v1.95Z"/>
        </g>
      </g>
      <g>
        <path class="cls-16" d="M1200.41,45.32c0,2.33-1.89,4.22-4.22,4.22h-32.83c-2.34,0-4.23-1.89-4.23-4.22s1.89-4.23,4.23-4.23h32.83c2.33,0,4.22,1.89,4.22,4.23Z"/>
        <rect class="cls-16" x="1169.02" y="46.12" width="21.49" height="62.09"/>
        <path class="cls-16" d="M1187.73,88.31h-15.92l-50.94,120.9c-4.16,9.87,3.08,20.79,13.8,20.79h90.19c10.72,0,17.97-10.92,13.81-20.79l-50.94-120.9Z"/>
        <path class="cls-26" d="M1202.64,144.03h-45.75l-24.77,58.8c-3.36,7.99,2.49,16.82,11.16,16.82h72.97c8.67,0,14.54-8.83,11.17-16.82l-24.77-58.8Z"/>
      </g>
      <g>
        <path class="cls-16" d="M217.63,32.48c0,1.91-1.54,3.45-3.45,3.45h-26.84c-1.91,0-3.46-1.54-3.46-3.45s1.54-3.46,3.46-3.46h26.84c1.91,0,3.45,1.55,3.45,3.46Z"/>
        <rect class="cls-16" x="191.97" y="33.13" width="17.57" height="50.76"/>
        <path class="cls-16" d="M207.27,67.62h-13.02l-41.64,98.84c-3.4,8.07,2.52,17,11.28,17h73.74c8.77,0,14.69-8.93,11.29-17l-41.65-98.84Z"/>
        <path class="cls-15" d="M219.46,113.17h-37.4l-20.25,48.07c-2.75,6.53,2.04,13.75,9.13,13.75h59.65c7.09,0,11.88-7.22,9.13-13.75l-20.25-48.07Z"/>
      </g>
      <g>
        <path class="cls-17" d="M842.66,19.53c-3.31,0-6,2.69-6,6h0s-.17,0-.17,0c0,.04.01.09.01.13,0,2.76-2.24,5-5,5s-4.99-2.24-4.99-5c0-.26.04-.52.08-.77-.1-2.98-2.52-5.36-5.52-5.36s-5.54,2.48-5.54,5.54v.47h-.18s.01.09.01.13c0,2.76-2.24,5-5,5s-5-2.24-5-5c0-.27.04-.54.08-.8-.11-2.96-2.53-5.33-5.51-5.33s-5.54,2.48-5.54,5.54v.47h-.08s.01.09.01.13c0,2.76-2.24,5-5,5s-5-2.24-5-5c0-.04.01-.09.01-.13h-.01v-.47c0-3.06-2.48-5.54-5.53-5.54s-5.53,2.48-5.53,5.54v.47h-.09s.02.09.02.13c0,2.76-2.24,5-5,5s-4.99-2.24-4.99-5c0-.04,0-.09,0-.13h0v-.47c0-3.06-2.48-5.54-5.53-5.54s-5.54,2.48-5.54,5.54v.47h-.19s.01.09.01.13c0,2.76-2.24,5-4.99,5s-5-2.24-5-5c0-.21.03-.41.06-.62-.27-3.09-2.83-5.52-5.99-5.52-3.34,0-6.04,2.71-6.04,6.05v-.04h-.12s.01.09.01.13c0,2.76-2.24,5-5,5s-5-2.24-5-5c0-.21.04-.41.06-.62-.27-3.09-2.83-5.52-5.99-5.52-3.34,0-6.04,2.71-6.04,6.05v108.57h118.68l22.06-22.06V25.53c0-3.31-2.69-6-6-6Z"/>
        <rect class="cls-21" x="718.88" y="42.63" width="118.81" height="8.75"/>
        <rect class="cls-21" x="766.87" y="57.35" width="70.73" height="4.92"/>
        <rect class="cls-21" x="766.87" y="69" width="70.73" height="4.92"/>
        <rect class="cls-21" x="766.87" y="80.64" width="70.73" height="4.92"/>
        <rect class="cls-21" x="766.87" y="92.29" width="70.73" height="4.92"/>
        <rect class="cls-21" x="766.87" y="103.94" width="46.77" height="4.92"/>
        <rect class="cls-21" x="718.88" y="57.35" width="40.5" height="51.5"/>
        <polygon class="cls-10" points="848.64 112.1 826.57 112.1 826.57 134.14 826.6 134.14 848.64 112.1"/>
      </g>
      <g>
        <path class="cls-21" d="M1553.61,166.71c0,5.32-4.44,9.63-9.91,9.63h-233.12c-5.47,0-9.91-4.31-9.91-9.63V36.5c0-5.32,4.44-9.63,9.91-9.63h233.12c5.47,0,9.91,4.31,9.91,9.63v130.21Z"/>
        <polygon class="cls-26" points="1426.56 44.57 1424.53 35.3 1355.93 35.24 1333.26 12.58 1310.64 35.2 1310.44 35.2 1310.44 166.56 1426.56 166.56 1426.56 44.57"/>
        <polygon class="cls-26" points="1426.56 166.56 1542.68 166.56 1542.68 35.2 1542.48 35.2 1519.86 12.58 1497.24 35.2 1429.97 35.2 1426.56 44.57 1426.56 166.56"/>
        <rect class="cls-18" x="1313.12" y="37.7" width="7.88" height="25"/>
        <rect class="cls-18" x="1317.06" y="105.65" width="10.65" height="25"/>
        <rect class="cls-18" x="1526.39" y="71.15" width="10.66" height="27.59"/>
        <polygon class="cls-15" points="1310.44 166.56 1542.68 166.56 1542.68 166.56 1519.86 144.22 1333.27 144.22 1310.44 166.56"/>
        <path class="cls-7" d="M1442.33,12.53l77.53.15v131.4l-77.53-.15c-9.48,0-14.67,6.3-15.6,13.43h-.17V28.3c0-8.03,5.26-15.77,15.77-15.77Z"/>
        <rect class="cls-21" x="1439.78" y="58.69" width="66.87" height="7.16"/>
        <rect class="cls-21" x="1439.78" y="74.34" width="66.87" height="7.16"/>
        <rect class="cls-21" x="1439.78" y="89.99" width="66.87" height="7.16"/>
        <rect class="cls-21" x="1439.78" y="27.39" width="66.87" height="7.16"/>
        <rect class="cls-21" x="1439.78" y="43.04" width="66.87" height="7.16"/>
        <rect class="cls-21" x="1439.78" y="105.65" width="66.87" height="7.16"/>
        <rect class="cls-21" x="1439.78" y="121.3" width="66.87" height="7.16"/>
        <path class="cls-17" d="M1410.8,12.53l-77.53.15v131.4l77.53-.15c9.48,0,14.67,6.3,15.6,13.43h.17V28.3c0-8.03-5.26-15.77-15.77-15.77Z"/>
        <rect class="cls-21" x="1346.26" y="26.25" width="66.87" height="23.95"/>
        <rect class="cls-21" x="1346.26" y="58.69" width="66.87" height="7.16"/>
        <rect class="cls-21" x="1346.26" y="74.34" width="66.87" height="7.16"/>
        <rect class="cls-21" x="1346.26" y="89.99" width="66.87" height="7.16"/>
        <rect class="cls-21" x="1346.26" y="105.65" width="66.87" height="7.16"/>
        <rect class="cls-21" x="1346.26" y="121.3" width="66.87" height="7.16"/>
      </g>
      <g>
        <g>
          <path class="cls-21" d="M1423.84,486.14c0,2-1.8,3.61-4.01,3.61h-129.25v-164.43h129.25c2.21,0,4.01,1.62,4.01,3.61v157.2Z"/>
          <path class="cls-23" d="M1281.1,325.32h18.98c1.99,0,3.61,1.62,3.61,3.61v157.2c0,1.99-1.62,3.61-3.61,3.61h-18.97c-2,0-3.62-1.62-3.62-3.62v-157.2c0-1.99,1.62-3.61,3.61-3.61Z"/>
          <path class="cls-23" d="M1409.84,359.65c0,2-1.62,3.61-3.61,3.61h-84.93c-2,0-3.62-1.62-3.62-3.61v-8.58c0-2,1.62-3.61,3.62-3.61h84.93c2,0,3.61,1.62,3.61,3.61v8.58Z"/>
          <path class="cls-23" d="M1409.84,378.62c0,2-1.62,3.62-3.61,3.62h-84.93c-2,0-3.62-1.62-3.62-3.62v-6.78c0-2,1.62-3.61,3.62-3.61h84.93c2,0,3.61,1.62,3.61,3.61v6.78Z"/>
          <path class="cls-23" d="M1345.92,413.86h35.69c1.99,0,3.61,1.62,3.61,3.61v35.84c0,1.99-1.62,3.61-3.61,3.61h-35.69c-1.99,0-3.61-1.62-3.61-3.61v-35.84c0-1.99,1.62-3.61,3.61-3.61Z"/>
        </g>
        <g>
          <path class="cls-18" d="M1440.48,486.14c0,2-1.62,3.61-3.61,3.61h-53.68v-101.49h53.68c1.99,0,3.61,1.62,3.61,3.61v94.26Z"/>
          <path class="cls-15" d="M1371.97,388.26h12.8c1.99,0,3.61,1.62,3.61,3.61v94.26c0,1.99-1.62,3.61-3.61,3.61h-12.8c-1.99,0-3.61-1.62-3.61-3.61v-94.26c0-1.99,1.62-3.61,3.61-3.61Z"/>
        </g>
        <rect class="cls-19" x="1448.69" y="353.03" width="104.2" height="136.72" rx="3.61" ry="3.61"/>
        <rect class="cls-16" x="1481.21" y="368.69" width="58.73" height="8.58"/>
        <rect class="cls-16" x="1481.21" y="388.11" width="58.73" height="8.58"/>
        <path class="cls-23" d="M1416.77,353.03h42.76c1.99,0,3.61,1.62,3.61,3.61v129.5c0,1.99-1.62,3.61-3.61,3.61h-42.76c-1.99,0-3.61-1.62-3.61-3.61v-129.5c0-1.99,1.62-3.61,3.61-3.61Z"/>
        <rect class="cls-11" x="1413.46" y="368.69" width="49.69" height="8.58"/>
        <rect class="cls-11" x="1413.46" y="464.68" width="49.69" height="8.58"/>
      </g>
      <g>
        <path class="cls-14" d="M1209.85,368.22l49.67-53.82h0c-1.77-.28-3.57.35-4.79,1.66l-46.53,50.47,1.65,1.68Z"/>
        <polygon class="cls-21" points="1259.33 314.21 1312.18 265.79 1316.78 270.39 1266.15 321.02 1215.52 371.65 1210.92 367.05 1259.33 314.21"/>
        <rect class="cls-19" x="1250.66" y="313.74" width="61.97" height="39.66" transform="translate(139.52 1003.96) rotate(-45)"/>
        <path class="cls-14" d="M1207.38,401.31c0,1.12.91,2.03,2.02,2.02,1.12,0,2.03-.9,2.03-2.02,0-1.12-.91-2.03-2.03-2.03s-2.02.91-2.02,2.02Z"/>
        <path class="cls-14" d="M1206.02,410.5h6.25s0-5.95,0-5.95c0-1.29-1.05-2.34-2.34-2.34h-1.56c-1.3,0-2.35,1.05-2.35,2.34v5.95Z"/>
        <rect class="cls-14" x="1208.05" y="366.21" width="2.7" height="41.33"/>
      </g>
      <g>
        <rect class="cls-2" x="281.8" y="329.41" width="87.81" height="87.81"/>
        <line class="cls-1" x1="325.71" y1="373.32" x2="358.64" y2="340.39"/>
        <path class="cls-1" d="M348.99,350.03c-12.86-12.83-33.68-12.8-46.51.05-12.83,12.86-12.8,33.68.05,46.51,12.86,12.83,33.68,12.8,46.51-.05,9.84-9.86,12.4-24.86,6.38-37.42"/>
        <path class="cls-1" d="M337.35,361.68c-6.43-6.43-16.86-6.42-23.28.01-6.43,6.43-6.42,16.86.01,23.28,6.43,6.43,16.86,6.42,23.28-.01,3.32-3.32,5.06-7.9,4.79-12.58"/>
      </g>
      <g>
        <rect class="cls-2" x="1076.2" y="274.54" width="87.81" height="87.81"/>
        <path class="cls-1" d="M1109.13,345.89h-8.23c-10.61-.01-19.2-8.62-19.18-19.23.01-10.61,8.62-19.2,19.23-19.18,1.59,0,3.18.2,4.73.6"/>
        <path class="cls-1" d="M1103.64,318.45c0-15.16,12.29-27.44,27.44-27.44s27.44,12.29,27.44,27.44c0,5.94-1.93,11.71-5.49,16.46"/>
        <polyline class="cls-1" points="1117.36 334.91 1128.34 345.89 1139.31 334.91"/>
        <line class="cls-1" x1="1128.34" y1="318.45" x2="1128.34" y2="345.89"/>
      </g>
      <g>
        <rect class="cls-2" x="31.38" y="133.22" width="87.81" height="87.81"/>
        <rect class="cls-1" x="39.62" y="152.43" width="71.35" height="13.72" rx="2.74" ry="2.74"/>
        <path class="cls-1" d="M105.47,166.15v32.93c0,1.52-1.23,2.74-2.74,2.74h-54.88c-1.52,0-2.74-1.23-2.74-2.74v-32.93"/>
        <line class="cls-1" x1="67.06" y1="179.87" x2="83.52" y2="179.87"/>
      </g>
      <g>
        <rect class="cls-2" x="1125.43" y="407.34" width="87.81" height="87.81"/>
        <circle class="cls-29" cx="1169.34" cy="477.31" r="4.12"/>
        <path class="cls-1" d="M1205.01,439.3c-20.74-17.01-50.61-17.01-71.35,0"/>
        <path class="cls-1" d="M1194.04,451.59c-14.47-11.46-34.92-11.46-49.39,0"/>
        <path class="cls-1" d="M1183.06,463.94c-8.18-5.95-19.26-5.95-27.44,0"/>
      </g>
      <g>
        <rect class="cls-2" x="894.11" y="28.04" width="87.81" height="87.81"/>
        <line class="cls-1" x1="932.53" y1="77.43" x2="940.76" y2="85.66"/>
        <line class="cls-2" x1="932.53" y1="77.43" x2="940.76" y2="85.66"/>
        <line class="cls-1" x1="943.51" y1="66.45" x2="951.74" y2="74.69"/>
        <line class="cls-2" x1="943.51" y1="66.45" x2="951.74" y2="74.69"/>
        <line class="cls-1" x1="959.97" y1="66.45" x2="932.53" y2="93.9"/>
        <line class="cls-1" x1="962.01" y1="95.93" x2="973.69" y2="107.62"/>
        <path class="cls-1" d="M936.65,89.78l9.95,9.95c3.21,3.21,8.43,3.21,11.64,0l7.57-7.58c3.21-3.21,3.21-8.42,0-11.63l-9.95-9.95"/>
        <line class="cls-1" x1="943.51" y1="49.99" x2="916.07" y2="77.43"/>
        <line class="cls-1" x1="914.03" y1="47.95" x2="902.35" y2="36.27"/>
        <path class="cls-1" d="M920.18,73.31l-9.95-9.95c-3.21-3.21-3.21-8.43,0-11.64l7.58-7.57c3.21-3.21,8.42-3.21,11.63,0l9.95,9.95"/>
      </g>
      <g>
        <rect class="cls-2" x="261.83" y="24.33" width="87.81" height="87.81"/>
        <line class="cls-1" x1="297.5" y1="54.52" x2="313.97" y2="54.52"/>
        <path class="cls-1" d="M340.58,77.27l-14.97-34.07c-3.21-3.21-8.43-3.21-11.64,0v38.76"/>
        <path class="cls-1" d="M297.5,81.96v-38.76c-3.21-3.21-8.43-3.21-11.64,0l-14.97,34.07"/>
        <circle class="cls-1" cx="283.78" cy="81.96" r="13.72"/>
        <circle class="cls-1" cx="327.69" cy="81.96" r="13.72"/>
      </g>
      <g>
        <rect class="cls-2" x="1016.36" y="43.01" width="87.81" height="87.81"/>
        <path class="cls-1" d="M1093.19,89.66c-1.4,16.9-15.67,30.18-32.93,30.18-18.19,0-32.93-14.74-32.93-32.93s13.28-31.53,30.18-32.93"/>
        <polyline class="cls-1" points="1060.26 67.7 1060.26 86.91 1079.47 86.91"/>
        <circle class="cls-29" cx="1071.24" cy="55.36" r="4.12"/>
        <circle class="cls-29" cx="1083.59" cy="63.59" r="4.12"/>
        <circle class="cls-29" cx="1091.82" cy="75.94" r="4.12"/>
      </g>
      <g>
        <rect class="cls-2" x="31.38" y="23.31" width="87.81" height="87.81"/>
        <rect class="cls-1" x="45.11" y="37.03" width="60.37" height="60.37" rx="2.74" ry="2.74"/>
        <line class="cls-1" x1="91.75" y1="31.54" x2="91.75" y2="42.51"/>
        <line class="cls-1" x1="58.83" y1="31.54" x2="58.83" y2="42.51"/>
        <line class="cls-1" x1="45.11" y1="53.49" x2="105.47" y2="53.49"/>
        <polyline class="cls-1" points="61.57 67.21 67.06 64.47 67.06 86.42"/>
        <path class="cls-1" d="M78.77,67.21c1.52-2.62,4.88-3.51,7.5-1.99,2.62,1.52,3.51,4.88,1.99,7.5-.11.18-.23.36-.35.53l-9.87,13.16h10.98"/>
      </g>
      <g>
        <rect class="cls-2" x="1016.61" y="381.4" width="87.81" height="87.81"/>
        <line class="cls-1" x1="1027.59" y1="403.36" x2="1027.59" y2="430.8"/>
        <path class="cls-1" d="M1035.82,455.49c5.39-8.26,14.1-13.72,24.7-13.72s19.31,5.46,24.7,13.72"/>
        <polygon class="cls-1" points="1093.45 403.36 1060.52 414.33 1027.59 403.36 1060.52 392.38 1093.45 403.36"/>
        <path class="cls-1" d="M1074.7,409.6c7.16,7.83,6.61,19.98-1.22,27.14-7.83,7.16-19.98,6.61-27.14-1.22-6.7-7.34-6.7-18.58,0-25.91"/>
      </g>
      <g>
        <rect class="cls-2" x="1466.71" y="217.34" width="87.81" height="87.81"/>
        <rect class="cls-1" x="1480.43" y="247.52" width="60.37" height="43.91" rx="2.74" ry="2.74"/>
        <path class="cls-1" d="M1496.89,247.52v-10.98c0-7.58,6.14-13.72,13.72-13.72,6.64,0,12.45,4.71,13.72,10.98"/>
        <circle class="cls-1" cx="1510.61" cy="265.36" r="6.86"/>
        <line class="cls-1" x1="1510.61" y1="272.22" x2="1510.61" y2="280.45"/>
      </g>
      <g>
        <rect class="cls-2" x="907.2" y="396.05" width="87.81" height="87.81"/>
        <path class="cls-1" d="M929.15,470.14c-1.52,0-2.74-1.23-2.74-2.74v-14.64c-4.79,2.27-10.52.22-12.79-4.57-2.27-4.79-.22-10.52,4.57-12.79,2.6-1.23,5.61-1.23,8.22,0v-14.64c0-1.52,1.23-2.74,2.74-2.74h16.02c-2.27-4.79-.23-10.52,4.57-12.79,4.79-2.27,10.52-.23,12.79,4.57,1.23,2.6,1.23,5.62,0,8.22h16.02c1.52,0,2.74,1.23,2.74,2.74v14.64c-4.79-2.27-10.52-.22-12.79,4.57-2.27,4.79-.22,10.52,4.57,12.79,2.6,1.23,5.61,1.23,8.22,0v14.64c0,1.52-1.23,2.74-2.74,2.74h-49.39Z"/>
      </g>
      <g>
        <rect class="cls-2" x="398.62" y="343.17" width="87.81" height="87.81"/>
        <circle class="cls-1" cx="434.29" cy="392.56" r="10.98"/>
        <path class="cls-1" d="M416.93,414.51c4.54-9.59,15.99-13.68,25.58-9.14,4.01,1.9,7.24,5.13,9.14,9.14h21.06c1.52,0,2.74-1.23,2.74-2.74v-49.39c0-1.52-1.23-2.74-2.74-2.74h-60.37c-1.52,0-2.74,1.23-2.74,2.74v49.39c0,1.52,1.23,2.74,2.74,2.74h4.59Z"/>
      </g>
      <g>
        <rect class="cls-2" x="246.13" y="409.28" width="87.81" height="87.81"/>
        <circle class="cls-1" cx="290.04" cy="423" r="8.23"/>
        <path class="cls-1" d="M259.51,444.58c-4.01-1.85-2.69-7.85,1.72-7.85h57.63c4.41,0,5.73,6,1.72,7.85l-19.55,8.61,7.84,29.82c.93,2.07,0,4.51-2.07,5.44-2.03.91-4.42.04-5.39-1.96l-11.36-19.58-11.36,19.58c-.99,2.05-3.45,2.9-5.5,1.91-2.01-.97-2.87-3.36-1.96-5.39l7.84-29.82-19.55-8.61Z"/>
      </g>
      <g>
        <rect class="cls-2" x="580.43" y="33.48" width="87.81" height="87.81"/>
        <rect class="cls-1" x="596.89" y="47.2" width="21.95" height="60.37" rx="2.74" ry="2.74"/>
        <path class="cls-1" d="M655.09,104.06l-16.06,3.43c-1.48.32-2.94-.63-3.26-2.11,0,0,0-.01,0-.02l-11.38-54.11c-.32-1.49.62-2.95,2.11-3.28l16.06-3.43c1.48-.32,2.94.63,3.26,2.11,0,0,0,.01,0,.02l11.38,54.11c.32,1.49-.62,2.95-2.11,3.28Z"/>
        <line class="cls-1" x1="596.89" y1="58.18" x2="618.85" y2="58.18"/>
        <line class="cls-1" x1="596.89" y1="96.59" x2="618.85" y2="96.59"/>
        <line class="cls-1" x1="626.1" y1="59.37" x2="647.53" y2="54.77"/>
        <line class="cls-1" x1="628.38" y1="70.19" x2="649.8" y2="65.59"/>
        <line class="cls-1" x1="634.07" y1="97.26" x2="655.49" y2="92.65"/>
      </g>
      <g>
        <rect class="cls-2" x="1344.15" y="193.68" width="87.81" height="87.81"/>
        <path class="cls-1" d="M1388.05,223.87c0-6.06,4.91-10.98,10.98-10.98h21.95c1.52,0,2.74,1.23,2.74,2.74v43.91c0,1.52-1.23,2.74-2.74,2.74h-21.95c-6.06,0-10.98,4.91-10.98,10.98"/>
        <path class="cls-1" d="M1352.38,259.54c0,1.52,1.23,2.74,2.74,2.74h21.95c6.06,0,10.98,4.91,10.98,10.98v-49.39c0-6.06-4.91-10.98-10.98-10.98h-21.95c-1.52,0-2.74,1.23-2.74,2.74v43.91Z"/>
        <line class="cls-1" x1="1399.03" y1="226.61" x2="1412.75" y2="226.61"/>
        <line class="cls-1" x1="1399.03" y1="237.59" x2="1412.75" y2="237.59"/>
        <line class="cls-1" x1="1399.03" y1="248.56" x2="1412.75" y2="248.56"/>
      </g>
      <g>
        <rect class="cls-2" x="477.86" y="33.86" width="87.81" height="87.81"/>
        <line class="cls-1" x1="510.79" y1="77.76" x2="532.74" y2="77.76"/>
        <line class="cls-1" x1="510.79" y1="88.74" x2="532.74" y2="88.74"/>
        <path class="cls-1" d="M497.07,47.58h49.39c1.52,0,2.74,1.23,2.74,2.74v52.14c0,4.55-3.69,8.23-8.23,8.23h-38.42c-4.55,0-8.23-3.69-8.23-8.23v-52.14c0-1.52,1.23-2.74,2.74-2.74Z"/>
        <line class="cls-1" x1="505.3" y1="42.09" x2="505.3" y2="53.07"/>
        <line class="cls-1" x1="521.76" y1="42.09" x2="521.76" y2="53.07"/>
        <line class="cls-1" x1="538.23" y1="42.09" x2="538.23" y2="53.07"/>
      </g>
    </g>
  </g>
</svg>